<svg width="200" height="117" viewBox="0 0 200 117" fill="none" xmlns="http://www.w3.org/2000/svg">
<g id="bacardi-logo-1 1">
<g id="Group">
<path id="Vector" fill-rule="evenodd" clip-rule="evenodd" d="M120.566 15.9441C117.386 12.8401 113.666 10.3397 109.587 8.56528C105.324 6.7198 100.821 5.83704 96.0736 5.83704C91.3279 5.83704 86.8634 6.7198 82.5999 8.56424C78.5038 10.3291 74.7682 12.8303 71.5797 15.9431C68.3628 19.1522 65.9093 22.8421 64.0993 26.9329C62.3688 31.2019 61.4813 35.7639 61.4854 40.3685C61.4854 45.1022 62.3695 49.5939 64.0993 53.8051C65.9082 57.977 68.3618 61.7064 71.5797 64.795C74.7442 67.9576 78.4843 70.4895 82.5999 72.2548C86.8634 74.1003 91.3268 74.9831 96.0736 74.9831C100.82 74.9831 105.323 74.1003 109.587 72.2548C113.685 70.4793 117.41 67.9484 120.566 64.795C123.784 61.7064 126.276 57.977 127.967 53.8051C129.815 49.5939 130.7 45.1022 130.7 40.3685C130.7 35.7169 129.815 31.2242 127.967 26.9329C126.277 22.8431 123.784 19.1532 120.566 15.9441Z" fill="#D7C781"/>
<path id="Vector_2" fill-rule="evenodd" clip-rule="evenodd" d="M123.623 28.8189C122.118 25.2635 119.932 22.0347 117.187 19.3132C114.485 16.603 111.273 14.4497 107.737 12.976C104.037 11.3715 100.175 10.5697 96.0729 10.5697C91.9708 10.5697 88.1509 11.3725 84.4498 12.977C80.8309 14.5016 77.6942 16.586 74.9584 19.3142C72.1435 22.1214 70.0524 25.2505 68.5236 28.82C67.0354 32.5089 66.2314 36.3598 66.2314 40.3696C66.2314 44.4614 67.0354 48.3113 68.5236 52.0013C70.0294 55.5564 72.2151 58.785 74.9584 61.507C77.6932 64.2342 80.8309 66.3196 84.4498 67.8432C88.1499 69.4477 91.9708 70.2505 96.0729 70.2505C100.175 70.2505 104.037 69.4477 107.737 67.8432C111.274 66.3705 114.485 64.2175 117.187 61.507C119.931 58.7851 122.117 55.5564 123.623 52.0013C125.151 48.3113 125.955 44.4614 125.955 40.3696C125.955 36.3587 125.151 32.5089 123.623 28.8189Z" fill="#ED1B2D"/>
<path id="Vector_3" fill-rule="evenodd" clip-rule="evenodd" d="M115.338 22.3613L113.969 20.5968L113.648 19.7951L113.487 19.3142L112.039 19.0733C111.193 19.3142 109.987 20.4369 108.541 22.5223C106.53 25.4105 104.841 27.4958 103.312 28.82C102.266 29.7017 101.059 30.2636 99.8532 30.4235C99.5304 30.4235 99.2909 30.3425 99.0492 30.1825C98.6473 29.9426 98.4067 29.2209 98.4067 28.0972L100.577 25.6514L101.14 23.646C101.14 23.2451 100.738 23.0841 100.016 23.1641L98.2453 23.485L97.0393 23.8859L96.6374 23.405L95.672 22.5223C94.9482 21.9604 94.3858 22.0414 94.1442 22.8432L93.9839 24.4477C91.6511 25.5704 90.5243 26.4531 90.5243 27.095C90.5243 27.5758 90.7659 27.9777 91.1679 28.1771L93.5808 28.9789L93.4194 30.2625L92.4551 30.3425C91.0877 30.1815 89.8797 29.7007 88.956 28.8189C87.5886 27.6537 85.8192 25.5694 83.727 22.5212C82.6815 20.9977 81.4745 19.794 80.1884 19.0722L79.625 18.8313L78.9012 18.9123L78.4992 19.3931V20.036L78.017 20.7578L76.81 22.3613L74.1555 25.8903L71.9029 30.1815C70.8574 32.4279 70.2138 35.0751 69.9722 38.0433C69.7306 40.9304 69.8909 43.6576 70.4543 46.3048C71.4197 50.4767 73.1891 54.0856 75.7634 57.1742L76.9704 58.5378L77.3724 58.9397L77.8556 58.8982C78.016 58.6178 77.8556 58.3768 77.4536 57.976L76.6486 56.9333C75.6806 55.5578 74.8712 54.0779 74.2357 52.5216C72.7069 48.6312 72.5455 46.4648 73.5921 46.0639C74.3169 45.743 75.2 46.4648 76.2466 48.1493L76.9704 49.4329C77.211 50.1547 77.5338 50.3957 77.7744 50.2347C78.0149 50.1547 78.0149 49.9138 77.9348 49.6728L77.4526 48.9511L76.809 47.3475L75.9238 44.2994C75.4416 41.7322 75.6832 40.2086 76.5674 39.6468C77.4526 39.0849 78.5783 39.5668 79.8655 41.1703L80.9111 42.7749L81.7151 44.8602C81.7952 45.4221 81.9567 45.662 82.1983 45.662C82.6002 45.582 82.6003 45.2601 82.3597 44.6993L82.1983 43.0958L82.3597 41.5712C82.6003 41.0093 82.9231 40.6095 83.324 40.4475C84.2092 40.2076 85.0132 40.6085 85.737 41.6512C86.6222 42.8548 87.0241 44.4594 86.944 46.4637L86.3806 47.2655C85.2538 47.7463 84.6914 48.3082 84.7716 48.95C84.8528 49.7518 85.0934 50.3946 85.5755 50.7945C87.9083 49.6718 89.637 49.5119 90.8451 50.2326C91.8094 50.7945 92.7748 52.5994 93.7402 55.5666C94.7055 58.5347 95.3491 61.5828 95.5907 64.7909L95.6709 65.8346L95.7511 66.8773C95.6709 67.2792 95.8324 67.4392 96.0729 67.4392C96.3947 67.4392 96.5561 67.2792 96.4749 66.8773L96.6363 64.7909C96.8769 61.5029 97.5205 58.4942 98.4067 55.687C99.2919 52.7594 100.256 51.0354 101.222 50.3126C102.347 49.5108 104.116 49.6708 106.451 50.7135C107.093 50.3925 107.415 49.8307 107.496 48.949C107.496 48.2272 106.933 47.6664 105.807 47.2645C105.484 47.1035 105.324 46.7826 105.244 46.3817C105.244 44.3763 105.647 42.8527 106.451 41.6491C107.173 40.5254 107.978 40.1255 108.862 40.3654C109.265 40.5264 109.586 40.9273 109.787 41.4891L110.069 43.0937L109.787 44.6972C109.587 45.258 109.667 45.4989 109.988 45.58C110.189 45.6599 110.39 45.419 110.471 44.8582L111.357 42.6918L112.362 41.1682C113.649 39.5647 114.695 39.0029 115.579 39.5647C116.465 40.1266 116.706 41.7301 116.303 44.2974L115.418 47.3455L114.695 48.87L114.292 49.5918C114.211 49.9127 114.211 50.0737 114.372 50.1537C114.613 50.3147 114.935 50.0737 115.176 49.4319L115.98 48.1483C117.025 46.3838 117.911 45.662 118.635 45.9829C119.681 46.4637 119.438 48.6301 117.911 52.4395C117.349 54.0835 116.544 55.5676 115.578 56.9312L114.694 57.9739C114.291 58.2958 114.21 58.5357 114.371 58.7756L114.773 58.8961L115.176 58.4952L116.382 57.0911C119.037 53.9631 120.806 50.3936 121.691 46.3017C122.255 43.6545 122.495 40.9273 122.255 38.0401C122.013 35.072 121.29 32.4248 120.243 30.1784L117.991 25.8871L115.338 22.3613Z" fill="black"/>
<g id="Group_2">
<path id="Vector_4" fill-rule="evenodd" clip-rule="evenodd" d="M114.614 23.163L113.005 21.0776L112.764 20.5157L112.684 20.1948C112.604 19.9549 112.361 19.9549 112.121 20.1948L111.116 21.1575C109.91 22.4412 108.783 24.4466 107.898 27.0938L106.771 30.3424L105.807 31.9459C105.484 32.3478 105.083 32.5877 104.52 32.6677L102.188 32.1869L99.6136 31.3041C98.8096 31.1442 98.567 31.1442 98.969 31.3841C101.223 32.7477 101.785 35.3949 100.659 39.3247L99.372 43.2556L97.8443 46.8656C96.7175 49.7527 96.1551 52.6814 96.0739 55.8095C96.0739 54.286 95.8333 52.5204 95.4303 50.5555C94.8669 47.9882 94.1431 46.3837 93.3391 45.6619C92.6154 45.1001 91.7302 44.9401 90.846 45.1811C89.9608 45.421 89.2777 45.9828 88.8746 46.9456C89.1162 44.9401 89.3974 43.7375 89.9608 43.4166H91.2469L93.4183 44.3793L92.4539 41.892L91.4875 39.0848C91.0855 36.9994 91.0855 35.235 91.6489 33.7904C91.9808 33.0451 92.5446 32.4264 93.2569 32.0259L94.544 31.545L94.946 31.2241L94.7846 30.1004L94.544 29.6995L94.4638 30.8232L94.0608 31.0632L93.4172 31.1442C92.2113 31.2241 91.0845 31.625 90.0389 32.1869C89.2756 32.6677 88.4706 32.8287 87.7468 32.7487C87.1834 32.6687 86.7023 32.3478 86.3794 31.9469L85.4953 30.4234L84.5309 27.3348C83.6457 24.6875 82.4398 22.6022 81.0724 21.1586L80.107 20.1959H79.4634V20.5168L79.1416 21.0786L77.6941 22.9231L75.3613 26.452C73.6722 29.7006 72.8682 32.9097 72.788 36.0378C72.7068 39.6477 73.19 42.3749 74.3168 44.3804L74.396 44.3004C73.6722 41.8941 73.4306 39.2469 73.6722 36.2787C73.8326 34.1933 74.3158 32.028 75.1999 29.7016L77.6129 24.7686C77.2109 26.694 77.2109 28.9798 77.4525 31.787C77.8545 35.237 78.6584 38.0442 80.0268 40.2096H80.107C79.2218 37.6423 78.6584 34.6742 78.4981 31.3851C78.4179 28.5779 78.5793 26.2121 79.0615 24.2057L79.705 22.2802L80.3486 21.7184L81.1526 22.5201L81.9566 24.1247C82.6803 25.8092 83.0834 27.6526 83.3239 29.4586L84.2893 34.1923C84.6913 35.6358 85.3349 36.5186 86.0587 36.8395C86.7824 37.1604 87.5073 36.9994 88.3914 36.4386C89.1964 35.8768 89.7192 35.155 90.04 34.2733C89.7994 35.4759 89.638 36.4386 89.7182 37.3214C89.7984 38.2042 90.1202 39.2469 90.6034 40.3695L92.0509 43.0178L90.6034 42.295L89.8785 42.135C89.2756 42.0551 88.7934 42.4559 88.5518 43.3387C88.1498 44.3814 87.9884 45.745 87.9884 47.4295C87.9082 47.7504 87.7478 47.9914 87.5062 48.0713C86.219 48.3112 85.6567 48.7931 85.8972 49.5149L88.8736 48.7931C88.7934 48.1513 89.1152 47.5095 89.6369 46.8677C90.2805 46.1459 91.0043 45.9849 91.8895 46.3058C93.0153 46.7867 93.9806 48.3112 94.7044 50.9585C95.348 53.0844 95.75 55.5706 95.9114 58.3789L96.0728 62.6306L96.3134 58.3789C96.3946 55.5706 96.7966 53.0844 97.4402 50.9585C98.164 48.3112 99.1293 46.7867 100.256 46.3058C101.14 45.9849 101.864 46.1459 102.588 46.8677C103.15 47.5095 103.392 48.1503 103.312 48.7931L106.287 49.4349C106.609 48.8731 106.127 48.3922 104.758 48.0713C104.436 47.9903 104.276 47.7504 104.276 47.4295L103.713 43.3387C103.391 42.4559 102.909 42.0551 102.345 42.135L101.46 42.4559L100.414 42.9368L101.38 41.0113C102.103 39.4878 102.506 37.8832 102.506 36.3597L102.184 34.1944C102.666 35.3181 103.148 36.0388 103.551 36.4407C103.953 36.8416 104.355 37.0026 104.838 37.0825C105.321 37.1635 105.804 37.0026 106.206 36.6017C106.849 36.0398 107.412 35.0781 107.895 33.7135L108.86 29.4617C109.263 27.3369 109.664 25.4914 110.187 24.1278L111.113 22.5232L111.796 21.7215L112.44 22.2833L113.163 24.2088C113.565 26.2142 113.726 28.58 113.646 31.3882C113.565 34.6773 113.002 37.6454 112.037 40.2127H112.117C113.484 38.0473 114.289 35.2391 114.692 31.7901C114.932 28.983 114.932 26.6961 114.531 24.7717L116.944 29.7047C117.754 31.8212 118.294 34.0309 118.552 36.2818C118.793 39.25 118.471 41.8972 117.749 44.3035L117.828 44.3835C118.955 42.458 119.518 39.6508 119.437 36.0409C119.358 33.0727 118.471 29.9446 116.863 26.695L114.614 23.163Z" fill="#D7C781"/>
<path id="Vector_5" fill-rule="evenodd" clip-rule="evenodd" d="M95.4302 25.6501L94.948 26.3719C94.8668 26.5318 95.0282 26.6118 95.2698 26.6928L96.2352 26.7728C96.6371 26.7728 96.7975 26.6928 96.8777 26.5329L96.6371 25.891L95.4302 25.6501ZM98.0035 25.4092L98.1649 26.212L98.6481 25.6501L98.8085 25.0883L98.3253 25.1682L98.0035 25.4092Z" fill="#D7C781"/>
</g>
<path id="Vector_6" fill-rule="evenodd" clip-rule="evenodd" d="M193.481 111.401C193.076 110.995 192.527 110.765 191.953 110.758C191.309 110.758 190.746 110.999 190.344 111.401C189.941 111.841 189.701 112.362 189.701 113.005C189.701 113.567 189.941 114.127 190.344 114.529C190.827 114.931 191.389 115.169 191.953 115.169C192.526 115.163 193.075 114.933 193.481 114.529C193.887 114.124 194.118 113.577 194.124 113.005C194.124 112.361 193.883 111.84 193.481 111.401ZM191.953 111.078C192.435 111.078 192.837 111.24 193.239 111.639C193.641 112.041 193.802 112.442 193.802 113.004C193.802 113.566 193.641 113.966 193.239 114.286C192.836 114.688 192.435 114.847 191.953 114.847C191.389 114.847 190.987 114.688 190.585 114.286C190.182 113.886 190.022 113.485 190.022 113.004C190.022 112.442 190.182 112.04 190.585 111.639C190.988 111.24 191.389 111.078 191.953 111.078Z" fill="black"/>
<path id="Vector_7" fill-rule="evenodd" clip-rule="evenodd" d="M192.918 112.442L192.516 111.88L191.873 111.72H190.987V114.208H191.47V113.246H191.792L192.275 113.325L192.516 113.887V114.207H192.918V113.645L192.758 113.245L192.356 113.083L192.677 112.923L192.918 112.442ZM191.792 112.041L192.356 112.122L192.516 112.522L192.275 112.845L191.873 112.924H191.47V112.041H191.792ZM84.209 94.5138C84.1288 89.9422 84.1288 87.0935 84.2903 85.6904L84.0486 85.6115L83.0031 86.2927L81.2337 86.0923C78.4211 84.9975 75.3948 84.5585 72.3859 84.8087C70.5364 84.8897 68.766 85.2916 67.1175 86.0923C65.4283 86.8141 63.9006 87.8973 62.4926 89.2204C59.6381 92.1896 58.2707 96.0395 58.3499 100.732C58.4311 105.303 59.8776 108.914 62.855 111.48C65.6699 113.968 69.169 115.091 73.4326 114.931C76.4079 114.849 78.9822 114.048 81.1546 112.604C82.8437 111.561 84.0507 110.199 84.8547 108.673L85.4983 107.392L85.0953 107.151C83.7279 109.155 82.0387 110.76 80.0278 111.843C78.1772 112.766 76.0861 113.167 73.8335 113.007C71.179 112.926 68.9274 111.723 67.1581 109.557C65.3075 107.231 64.3015 104.184 64.2213 100.533C64.1016 96.5234 64.8649 93.2354 66.5135 90.5882C68.2839 87.781 70.777 86.3364 73.9137 86.2959C76.4068 86.1764 78.498 86.8982 80.3485 88.4217C82.1991 90.0263 83.3249 92.0307 83.7269 94.5169H84.209V94.5138ZM27.3399 91.6267C27.0182 89.7002 26.0538 88.1767 24.3646 87.0935C22.6349 85.7714 20.1824 85.2095 17.2466 85.2906L5.74432 85.3695V85.8908L6.46705 86.0123L7.43243 86.3333L8.71961 87.134C9.12159 87.5359 9.28197 87.9368 9.28197 88.4976V110.918C9.28197 111.72 8.63838 112.443 7.43243 113.165L5.66309 113.646V114.127L12.8623 114.048L20.3823 114.208C23.318 114.127 25.6518 113.407 27.4201 112.242C29.2707 110.838 30.3163 109.073 30.3965 106.828C30.4767 104.501 29.6727 102.495 27.8232 100.971C26.134 99.5674 24.2032 98.8456 21.9913 98.7646C23.5596 98.5236 24.8468 97.8818 25.8924 96.8391C27.1796 95.4766 27.6628 93.791 27.3399 91.6267ZM20.1417 88.1767C21.3487 89.2193 21.9923 90.664 21.9923 92.4284C21.9923 94.4349 21.5091 95.9574 20.5437 96.8402C19.3367 97.8829 17.407 98.2048 14.5921 97.9639V87.134C15.0743 86.8951 15.6377 86.8131 16.2813 86.7341C17.809 86.7352 19.0962 87.215 20.1417 88.1767ZM24.6063 106.266C24.6864 107.469 24.525 108.43 24.123 109.313C23.1577 111.479 21.1873 112.682 18.0496 112.763C15.7168 112.763 14.5911 111.88 14.5911 110.037V99.8073L17.0852 99.5684C20.0605 99.8073 22.2329 100.89 23.5596 102.978C24.181 103.968 24.541 105.099 24.6063 106.266ZM186.323 85.7714V85.3695H174.136V85.7714L175.906 86.3333C177.032 86.8951 177.595 87.6968 177.595 88.7385V110.917C177.595 111.84 177.032 112.521 175.906 113.164L174.136 113.724V114.126H186.323V113.724L184.633 113.164L183.507 112.361C183.105 111.961 182.865 111.478 182.865 110.917V88.6575C182.865 87.7768 183.427 86.974 184.633 86.3333C185.277 86.0913 185.84 85.8908 186.323 85.7714ZM128.046 85.4889L124.265 85.3695L114.613 85.4889V85.7704L116.302 86.3322L117.428 87.1329C117.83 87.5348 118.071 87.9357 118.071 88.4965V110.998C118.071 111.559 117.83 111.961 117.428 112.361L116.302 113.083L114.613 113.724V114.126H126.356V113.724L124.828 113.164L123.782 112.442C123.46 112.04 123.259 111.639 123.259 111.078V100.049C123.259 99.8083 123.46 99.6473 123.662 99.6473C124.425 99.6473 125.39 100.369 126.597 101.694L129.009 105.223L131.262 109.233L133.675 112.602C134.601 113.566 135.564 114.047 136.529 114.126C138.621 114.367 140.793 114.367 142.965 114.207V113.724C141.839 113.566 140.873 113.164 140.149 112.602L138.541 110.677L136.369 107.227L133.957 103.377C132.389 100.889 130.698 99.4864 128.93 99.0845C131.1 99.0055 132.871 98.3647 134.199 97.159C135.727 95.8774 136.451 94.2729 136.21 92.3474C135.969 90.341 135.004 88.7364 133.354 87.4933C131.827 86.2927 130.058 85.6104 128.046 85.4889ZM125.151 86.7352C126.68 86.8141 127.967 87.2949 129.011 88.2992C130.058 89.3014 130.62 90.664 130.701 92.4295C130.782 94.034 130.62 95.2367 130.138 96.1194C129.655 96.9222 128.771 97.483 127.483 97.8839L125.231 98.1248L123.382 97.9649V87.0935L125.151 86.7352ZM168.747 89.6213C165.851 86.974 161.991 85.6115 157.245 85.3695L149.562 85.4889L143.37 85.3695V85.7714L145.058 86.3333L146.185 87.0935C146.587 87.4954 146.748 87.9378 146.748 88.4976V110.999L146.185 112.443L145.058 113.165L143.37 113.646V114.127L157.085 114.287C162.231 114.368 166.334 112.923 169.31 109.796C170.532 108.42 171.512 106.847 172.206 105.143C172.768 103.539 173.091 101.894 173.091 100.131C173.091 95.7975 171.642 92.2685 168.747 89.6213ZM157.647 87.0935C160.462 87.6148 162.634 89.0594 164.322 91.2258C166.012 93.4711 166.817 96.1994 166.897 99.4874C166.978 102.816 166.414 105.623 165.209 107.789C163.921 110.277 161.91 111.88 159.095 112.522L156.923 112.763L154.791 112.682C153.907 112.443 153.264 112.242 153.022 111.962C152.46 111.479 152.137 110.679 152.058 109.475V87.134C153.585 86.6936 155.516 86.6936 157.647 87.0935ZM47.0069 84.9696L42.6226 85.0891L33.6956 110.436C33.2937 111.638 32.5688 112.442 31.6035 113.004L29.3509 113.724V114.126H39.0037V113.724L37.0729 113.004C36.5095 112.602 36.1877 112.121 36.1877 111.399L36.7511 108.994L39.2453 101.694H47.3287L49.8229 108.672L50.4654 111.078C50.5466 111.88 50.305 112.522 49.6614 112.923L47.8119 113.645V114.126H60.3598V113.645L58.429 113.083C57.5438 112.681 56.8607 111.961 56.4181 110.838L47.0069 84.9696ZM46.7663 99.6473H39.8889L43.3474 89.7812L46.7663 99.6473ZM100.658 85.0901H96.3143L87.3457 110.437C86.9438 111.639 86.3002 112.443 85.2546 113.005L83.0843 113.646V114.127H92.6153V113.725L90.7657 113.005C90.1221 112.603 89.8003 112.122 89.8805 111.401L90.3637 108.995L92.8569 101.695H101.061L104.199 111.079C104.279 111.881 103.957 112.523 103.395 112.924C102.993 113.247 102.349 113.486 101.544 113.646V114.127H113.969V113.646L112.12 113.084C111.275 112.682 110.591 111.962 110.149 110.839L100.658 85.0901ZM100.497 99.6473H93.5796L97.0381 89.7812L100.497 99.6473Z" fill="black"/>
</g>
</g>
</svg>
