<svg width="204" height="133" viewBox="0 0 204 133" fill="none" xmlns="http://www.w3.org/2000/svg">
<g id="Ballantine`s Symbol 1" clip-path="url(#clip0_130_4063)">
<g id="Group">
<path id="Vector" fill-rule="evenodd" clip-rule="evenodd" d="M154.24 52.8818C154.24 53.5146 153.948 54.1489 153.317 54.7355C152.733 55.3683 152.149 55.6616 151.566 55.6616C150.983 55.6616 150.498 55.4189 150.059 54.9782C149.685 54.5267 149.479 53.9579 149.478 53.3701C149.478 52.6362 149.72 52.0019 150.304 51.4167C150.838 50.7824 151.468 50.4877 152.147 50.4877C152.684 50.4877 153.17 50.7333 153.606 51.2694C153.998 51.7592 154.24 52.2952 154.24 52.8818ZM21.1877 68.7864C22.5965 67.3214 23.2771 65.5659 23.2771 63.5186C23.2771 61.5175 22.5965 59.9571 21.2366 58.7868C19.8753 57.6151 17.9802 57.0284 15.5022 57.0284C10.837 57.0284 6.95032 58.7868 3.88815 62.3483C1.31236 65.3738 0 68.5928 0 72.0084C0 74.5484 0.97132 76.7923 2.9154 78.646C5.10266 80.6947 7.87128 81.7191 11.322 81.7191C20.9431 81.7191 33.1414 71.1314 37.8052 63.3265C40.9637 58.0557 43.7338 52.7864 47.2334 47.7613C49.7603 44.1016 52.0929 41.2235 54.1334 39.0273C60.4016 41.1743 53.2096 57.4229 49.225 55.0302C48.8854 54.8352 48.3501 54.8829 47.7673 54.7398C47.2861 54.6514 46.7987 54.6022 46.3096 54.5925C45.58 54.5925 45.0951 54.6402 44.7541 54.8352C44.4144 55.0303 44.2691 55.3712 44.2691 55.9101C44.2691 56.3479 44.3655 56.5935 44.5612 56.6889C44.7555 56.7395 45.534 56.884 46.7974 56.7872L50.297 56.5415C56.5653 59.7129 42.6661 78.0102 36.5432 78.5983C33.6278 78.841 32.7529 77.1332 33.1414 74.4979C34.1127 67.96 42.8114 65.5211 45.9714 64.3985C41.2573 64.3985 32.7529 67.7173 31.9269 74.6452C31.4894 78.1099 34.1631 79.6718 37.4181 79.6718C41.4026 79.6718 45.3886 77.8658 48.8379 75.1827C54.4269 70.7442 56.5653 62.3989 52.1418 56.3017C61.2291 53.0812 64.4855 43.8097 55.3493 37.909C56.3207 36.5408 59.8692 34.6379 61.4722 34.833C61.5212 34.833 61.4722 34.7853 61.3758 34.6379H60.5973C59.626 34.6379 58.1683 35.1263 56.2732 36.103C55.6414 36.3963 54.7666 36.8818 53.6974 37.5175C52.2043 37.145 50.6963 36.835 49.1775 36.5884C47.8101 36.3875 46.4296 36.2904 45.0476 36.2981C38.4383 36.2981 32.3643 37.5652 26.8732 40.1052C21.382 42.6423 18.6119 45.6158 18.6119 48.9345C18.6119 50.6423 19.1458 51.96 20.1185 52.9844C21.1388 54.0088 22.5001 54.4971 24.2009 54.4971C28.0387 54.4971 31.6837 52.9367 34.9401 49.4705C37.3217 46.984 38.3908 45.1303 38.8758 43.8603C36.4468 46.8857 31.2952 53.3253 25.4644 53.3759C24.152 53.3759 23.1318 53.0826 22.3547 52.5466C21.6252 52.0077 21.2366 51.1783 21.2366 50.1063C21.2366 47.2282 23.2771 44.496 27.3595 41.9083C32.1211 38.8828 38.0023 37.4221 45.0965 37.4221C46.7485 37.4221 48.1573 37.4698 49.2279 37.6649C50.2985 37.8599 51.2684 38.1055 52.1922 38.4465C50.2481 39.9087 48.0134 41.5673 45.8261 44.0091C43.8331 46.2529 41.6473 48.3017 39.4111 51.3257C33.3846 59.3763 26.8732 70.2096 19.0983 76.3559C15.9872 78.8453 13.0229 80.6514 10.3996 80.6514C7.82379 80.6514 5.73438 79.9174 4.22775 78.5044C2.67221 77.0899 1.89515 75.2838 1.89515 73.0891C1.89515 70.0131 3.35285 66.94 6.17183 63.8191C9.37934 60.3053 13.1207 58.5484 17.3499 58.5484C18.8565 58.5484 20.071 59.0368 20.897 60.0135C21.7705 60.9902 22.2094 62.1605 22.2094 63.5273C22.2094 65.2351 21.5287 66.7478 20.2164 68.0163C17.8838 70.1128 16.2807 70.8945 12.6847 71.6732C16.2779 71.7628 18.4651 71.0808 21.1877 68.7864ZM47.622 55.7599C47.0867 56.0532 45.7268 56.2959 45.6304 55.7599C45.7757 55.1733 47.0881 55.4666 47.622 55.7599Z" fill="black"/>
<path id="Vector_2" fill-rule="evenodd" clip-rule="evenodd" d="M190.833 78.9365C186.555 81.4736 183.202 80.2541 179.949 76.9353C179.711 76.6921 179.514 76.4121 179.365 76.106C179.123 76.2534 178.926 76.447 178.733 76.5944C175.867 78.8888 173.438 80.0085 171.397 80.0085C170.279 80.0085 169.404 79.6675 168.725 79.0318C168.093 78.3484 167.752 77.4237 167.752 76.252C167.752 76.054 167.752 75.911 167.8 75.713C167.605 75.911 167.46 76.1046 167.313 76.252C165.031 78.8368 163.185 80.1068 161.773 80.1068C160.947 80.1068 160.314 79.7658 159.78 79.13C159.246 78.4943 158.954 77.7141 158.907 76.7403C158.76 74.836 159.879 72.2021 162.307 68.8833C164.687 65.5169 165.857 63.5635 165.807 62.9321L165.418 62.4437C163.717 62.4437 160.412 64.9303 157.835 69.5667C155.454 73.7625 153.801 76.983 152.247 79.6184H147.874L156.233 64.3942C156.475 63.9059 156.233 61.7589 154.095 65.0776C152.443 67.6148 150.742 70.1042 149.088 72.6399C148.993 72.7381 148.942 72.8349 148.847 72.9809C145.688 78.1057 142.675 80.0071 140.781 80.0071C140.05 80.0071 139.371 79.7137 138.884 79.13C138.351 78.594 138.109 77.665 138.109 76.4947V76.3473C135.045 79.5678 132.179 80.7381 130.577 80.1544C129.41 79.7643 128.681 79.5678 128.486 78.4466C128.42 78.1591 128.388 77.8647 128.391 77.5696C128.391 76.5929 128.681 75.4703 129.167 74.1526C129.217 73.9576 129.314 73.7625 129.412 73.5689C128.713 74.4877 127.983 75.3825 127.224 76.252C124.939 78.8368 123.093 80.1068 121.634 80.1068C120.858 80.1068 120.225 79.7658 119.691 79.13C119.154 78.4958 118.865 77.7141 118.815 76.7403C118.671 74.836 119.788 72.2021 122.168 68.8833C124.598 65.5169 125.765 63.5635 125.718 62.9321L125.328 62.4437C123.627 62.4437 120.321 64.9303 117.747 69.5667C115.367 73.7625 113.714 76.983 112.16 79.6184H107.786L116.094 64.3942C116.386 63.9059 116.141 61.7589 114.006 65.0776C113.666 65.6137 113.325 66.102 112.986 66.6409C111.623 69.1781 109.241 72.8349 106.814 76.0555C104.284 79.3265 102.586 79.6198 101.274 79.6198C100.155 79.6198 99.3784 78.8382 98.9899 77.3255C98.8613 76.6005 98.7963 75.8657 98.7956 75.1293C97.9696 76.2014 97.3379 76.983 96.8515 77.5191C95.3449 79.0824 94.0815 79.9088 93.0123 79.9088C92.1374 79.9088 91.3604 79.5187 90.6797 78.6894C90.048 77.9106 89.7559 76.8862 89.7559 75.7116V75.5165C86.0634 79.276 83.2934 80.5937 82.2242 79.9074C81.7378 79.5664 81.155 79.617 80.8154 79.0809C80.4758 78.4943 80.3305 77.7632 80.3305 76.8848C80.3305 76.4932 80.3794 76.0526 80.4283 75.5671C76.2481 79.9074 72.2146 80.8841 71.1943 79.9074C70.7569 79.4696 70.1252 79.617 69.7856 79.0809C69.446 78.4943 69.3006 77.7632 69.3006 76.8848C69.3006 76.4441 69.3495 76.0049 69.3985 75.5671C67.1148 78.1519 64.6354 80.153 63.5188 79.617C62.4985 79.1286 61.6725 78.8353 61.2351 77.3226C61.058 76.605 60.9924 75.8641 61.0408 75.1264C60.1659 76.1985 59.5342 76.9802 59.0478 77.5162C57.5412 79.0795 56.2778 79.9059 55.2575 79.9059C54.3337 79.9059 53.5552 79.5158 52.9249 78.6865C52.2932 77.9077 51.9521 76.8833 51.9521 75.7087C51.9521 73.0762 53.5077 70.0002 56.6174 66.5369C59.727 63.0231 62.546 61.2691 65.1693 61.2691C66.3852 61.2691 67.1623 61.8051 67.5983 62.8295L68.3279 61.5118H72.701L63.7116 76.736C63.5274 77.01 63.426 77.3316 63.4195 77.6621C63.3216 78.1028 63.5159 78.1028 63.9548 78.2964C65.1204 78.7342 68.2314 75.466 70.223 72.6355C70.6115 71.7094 71.1468 70.7341 71.7771 69.7574L87.6679 44.1421H91.7978L71.7268 76.8371C71.6778 76.9845 71.58 77.2287 71.58 77.5711C71.5311 77.8615 71.4836 78.1071 71.4332 78.2039C71.3843 78.3513 71.4332 78.4972 71.58 78.6446C71.58 78.6923 71.6289 78.74 71.6764 78.74C72.2592 79.2789 76.2438 78.3022 79.5491 74.4474C80.424 73.4706 81.2011 72.348 81.9781 71.1792C82.2213 70.6908 82.5134 70.2025 82.8041 69.7632L98.6934 44.1479H102.777L82.7552 76.8371C82.4631 77.3255 82.2702 78.3022 82.7063 78.7385C83.8229 79.3728 88.1975 75.713 90.6754 71.9088C91.4539 70.2501 92.6684 68.4441 94.4182 66.5413C97.4789 63.0274 100.298 61.2734 102.921 61.2734C104.139 61.2734 104.914 61.8094 105.304 62.8338L106.08 61.5161H110.453L101.465 76.7403C101.247 76.9995 101.126 77.3272 101.124 77.6664C101.075 78.1071 101.22 78.3007 101.659 78.3007C102.727 78.3007 102.777 78.5434 105.11 76.1046C105.157 76.054 107.053 73.5198 109.338 70.0536C110.211 68.6883 111.039 67.3186 111.865 65.9532C115.412 59.5136 121.291 60.3906 119.979 64.6861C119.884 65.2698 119.59 65.6122 119.106 66.4416C120.119 64.9713 121.407 63.7122 122.897 62.7341C124.451 61.7574 125.666 61.1737 126.492 61.126C127.223 61.126 127.852 61.2734 128.291 61.5638C128.777 61.8571 129.019 62.3455 129.066 63.0289C129.164 64.5416 127.902 67.177 125.23 70.9812C122.558 74.7883 121.293 77.2287 121.343 78.3498C121.391 78.8888 121.683 79.1315 122.166 79.1315C123.043 79.1315 124.549 77.9121 126.637 75.4717C128.047 73.9113 129.796 71.5693 131.936 68.5915C132.469 67.8604 132.956 67.0787 133.49 66.3L138.736 57.907H133.343L133.829 56.9779H139.467L143.112 51.5122L147.387 51.5627L143.742 56.7829L147.921 56.7352L147.68 57.5645H142.967L131.741 75.5685C131.449 76.0063 131.205 76.5929 130.963 77.2763C130.718 77.8271 130.522 78.3986 130.379 78.9841C131.546 79.9608 135.677 77.6188 138.641 73.9576C138.797 73.5489 138.991 73.1564 139.223 72.7858L146.268 61.5147H150.254L141.752 75.2738C141.46 75.7622 141.216 76.2982 140.974 76.8342C140.729 77.3703 140.584 77.8109 140.584 78.1996C140.584 78.6402 140.781 78.8859 141.121 78.8859C142.433 78.8859 144.813 77.0293 148.068 72.3451C149.333 70.201 150.645 68.1002 151.955 65.9532C155.502 59.5136 161.385 60.3906 160.072 64.6861C159.974 65.2698 159.684 65.6122 159.199 66.4416C160.21 64.9707 161.497 63.7115 162.988 62.7341C164.545 61.7574 165.759 61.1737 166.585 61.126C167.361 61.126 167.945 61.2734 168.381 61.5638C168.87 61.8571 169.112 62.3455 169.159 63.0289C169.257 64.5416 167.992 67.177 165.32 70.9812C162.648 74.7883 161.386 77.2287 161.433 78.3498C161.481 78.8888 161.773 79.1315 162.259 79.1315C163.133 79.1315 164.64 77.9121 166.73 75.4717C167.166 75.034 167.604 74.495 168.09 73.8637C168.722 71.3236 170.47 68.6435 173.239 65.9561C176.741 62.542 179.753 60.8819 182.328 60.8819C183.882 60.8819 184.708 61.7589 184.708 63.5649C184.708 68.5915 178.488 71.0318 174.21 70.7385C173.288 71.7629 171.636 74.3 171.296 75.2767C170.957 76.3011 170.81 77.1304 170.81 77.8615C170.81 78.253 170.957 78.5449 171.246 78.7385C171.538 78.9364 171.929 78.9841 172.364 78.9841C173.724 78.9841 175.914 77.5696 178.924 74.7392C178.78 73.3233 179.414 71.9565 181.113 71.9565C181.257 71.9565 181.402 71.9565 181.549 72.0042L188.255 64.9808V65.0285L188.547 64.7352C190.006 63.1748 191.172 61.9048 192.047 60.9787C192.435 60.002 192.435 58.5889 193.261 57.2712C193.942 56.0995 195.546 54.8786 196.178 56.8797C196.712 58.5384 195.352 60.3444 193.795 60.6391C192.921 60.8342 193.067 62.3469 193.067 63.5649C193.067 64.4419 193.311 65.8116 193.699 67.6148C195.012 73.2756 194.962 75.8633 190.833 78.9365ZM182.716 72.8364C183.444 73.8131 183.495 75.3258 181.794 76.1552C181.015 76.5453 185.827 83.4746 189.956 74.9357C191.366 72.007 192.241 68.6912 192.241 64.8364C192.241 64.5907 192.241 64.2498 192.193 63.9073C192.193 63.5172 192.143 62.9812 192.095 62.2487C190.24 64.1802 188.442 66.1658 186.702 68.2028C186.396 68.5144 186.104 68.8403 185.829 69.1795C185.682 69.3746 185.537 69.5696 185.342 69.7632C184.515 70.8284 183.639 71.8539 182.716 72.8364ZM66.332 63.812C66.332 63.0303 65.9924 62.6402 65.3117 62.6402C64.0483 62.6402 61.9589 64.8364 59.1399 69.1275C56.2734 73.423 54.8632 76.3488 54.8632 77.8615C54.8632 78.3022 55.0575 78.5449 55.3985 78.5449C56.4677 78.5449 58.5571 76.4008 61.6668 72.1053C64.7764 67.8098 66.332 65.03 66.332 63.812ZM104.088 63.812C104.088 63.0303 103.749 62.6402 103.068 62.6402C101.806 62.6402 99.7151 64.8364 96.9465 69.1275C94.08 73.423 92.6698 76.3488 92.6698 77.8615C92.6698 78.3022 92.8641 78.5449 93.2037 78.5449C94.2729 78.5449 96.3623 76.4008 99.4244 72.1053C102.534 67.8098 104.088 65.03 104.088 63.812ZM182.035 62.1013C179.947 62.1013 175.769 67.6148 174.941 69.5682C180.336 70.2024 184.954 62.1013 182.035 62.1013Z" fill="black"/>
<path id="Vector_3" fill-rule="evenodd" clip-rule="evenodd" d="M183.445 59.6146C184.37 59.3213 184.954 58.4428 185.097 57.8562C185.097 57.7118 185.097 57.6135 185.049 57.5153C185.048 57.4905 185.037 57.4673 185.02 57.4497C185.002 57.4322 184.979 57.4216 184.954 57.4199H184.757C184.563 57.5153 184.321 57.5153 184.029 57.4199C183.64 57.3217 183.348 57.0789 183.156 56.6382C182.961 56.2481 182.863 55.8089 182.961 55.3206C183.108 54.8322 183.35 54.4912 183.737 54.1979C184.127 53.9075 184.563 53.857 185.002 53.9552C185.583 54.1026 185.975 54.4913 186.264 55.0779C186.556 55.7121 186.603 56.4432 186.461 57.274C186.216 58.3446 185.438 59.369 183.445 59.6146Z" fill="black"/>
<path id="Vector_4" fill-rule="evenodd" clip-rule="evenodd" d="M200.892 73.6656C202.593 73.6656 204.001 75.0816 204.001 76.7894C204.001 78.4971 202.592 79.9102 200.892 79.9102C199.141 79.9102 197.781 78.4957 197.781 76.7894C197.781 75.083 199.141 73.6656 200.892 73.6656ZM200.892 73.959C200.16 73.9825 199.466 74.2909 198.957 74.8192C198.447 75.3474 198.162 76.054 198.162 76.7894C198.162 77.5248 198.447 78.2313 198.957 78.7596C199.466 79.2878 200.16 79.5963 200.892 79.6198C202.399 79.6198 203.661 78.3498 203.661 76.7894C203.661 75.2289 202.399 73.959 200.892 73.959ZM200.987 76.642C201.28 76.642 201.524 76.642 201.619 76.5438C201.766 76.4484 201.813 76.301 201.813 76.0554C201.813 75.8633 201.766 75.7144 201.667 75.6176C201.523 75.5194 201.327 75.4702 200.986 75.4702H200.258V76.642H200.987ZM199.725 78.8887H200.259V77.1304H200.891C201.133 77.1304 201.327 77.178 201.425 77.2286C201.572 77.2763 201.619 77.3731 201.667 77.519C201.717 77.6173 201.764 77.8123 201.764 78.1056C201.812 78.4466 201.862 78.6893 201.911 78.8873H202.493C202.398 78.6893 202.346 78.396 202.298 78.1056C202.251 77.7646 202.251 77.5696 202.251 77.519C202.203 77.324 202.104 77.2286 202.057 77.1289C201.95 77.0251 201.814 76.957 201.667 76.9339C201.775 76.9168 201.878 76.8778 201.97 76.8191C202.062 76.7605 202.142 76.6835 202.203 76.5929C202.347 76.4455 202.398 76.2519 202.398 76.0063C202.398 75.6653 202.3 75.4226 202.058 75.2752C201.864 75.0801 201.524 74.9819 201.085 74.9819H199.725V78.8887ZM4.47021 97.4288V92.0612L3.40104 95.523H2.62255L1.55338 92.2548V97.4273H0.338867V89.9604H1.79657L3.01107 93.8629L4.27451 89.9604H5.7322V97.4273L4.47021 97.4288ZM11.0306 93.6707C11.0306 94.6475 11.0795 95.3294 11.2738 95.7701C11.4205 96.2108 11.7112 96.4044 12.0523 96.4044C12.3933 96.4044 12.684 96.2093 12.8307 95.7701C12.9761 95.3294 13.0739 94.6475 13.0739 93.6707C13.0739 92.7446 12.9761 92.0121 12.8307 91.622C12.684 91.1842 12.3933 90.9877 12.0523 90.9877C11.7112 90.9877 11.4205 91.1856 11.2738 91.622C11.0795 92.0106 11.0306 92.7446 11.0306 93.6707ZM14.6755 93.6707C14.6755 94.9884 14.4323 95.9651 13.9949 96.5994C13.5574 97.2828 12.9257 97.6238 12.0508 97.6238C11.2248 97.6238 10.5442 97.2828 10.1067 96.5994C9.66928 95.916 9.4261 94.9884 9.4261 93.6707C9.4261 92.4036 9.66928 91.4746 10.1067 90.7927C10.5442 90.1093 11.2234 89.7683 12.0508 89.7683C12.9257 89.7683 13.5574 90.1092 13.9949 90.745C14.4323 91.4269 14.6755 92.4036 14.6755 93.6707ZM22.4993 97.4288V92.0612L21.4302 95.523H20.6531L19.5839 92.2548V97.4273H18.3694V89.9604H19.8271L21.0416 93.8629L22.3051 89.9604H23.7628V97.4273L22.4993 97.4288ZM28.0869 97.4288V89.9619H32.4125V91.1336H29.5935V92.9873H31.634V94.1591H29.5935V96.2584H32.5579V97.4302L28.0869 97.4288ZM36.7381 97.4288V89.9619H38.1469L39.5557 93.3789C39.6521 93.6693 39.7989 94.0117 39.8953 94.305C40.0421 94.646 40.1874 95.039 40.2853 95.38C40.2363 94.9884 40.2363 94.5983 40.1888 94.2082C40.1399 93.7676 40.1399 93.3283 40.1399 92.8905L40.0924 89.9619H41.4523V97.5732H40.1888L38.6333 94.0623C38.488 93.8167 38.3915 93.5234 38.2448 93.1824C38.0994 92.8414 38.0016 92.499 37.8562 92.158C37.9052 92.8414 37.9526 93.574 37.9526 94.4524C37.9526 94.5507 38.0016 94.6475 38.0016 94.698L38.0505 97.4302L36.7381 97.4288ZM47.332 97.4288V91.1336H45.4858V89.9619H50.6848V91.1336H48.8386V97.4288H47.332ZM56.0796 93.6707C56.0796 94.6475 56.176 95.3294 56.3214 95.7701C56.4681 96.2108 56.7588 96.4044 57.0999 96.4044C57.4884 96.4044 57.7316 96.2093 57.8769 95.7701C58.0712 95.3294 58.1201 94.6475 58.1201 93.6707C58.1201 92.7446 58.0712 92.0121 57.8769 91.622C57.7316 91.1842 57.4884 90.9877 57.0999 90.9877C56.7603 90.9877 56.4681 91.1856 56.3214 91.622C56.176 92.0106 56.0796 92.7446 56.0796 93.6707ZM59.7231 93.6707C59.7231 94.9884 59.4814 95.9651 59.0425 96.5994C58.605 97.2828 57.9733 97.6238 57.0984 97.6238C56.2724 97.6238 55.6393 97.2828 55.1543 96.5994C54.7169 95.916 54.5226 94.9884 54.5226 93.6707C54.5226 92.4036 54.7169 91.4746 55.1543 90.7927C55.6393 90.1093 56.2724 89.7683 57.0984 89.7683C57.9733 89.7683 58.605 90.1092 59.0425 90.745C59.4799 91.4269 59.7231 92.4036 59.7231 93.6707ZM63.5134 96.5994L64.4848 95.6227C64.7279 95.916 64.9711 96.1111 65.2143 96.257C65.4561 96.4044 65.7482 96.4997 65.9914 96.4997C66.331 96.4997 66.5742 96.4043 66.7699 96.2093C66.8636 96.1331 66.9385 96.0362 66.9889 95.9262C67.0393 95.8162 67.0638 95.6961 67.0605 95.575C67.0722 95.3472 67.0034 95.1226 66.8663 94.9408C66.7209 94.7457 66.5267 94.5998 66.331 94.4524L65.0186 93.5754C64.6491 93.3771 64.3323 93.0927 64.0948 92.7461C63.9041 92.4564 63.803 92.1166 63.8041 91.7694C63.8041 91.1351 63.9984 90.6973 64.4358 90.3043C64.8733 89.9142 65.4561 89.7683 66.1367 89.7683C66.6231 89.7683 67.0116 89.8188 67.3512 90.0139C67.7398 90.1584 68.0794 90.404 68.3715 90.745L67.3512 91.5237C67.1955 91.3203 66.9963 91.1544 66.7684 91.0383C66.5881 90.9434 66.3878 90.8929 66.1842 90.8909C65.9425 90.8909 65.6993 90.9386 65.5539 91.086C65.4072 91.1842 65.3107 91.3792 65.3107 91.5743C65.3107 91.7694 65.3597 91.9153 65.505 92.0626C65.6014 92.2577 65.7482 92.4036 65.9914 92.551L67.2059 93.2821C67.6923 93.6231 68.0319 93.9164 68.2751 94.2588C68.4693 94.5998 68.5672 94.9422 68.5672 95.3814C68.5672 96.0648 68.324 96.6009 67.8865 97.0372C67.4001 97.4288 66.8174 97.6238 66.0403 97.6238C65.505 97.6238 65.0676 97.5256 64.6315 97.3782C64.2124 97.1933 63.8327 96.9288 63.5134 96.5994ZM81.98 97.4288V89.9619H83.9241C84.9933 89.9619 85.7228 90.2552 86.2078 90.8418C86.6452 91.4255 86.8884 92.4022 86.8884 93.6693C86.8884 94.987 86.6452 95.9637 86.2078 96.5474C85.7214 97.134 84.9918 97.4273 83.9241 97.4273L81.98 97.4288ZM83.4866 91.1336V96.2108H83.8262C84.3615 96.2108 84.7501 96.0634 84.9932 95.6718C85.2364 95.2817 85.3329 94.6475 85.3329 93.6707C85.3329 92.7446 85.2364 92.0626 84.9932 91.7202C84.7515 91.3287 84.3615 91.1336 83.8262 91.1336H83.4866ZM91.3104 97.4288V89.9619H95.6346V91.1336H92.817V92.9873H94.8575V94.1591H92.817V96.2584H95.7814V97.4302L91.3104 97.4288ZM110.652 91.1336H109.485V89.9619H113.372V91.1336H112.206V96.2584H113.373V97.4302H109.486V96.2584H110.653L110.652 91.1336ZM118.086 97.4288V89.9619H119.494L120.905 93.3789C121 93.6693 121.146 94.0117 121.293 94.305C121.391 94.646 121.538 95.039 121.683 95.38L121.536 94.2082C121.536 93.7676 121.486 93.3283 121.486 92.8905L121.439 89.9619H122.798V97.5732H121.536L119.979 94.0623C119.833 93.8167 119.738 93.5234 119.591 93.1824C119.444 92.8414 119.349 92.499 119.202 92.158C119.25 92.8414 119.297 93.574 119.349 94.4524V94.698L119.397 97.4302L118.086 97.4288ZM126.882 96.5994L127.805 95.6227C128.049 95.916 128.291 96.1111 128.533 96.257C128.777 96.4044 129.067 96.4997 129.359 96.4997C129.651 96.4997 129.896 96.4043 130.09 96.2093C130.183 96.133 130.258 96.0361 130.308 95.9261C130.358 95.8161 130.383 95.696 130.379 95.575C130.391 95.3472 130.322 95.1226 130.185 94.9408C130.044 94.7416 129.862 94.5751 129.651 94.4524L128.339 93.5754C127.903 93.3298 127.61 93.0394 127.416 92.7461C127.222 92.4528 127.124 92.1118 127.124 91.7694C127.124 91.1351 127.366 90.6973 127.805 90.3043C128.193 89.9142 128.777 89.7683 129.506 89.7683C129.944 89.7683 130.332 89.8188 130.72 90.0139C131.06 90.1584 131.404 90.404 131.693 90.745L130.72 91.5237C130.538 91.3277 130.325 91.1636 130.09 91.0383C129.909 90.9436 129.709 90.8931 129.506 90.8909C129.279 90.8795 129.056 90.9486 128.875 91.086C128.726 91.1842 128.631 91.3792 128.631 91.5743C128.631 91.7694 128.726 91.9153 128.825 92.0626C128.923 92.2577 129.117 92.4036 129.311 92.551L130.526 93.2821C131.012 93.6231 131.352 93.9164 131.596 94.2588C131.791 94.5998 131.936 94.9422 131.936 95.3814C131.936 96.0648 131.691 96.6009 131.205 97.0372C130.769 97.4288 130.137 97.6238 129.359 97.6238C128.879 97.6178 128.404 97.5349 127.95 97.3782C127.563 97.1831 127.172 96.9404 126.882 96.5994ZM138.01 93.5234H138.399C138.738 93.5234 139.03 93.428 139.225 93.1824C139.422 92.9874 139.517 92.6464 139.517 92.2086C139.517 91.817 139.422 91.5223 139.225 91.3287C139.03 91.1336 138.788 91.0383 138.399 91.0383H138.01V93.5234ZM136.503 97.4288V89.9619H138.449C139.322 89.9619 139.955 90.1569 140.392 90.5485C140.83 90.8894 141.072 91.4746 141.072 92.2072C141.072 92.9859 140.83 93.5725 140.344 94.0103C139.858 94.4018 139.226 94.6446 138.351 94.6446H138.157C138.109 94.6446 138.059 94.6446 138.01 94.5969V97.4273L136.503 97.4288ZM146.709 91.1336H145.494V89.9619H149.428V91.1336H148.214V96.2584H149.428V97.4302H145.494V96.2584H146.709V91.1336ZM154.338 97.4288V89.9619H156.281C157.154 89.9619 157.835 90.1569 158.274 90.4979C158.713 90.8895 158.954 91.4746 158.954 92.2563C158.954 92.7446 158.86 93.1333 158.615 93.428C158.421 93.769 158.129 94.0117 157.693 94.2097L159.441 97.4302H157.789L156.235 94.5521H155.846V97.4302L154.338 97.4288ZM155.845 93.5234H156.233C156.622 93.5234 156.865 93.3789 157.059 93.1824C157.254 92.9397 157.351 92.6464 157.351 92.2086C157.351 91.817 157.254 91.5223 157.059 91.3287C156.913 91.1336 156.62 91.0383 156.233 91.0383H155.845V93.5234ZM164.687 94.3527H166.05L165.513 92.0612C165.513 92.0107 165.466 91.9138 165.466 91.7679C165.418 91.6205 165.418 91.4269 165.371 91.2319C165.371 91.4746 165.321 91.7202 165.224 92.0106V92.1089L164.687 94.3527ZM163.912 97.4288H162.552L164.592 89.8665H166.341L168.334 97.4288H166.78L166.341 95.5245H164.398L163.912 97.4288ZM177.031 95.8178C176.936 96.4044 176.742 96.8421 176.35 97.1354C175.962 97.4764 175.477 97.6238 174.891 97.6238C174.018 97.6238 173.337 97.2828 172.851 96.6471C172.415 95.9637 172.17 94.9884 172.17 93.6693C172.17 92.4022 172.415 91.4255 172.851 90.7435C173.337 90.0601 174.018 89.7668 174.891 89.7668C175.523 89.7668 176.058 89.9142 176.448 90.3029C176.837 90.6438 177.03 91.1322 177.03 91.7679L175.717 91.8661C175.67 91.5728 175.571 91.3273 175.428 91.1828C175.281 91.0354 175.088 90.9848 174.844 90.9848C174.455 90.9848 174.163 91.1828 174.018 91.5714C173.871 92.0092 173.776 92.6941 173.776 93.6679C173.776 94.6951 173.871 95.3785 174.018 95.8149C174.212 96.2064 174.504 96.4015 174.891 96.4015C174.989 96.4062 175.087 96.3914 175.179 96.3579C175.271 96.3244 175.356 96.2729 175.428 96.2064C175.606 96.0162 175.724 95.7775 175.768 95.5201L177.031 95.8178ZM182.764 91.1336H181.55V89.9619H185.487V91.1336H184.272V96.2584H185.487V97.4302H181.55V96.2584H182.764V91.1336ZM191.513 93.6707C191.513 94.6475 191.561 95.3294 191.755 95.7701C191.902 96.2108 192.143 96.4044 192.533 96.4044C192.873 96.4044 193.165 96.2093 193.312 95.7701C193.456 95.3294 193.554 94.6475 193.554 93.6707C193.554 92.7446 193.456 92.0121 193.312 91.622C193.165 91.1842 192.873 90.9877 192.533 90.9877C192.143 90.9877 191.902 91.1856 191.755 91.622C191.561 92.0106 191.513 92.7446 191.513 93.6707ZM195.158 93.6707C195.158 94.9884 194.913 95.9651 194.475 96.5994C194.039 97.2828 193.359 97.6238 192.532 97.6238C191.704 97.6238 191.025 97.2828 190.586 96.5994C190.15 95.916 189.906 94.9884 189.906 93.6707C189.906 92.4036 190.15 91.4746 190.586 90.7927C191.025 90.1093 191.704 89.7683 192.532 89.7683C193.359 89.7683 194.039 90.1092 194.475 90.745C194.915 91.4269 195.158 92.4036 195.158 93.6707ZM191.221 89.2785L190.929 88.6442L192.581 88.1082L193.748 87.6198L194.087 88.5965L191.221 89.2785ZM199.192 97.4288V89.9619H200.6L202.009 93.3789C202.107 93.6693 202.254 94.0117 202.349 94.305C202.496 94.646 202.641 95.039 202.788 95.38C202.69 94.9884 202.69 94.5983 202.641 94.2082C202.593 93.7676 202.593 93.3283 202.593 92.8905L202.546 89.9619H203.906V97.5732H202.641L201.087 94.0623C200.94 93.8167 200.845 93.5234 200.698 93.1824C200.551 92.8414 200.454 92.499 200.308 92.158C200.359 92.8414 200.406 93.574 200.455 94.4524V94.698L200.505 97.4302L199.192 97.4288Z" fill="black"/>
</g>
</g>
<defs>
<clipPath id="clip0_130_4063">
<rect width="204" height="132" fill="white" transform="translate(0 0.5)"/>
</clipPath>
</defs>
</svg>
