<svg width="394" height="217" viewBox="0 0 394 217" fill="none" xmlns="http://www.w3.org/2000/svg">
<g clip-path="url(#clip0_130_1023)">
<path fill-rule="evenodd" clip-rule="evenodd" d="M387.706 203.86C384.995 203.86 382.765 206.244 382.765 209.157C382.765 212.071 385 214.444 387.706 214.444C390.411 214.444 392.608 212.088 392.608 209.157C392.608 206.227 390.417 203.86 387.706 203.86ZM394 209.157C393.975 210.395 393.584 211.597 392.877 212.614C392.17 213.63 391.179 214.416 390.027 214.872C388.875 215.328 387.613 215.434 386.401 215.177C385.189 214.921 384.079 214.312 383.212 213.428C382.344 212.544 381.758 211.424 381.525 210.209C381.292 208.993 381.424 207.736 381.904 206.595C382.384 205.454 383.191 204.48 384.223 203.795C385.255 203.11 386.467 202.744 387.706 202.744C388.541 202.751 389.367 202.923 390.136 203.249C390.904 203.576 391.601 204.05 392.186 204.646C392.77 205.242 393.232 205.947 393.543 206.721C393.854 207.495 394.01 208.323 394 209.157Z" fill="#E50043"/>
<path fill-rule="evenodd" clip-rule="evenodd" d="M388.321 208.867L386.409 208.906V206.818H387.807L388.366 206.846L388.869 206.969L389.064 207.098L389.232 207.248L389.333 207.499L389.372 207.974L389.288 208.27L389.176 208.487L388.885 208.716L388.774 208.772L388.645 208.811L388.321 208.867ZM388.656 209.788L389.047 209.732C391.239 209.325 391.082 205.507 387.929 205.825H385.235V212.92H386.392V209.883H387.51L389.355 212.925H390.68L388.656 209.788Z" fill="#E50043"/>
<path fill-rule="evenodd" clip-rule="evenodd" d="M80.2466 124.339L115.971 214.6H128.358L164.25 124.339H148.526L122.992 190.43L99.1064 124.339H80.2466Z" fill="#E50043"/>
<path fill-rule="evenodd" clip-rule="evenodd" d="M62.3202 160.36H18.0381C19.8268 145.88 28.0326 137.607 41.1574 137.607C53.276 137.596 61.3979 146.751 62.3202 160.36ZM17.4624 173.198L80.1627 173.142L80.1907 172.958C80.1907 140.968 63.0357 124.227 41.1965 124.227C16.8251 124.25 -0.0391825 143.357 -5.41246e-05 169.581C-5.41246e-05 196.302 12.957 217 42.4151 217C57.3789 217 67.4852 212.412 78.1113 205.479V188.867C68.3404 196.486 55.9982 203.469 45.3888 203.469C28.5077 203.469 17.4624 192.523 17.4624 173.22V173.198Z" fill="#E50043"/>
<path fill-rule="evenodd" clip-rule="evenodd" d="M189.895 214.695L189.912 124.406H174.149L174.076 214.695H189.895Z" fill="#E50043"/>
<path fill-rule="evenodd" clip-rule="evenodd" d="M189.895 115.798L189.912 100.107H174.149L174.076 115.798H189.895Z" fill="#E50043"/>
<path fill-rule="evenodd" clip-rule="evenodd" d="M372.071 214.695V160.499C372.071 149.335 369.053 139.706 363.29 132.868C357.527 126.03 348.991 122.022 338.354 122.022C333.948 121.967 329.579 122.821 325.519 124.529C321.459 126.238 317.796 128.765 314.759 131.953V124.25H299.052V214.723H315.263V159.645C315.302 147.019 324.139 137.674 336.381 137.635C349.237 137.719 355.945 146.812 356.023 159.963V214.667H355.995L372.071 214.695Z" fill="#E50043"/>
<path fill-rule="evenodd" clip-rule="evenodd" d="M220.947 193.025C220.359 191.883 219.98 190.645 219.829 189.369V189.274L219.789 189.107L219.706 187.711C219.829 180.862 223.099 174.767 241.427 173.444C250.097 172.813 258.879 171.898 264.977 168.174L265.816 167.616L266.073 167.46V178.992C266.034 180.779 265.803 182.557 265.385 184.295C265.19 185.021 264.938 185.73 264.686 186.411L264.619 186.651C263.555 189.304 261.897 191.679 259.773 193.595L259.354 194.013L258.951 194.32C253.77 198.535 246.33 200.461 238.51 200.461C230.298 200.455 223.557 198.088 220.947 193.025ZM284.033 212.562C282.859 209.464 281.73 203.33 281.646 199.048V149.86C281.646 141.403 278.644 134.23 272.702 129.29C266.76 124.35 257.962 121.548 246.458 121.548H246.374L246.335 121.52C227.934 121.548 214.742 129.815 210.343 143.245L210.186 143.803L209.935 144.501H227.615L227.911 144.11C231.93 138.45 239.734 136.792 246.212 136.792H246.268C260.466 136.887 266.078 141.905 266.095 148.213V148.252C266.05 151.339 264.653 153.667 260.595 155.565C256.537 157.462 249.773 158.713 239.482 159.204C217.481 160.32 203.965 168.922 203.965 187.583V187.695V187.778C204.021 207.444 220.371 215.923 238.034 215.923H238.124C250.298 215.923 259.818 212.133 266.184 205.451L266.453 205.172L266.492 205.535C266.758 208.211 267.431 210.831 268.487 213.305L268.599 213.528L268.739 213.846H284.586L284.033 212.562Z" fill="#E50043"/>
<path fill-rule="evenodd" clip-rule="evenodd" d="M225.245 70.5843L216.575 60.5032L216.156 50.0091L201.293 28.217L197.984 17.7228L185.586 5.61549V0L172.852 7.18403L164.523 20.9548L156.251 20.5417L147.586 31.449L134.797 45.3202L129.973 52.0856L152.114 49.596L176.737 57.8853L185.183 73.8051L204.323 86.2697L229.605 86.0855L247.146 90.7856L225.648 77.0538L225.245 70.5843Z" fill="#54565A"/>
<path fill-rule="evenodd" clip-rule="evenodd" d="M131.225 76.9422L121.013 57.3717L123.875 51.332L120.828 42.4287L123.254 34.6251L122.572 18.3592L102.181 32.984L93.444 47.073L83.6451 49.6909L69.0335 61.374L52.6835 82.139L39.4469 92.2648L59.6092 93.1635L82.1862 82.7475L96.3786 91.1261L121.6 90.6404L129.805 94.7264L136.804 91.4945L132.444 89.3287L131.225 76.9422Z" fill="#54565A"/>
<path fill-rule="evenodd" clip-rule="evenodd" d="M302.507 81.2683L297.476 57.1317L285.301 39.074L280.271 25.9563L268.124 32.9617L257.749 43.4726L240.147 45.9901L227.023 52.6159L232.182 59.8334L253.457 71.857L267.716 85.3431L280.282 86.5935L300.405 97.6458H328.058C328.058 97.6458 314.173 86.2809 313.39 85.7562C312.607 85.2315 302.507 81.2683 302.507 81.2683Z" fill="#54565A"/>
</g>
<defs>
<clipPath id="clip0_130_1023">
<rect width="394" height="217" fill="white"/>
</clipPath>
</defs>
</svg>
