<svg width="204" height="91" viewBox="0 0 204 91" fill="none" xmlns="http://www.w3.org/2000/svg">
<g id="Martini_Logo 1" clip-path="url(#clip0_130_4109)">
<path id="Vector" d="M102.015 90.5004C126.824 90.5004 146.936 70.3531 146.936 45.5002C146.936 20.6473 126.824 0.5 102.015 0.5C77.2056 0.5 57.0938 20.6473 57.0938 45.5002C57.0938 70.3531 77.2056 90.5004 102.015 90.5004Z" fill="#FFDE00"/>
<path id="Vector_2" d="M102.015 87.395C125.113 87.395 143.836 68.6381 143.836 45.5002C143.836 22.3624 125.113 3.60547 102.015 3.60547C78.9183 3.60547 60.1943 22.3624 60.1943 45.5002C60.1943 68.6381 78.9183 87.395 102.015 87.395Z" fill="#DF2A37"/>
<path id="Vector_3" d="M139.074 67.6961H203.626V23.2704H139.81" stroke="#FFDE00" stroke-width="2"/>
<path id="Vector_4" d="M65.1405 23.3019H0.374023V67.7276H65.1405" stroke="#FFDE00" stroke-width="2"/>
<path id="Vector_5" d="M202.439 24.3805H1.44141V66.5958H202.439V24.3805Z" fill="black"/>
<path id="Vector_6" d="M12.5273 31.9203H18.4816L25.6207 43.2896H25.6954L33.11 31.9203H39.8916V58.7654H33.1885V46.7965L33.1137 46.5201L25.9766 56.8307H25.8902L19.3056 46.5201H19.2308V58.7654H12.5273V31.9203Z" fill="white"/>
<path id="Vector_7" d="M56.2522 31.9203H64.3214L75.1832 58.7654H68.2812L67.1555 56.036H54.4977L53.2969 58.7654H46.3818L56.2522 31.9203ZM64.066 49.1784L60.5608 39.5247L60.4857 39.2483L56.792 49.1784H64.066Z" fill="white"/>
<path id="Vector_8" d="M80.8838 31.9203H94.4029C102.957 32.1589 104.251 37.5548 104.251 42.6305C104.251 45.4131 101.746 49.2649 99.4077 51.0187C99.7284 50.7775 103.973 58.7654 103.973 58.7654H96.2677L91.8772 52.1673H87.7615V58.7654H80.8838V31.9203ZM87.7615 46.1381H92.9049C94.4437 46.1381 97.8752 45.3157 97.6491 42.3638C97.4135 39.2902 95.6075 38.3124 92.4541 38.3124H87.7611V46.1381H87.7615Z" fill="white"/>
<path id="Vector_9" d="M115.452 38.8014H108.839V31.9202H130.178V38.801H122.671V58.7653H115.452V38.8014Z" fill="white"/>
<path id="Vector_10" d="M152.092 31.9202H159.157L168.619 44.2273H168.419V31.9202H175.398V58.7653H168.745L159.146 45.2077H159.071V58.7653H152.092V31.9202Z" fill="white"/>
<path id="Vector_11" d="M184.675 31.9203H191.552V58.7654H184.675V31.9203Z" fill="white"/>
<path id="Vector_12" d="M136.397 31.9203H143.275V58.7654H136.397V31.9203Z" fill="white"/>
</g>
<defs>
<clipPath id="clip0_130_4109">
<rect width="204" height="90" fill="white" transform="translate(0 0.5)"/>
</clipPath>
</defs>
</svg>
