<svg width="156" height="100" viewBox="0 0 156 100" fill="none" xmlns="http://www.w3.org/2000/svg">
<g id="bacardi-logo-1 1" clip-path="url(#clip0_130_18)">
<g id="Group">
<path id="Vector" fill-rule="evenodd" clip-rule="evenodd" d="M99.4738 13.3136C96.7274 10.6377 93.5145 8.48221 89.9922 6.95252C86.3113 5.36159 82.4226 4.60059 78.3225 4.60059C74.2243 4.60059 70.3689 5.36159 66.687 6.95163C63.1498 8.47302 59.9238 10.6293 57.1703 13.3127C54.3923 16.0791 52.2735 19.2601 50.7104 22.7867C49.2161 26.4668 48.4496 30.3996 48.4531 34.3691C48.4531 38.4498 49.2167 42.322 50.7104 45.9524C52.2726 49.5488 54.3914 52.7638 57.1703 55.4264C59.903 58.1528 63.133 60.3354 66.687 61.8573C70.3689 63.4482 74.2234 64.2092 78.3225 64.2092C82.4217 64.2092 86.3104 63.4482 89.9922 61.8573C93.5311 60.3267 96.7479 58.1449 99.4738 55.4264C102.253 52.7638 104.405 49.5488 105.864 45.9524C107.461 42.322 108.225 38.4498 108.225 34.3691C108.225 30.3591 107.461 26.486 105.864 22.7867C104.406 19.261 102.253 16.08 99.4738 13.3136Z" fill="#D7C781"/>
<path id="Vector_2" fill-rule="evenodd" clip-rule="evenodd" d="M102.114 24.4128C100.813 21.3477 98.9256 18.5643 96.5559 16.2181C94.2217 13.8818 91.4486 12.0255 88.3945 10.7551C85.1992 9.37183 81.8645 8.68066 78.322 8.68066C74.7796 8.68066 71.4808 9.37273 68.2846 10.756C65.1594 12.0702 62.4507 13.8671 60.0881 16.219C57.6572 18.639 55.8514 21.3365 54.5312 24.4137C53.246 27.5937 52.5518 30.9135 52.5518 34.3702C52.5518 37.8977 53.246 41.2165 54.5312 44.3975C55.8316 47.4623 57.719 50.2456 60.0881 52.5921C62.4498 54.9432 65.1594 56.7409 68.2846 58.0543C71.4799 59.4376 74.7796 60.1296 78.322 60.1296C81.8645 60.1296 85.1992 59.4376 88.3945 58.0543C91.4488 56.7848 94.2221 54.9287 96.5559 52.5921C98.9252 50.2456 100.813 47.4623 102.114 44.3975C103.433 41.2165 104.127 37.8977 104.127 34.3702C104.127 30.9126 103.433 27.5937 102.114 24.4128Z" fill="#ED1B2D"/>
<path id="Vector_3" fill-rule="evenodd" clip-rule="evenodd" d="M94.959 18.8458L93.7773 17.3247L93.4994 16.6336L93.3609 16.219L92.11 16.0113C91.3797 16.219 90.3383 17.1869 89.0891 18.9846C87.3525 21.4744 85.8938 23.2722 84.5736 24.4137C83.6707 25.1738 82.6283 25.6581 81.5869 25.796C81.3081 25.796 81.1013 25.7262 80.8926 25.5883C80.5455 25.3815 80.3378 24.7593 80.3378 23.7905L82.212 21.6821L82.6985 19.9533C82.6985 19.6077 82.3514 19.469 81.7272 19.5379L80.1984 19.8145L79.1569 20.1601L78.8098 19.7456L77.9761 18.9846C77.3511 18.5003 76.8655 18.5701 76.6568 19.2613L76.5183 20.6445C74.5038 21.6123 73.5307 22.3733 73.5307 22.9266C73.5307 23.3411 73.7394 23.6876 74.0865 23.8595L76.1703 24.5506L76.0309 25.6572L75.1981 25.7262C74.0173 25.5874 72.9741 25.1729 72.1764 24.4128C70.9955 23.4083 69.4676 21.6114 67.6608 18.9837C66.7579 17.6703 65.7156 16.6327 64.6049 16.0104L64.1184 15.8027L63.4933 15.8726L63.1462 16.2871V16.8413L62.7298 17.4635L61.6875 18.8458L59.3951 21.888L57.4499 25.5874C56.5469 27.5239 55.9911 29.806 55.7825 32.3648C55.5739 34.8537 55.7124 37.2047 56.1989 39.4868C57.0326 43.0832 58.5605 46.1944 60.7837 48.857L61.826 50.0325L62.1731 50.379L62.5904 50.3432C62.7289 50.1014 62.5904 49.8937 62.2433 49.5481L61.5481 48.6493C60.7122 47.4635 60.0132 46.1877 59.4644 44.8461C58.1441 41.4923 58.0047 39.6247 58.9086 39.2791C59.5345 39.0025 60.2971 39.6247 61.201 41.0769L61.826 42.1835C62.0337 42.8057 62.3125 43.0134 62.5203 42.8746C62.728 42.8057 62.728 42.598 62.6588 42.3903L62.2424 41.768L61.6866 40.3857L60.9222 37.758C60.5058 35.5449 60.7144 34.2315 61.4779 33.7471C62.2424 33.2628 63.2146 33.6782 64.3261 35.0605L65.229 36.4437L65.9233 38.2415C65.9926 38.7258 66.132 38.9326 66.3406 38.9326C66.6878 38.8637 66.6878 38.5862 66.48 38.1027L66.3406 36.7204L66.48 35.4061C66.6878 34.9217 66.9665 34.577 67.3128 34.4374C68.0772 34.2306 68.7715 34.5761 69.3965 35.475C70.161 36.5127 70.5081 37.8959 70.4389 39.6238L69.9523 40.315C68.9792 40.7295 68.4936 41.2139 68.5629 41.7671C68.633 42.4583 68.8408 43.0125 69.2571 43.3572C71.2716 42.3894 72.7645 42.2515 73.8077 42.8728C74.6405 43.3572 75.4742 44.9132 76.3079 47.4711C77.1415 50.0298 77.6973 52.6575 77.906 55.4231L77.9752 56.3228L78.0445 57.2217C77.9752 57.5682 78.1146 57.7061 78.3224 57.7061C78.6003 57.7061 78.7397 57.5682 78.6695 57.2217L78.8089 55.4231C79.0167 52.5886 79.5724 49.9949 80.3378 47.5749C81.1022 45.0511 81.935 43.5649 82.7686 42.9418C83.7408 42.2506 85.2679 42.3885 87.2842 43.2874C87.8391 43.0107 88.1169 42.5264 88.1871 41.7663C88.1871 41.144 87.7006 40.6606 86.7284 40.3141C86.4496 40.1753 86.3111 39.8987 86.2419 39.5531C86.2419 37.8243 86.5899 36.5109 87.2842 35.4732C87.9083 34.5045 88.6035 34.1598 89.367 34.3666C89.7151 34.5054 89.9921 34.851 90.1656 35.3354L90.4093 36.7186L90.1656 38.1009C89.993 38.5844 90.0622 38.7921 90.3392 38.8619C90.5128 38.9309 90.6863 38.7232 90.7565 38.2397L91.5209 36.3721L92.3888 35.0587C93.5003 33.6764 94.4042 33.192 95.1677 33.6764C95.9321 34.1607 96.1408 35.5431 95.7927 37.7562L95.0283 40.3839L94.4042 41.6982L94.0561 42.3204C93.986 42.5971 93.986 42.7359 94.1254 42.8048C94.3331 42.9436 94.611 42.7359 94.8196 42.1826L95.5139 41.076C96.416 39.5549 97.1813 38.9326 97.8063 39.2093C98.7092 39.6238 98.4997 41.4914 97.1813 44.7753C96.6956 46.1926 96.0005 47.472 95.1668 48.6475L94.4033 49.5464C94.0552 49.8239 93.9851 50.0307 94.1245 50.2375L94.4716 50.3414L94.8196 49.9958L95.8611 48.7854C98.1535 46.0887 99.6814 43.0116 100.446 39.4841C100.932 37.202 101.14 34.851 100.932 32.3621C100.724 29.8033 100.099 27.5212 99.1949 25.5847L97.2505 21.8854L94.959 18.8458Z" fill="black"/>
<g id="Group_2">
<path id="Vector_4" fill-rule="evenodd" clip-rule="evenodd" d="M94.3343 19.5366L92.9448 17.7389L92.7371 17.2545L92.6678 16.9779C92.5986 16.7711 92.389 16.7711 92.1813 16.9779L91.3135 17.8078C90.272 18.9144 89.299 20.6432 88.5345 22.9253L87.5615 25.7258L86.7287 27.1081C86.4499 27.4546 86.1036 27.6614 85.6171 27.7303L83.6035 27.3158L81.3804 26.5548C80.6861 26.4169 80.4765 26.4169 80.8237 26.6238C82.7698 27.7993 83.2555 30.0814 82.2833 33.4692L81.1717 36.8579L79.8524 39.9699C78.8793 42.4588 78.3937 44.9835 78.3236 47.6802C78.3236 46.3668 78.1158 44.8448 77.7678 43.1509C77.2812 40.9377 76.6562 39.5545 75.9619 38.9323C75.3369 38.4479 74.5725 38.31 73.8089 38.5177C73.0445 38.7245 72.4545 39.2089 72.1065 40.0388C72.3151 38.31 72.558 37.2733 73.0445 36.9966H74.1552L76.0303 37.8266L75.1975 35.6823L74.3629 33.2624C74.0158 31.4646 74.0158 29.9435 74.5023 28.6982C74.7889 28.0557 75.2758 27.5223 75.8909 27.177L77.0024 26.7625L77.3496 26.4859L77.2102 25.5172L77.0024 25.1716L76.9332 26.1403L76.5852 26.3471L76.0294 26.4169C74.9879 26.4859 74.0149 26.8315 73.1119 27.3158C72.4527 27.7303 71.7576 27.8691 71.1325 27.8002C70.646 27.7312 70.2305 27.4546 69.9517 27.109L69.1882 25.7956L68.3554 23.133C67.591 20.8509 66.5496 19.0532 65.3687 17.8087L64.5351 16.9788H63.9793V17.2554L63.7014 17.7398L62.4513 19.3298L60.4368 22.372C58.9781 25.1725 58.2838 27.9389 58.2146 30.6356C58.1444 33.7476 58.5617 36.0986 59.5348 37.8275L59.6031 37.7585C58.9781 35.6841 58.7695 33.402 58.9781 30.8433C59.1166 29.0455 59.5339 27.1788 60.2974 25.1734L62.3812 20.9207C62.034 22.5806 62.034 24.5512 62.2427 26.9711C62.5898 29.9453 63.2841 32.3653 64.4658 34.232H64.5351C63.7706 32.0188 63.2841 29.46 63.1456 26.6247C63.0763 24.2047 63.2157 22.1652 63.6321 20.4355L64.1879 18.7756L64.7437 18.2913L65.438 18.9824L66.1323 20.3657C66.7573 21.8178 67.1053 23.407 67.3131 24.9639L68.1468 29.0446C68.4939 30.2891 69.0497 31.0501 69.6747 31.3267C70.2997 31.6034 70.9257 31.4646 71.6892 30.9812C72.3844 30.4968 72.8359 29.8746 73.1128 29.1145C72.9051 30.1512 72.7657 30.9812 72.835 31.7422C72.9042 32.5032 73.1821 33.402 73.5994 34.3698L74.8495 36.6528L73.5994 36.0297L72.9734 35.8918C72.4527 35.8229 72.0364 36.1685 71.8277 36.9295C71.4806 37.8284 71.3412 39.0039 71.3412 40.456C71.2719 40.7327 71.1334 40.9404 70.9248 41.0093C69.8132 41.2162 69.3276 41.6316 69.5353 42.2538L72.1056 41.6316C72.0364 41.0783 72.3142 40.525 72.7648 39.9717C73.3206 39.3495 73.9456 39.2107 74.7101 39.4873C75.6822 39.9019 76.5159 41.2161 77.1409 43.4983C77.6967 45.3309 78.0439 47.4743 78.1833 49.8951L78.3227 53.5605L78.5304 49.8951C78.6005 47.4743 78.9477 45.3309 79.5035 43.4983C80.1285 41.2161 80.9622 39.9019 81.9353 39.4873C82.6988 39.2107 83.3238 39.3495 83.9489 39.9717C84.4345 40.525 84.6431 41.0774 84.5739 41.6316L87.1433 42.1849C87.4212 41.7005 87.0048 41.286 85.823 41.0093C85.5452 40.9395 85.4067 40.7327 85.4067 40.456L84.9201 36.9295C84.6422 36.1685 84.2258 35.8229 83.7393 35.8918L82.9749 36.1685L82.072 36.583L82.9056 34.9231C83.5298 33.6097 83.8778 32.2265 83.8778 30.9131L83.5999 29.0464C84.0163 30.0151 84.4327 30.6365 84.7807 30.9829C85.1279 31.3285 85.475 31.4673 85.8923 31.5362C86.3087 31.6061 86.726 31.4673 87.0731 31.1217C87.6289 30.6374 88.1145 29.8083 88.5318 28.6319L89.3655 24.9666C89.7135 23.1348 90.0598 21.5439 90.5112 20.3683L91.3108 18.9851L91.9007 18.2939L92.4565 18.7783L93.0815 20.4382C93.4287 22.167 93.5672 24.2065 93.4979 26.6273C93.4287 29.4627 92.9421 32.0215 92.1085 34.2346H92.1777C93.3585 32.368 94.0537 29.9471 94.4017 26.9738C94.6086 24.5538 94.6086 22.5824 94.2623 20.9234L96.3461 25.1761C97.0459 27.0006 97.5124 28.9055 97.7347 30.846C97.9433 33.4047 97.6654 35.6868 97.0413 37.7612L97.1096 37.8302C98.0827 36.1703 98.5692 33.7503 98.4991 30.6383C98.4307 28.0795 97.6654 25.3829 96.2768 22.5815L94.3343 19.5366Z" fill="#D7C781"/>
<path id="Vector_5" fill-rule="evenodd" clip-rule="evenodd" d="M77.7677 21.6806L77.3513 22.3029C77.2812 22.4407 77.4206 22.5097 77.6292 22.5795L78.4629 22.6485C78.8101 22.6485 78.9485 22.5795 79.0178 22.4416L78.8101 21.8884L77.7677 21.6806ZM79.99 21.4729L80.1294 22.165L80.5467 21.6806L80.6852 21.1963L80.2679 21.2652L79.99 21.4729Z" fill="#D7C781"/>
</g>
<path id="Vector_6" fill-rule="evenodd" clip-rule="evenodd" d="M68.0771 81.046C68.0078 77.1049 68.0079 74.6491 68.1472 73.4396L67.9386 73.3716L67.0357 73.9589L65.5077 73.7861C63.0788 72.8423 60.4654 72.4638 57.867 72.6795C56.2698 72.7493 54.741 73.0958 53.3173 73.7861C51.8586 74.4083 50.5393 75.3421 49.3234 76.4827C46.8584 79.0424 45.6775 82.3612 45.7459 86.4061C45.816 90.3472 47.0652 93.4602 49.6364 95.6724C52.0673 97.8167 55.089 98.7854 58.7708 98.6466C61.3402 98.5768 63.5634 97.8856 65.4394 96.6411C66.8981 95.7423 67.9404 94.5676 68.6347 93.2524L69.1905 92.1477L68.8424 91.94C67.6616 93.6679 66.2029 95.0511 64.4663 95.9849C62.8682 96.7808 61.0623 97.1264 59.1171 96.9885C56.8247 96.9187 54.8804 95.8819 53.3524 94.0143C51.7543 92.0089 50.8855 89.3821 50.8163 86.2351C50.7129 82.7784 51.3721 79.9439 52.7957 77.6618C54.3246 75.2418 56.4776 73.9965 59.1863 73.9616C61.3393 73.8586 63.1452 74.4808 64.7433 75.7942C66.3414 77.1774 67.3136 78.9054 67.6607 81.0487H68.0771V81.046ZM18.9666 78.5571C18.6887 76.8963 17.8559 75.5829 16.3972 74.6491C14.9034 73.5094 12.7855 73.0251 10.2503 73.0949L0.317218 73.163V73.6124L0.941352 73.7171L1.77503 73.9938L2.8866 74.6841C3.23374 75.0305 3.37224 75.3761 3.37224 75.8596V95.1872C3.37224 95.8792 2.81645 96.5024 1.77503 97.1246L0.24707 97.5391V97.9536L6.46413 97.8856L12.9582 98.0235C15.4934 97.9536 17.5088 97.3332 19.0358 96.3287C20.6339 95.1182 21.5369 93.5971 21.6061 91.6615C21.6754 89.6561 20.9811 87.9263 19.3839 86.613C17.9252 85.4025 16.2578 84.7803 14.3476 84.7105C15.702 84.5027 16.8136 83.9495 17.7165 83.0506C18.8281 81.876 19.2454 80.4229 18.9666 78.5571ZM12.7504 75.5829C13.7928 76.4818 14.3485 77.7272 14.3485 79.2483C14.3485 80.978 13.9312 82.2905 13.0976 83.0515C12.0552 83.9503 10.3888 84.2279 7.95791 84.0202V74.6841C8.3743 74.4781 8.86084 74.4074 9.41662 74.3394C10.7359 74.3403 11.8475 74.7539 12.7504 75.5829ZM16.6059 91.1772C16.6751 92.2139 16.5357 93.043 16.1886 93.804C15.3549 95.6715 13.6534 96.7083 10.9437 96.7781C8.92918 96.7781 7.95701 96.0171 7.95701 94.428V85.6093L10.1109 85.4034C12.6803 85.6093 14.5563 86.5431 15.702 88.3427C16.2386 89.1965 16.5495 90.1716 16.6059 91.1772ZM156.26 73.5094V73.163H145.736V73.5094L147.264 73.9938C148.236 74.4781 148.723 75.1693 148.723 76.0673V95.1863C148.723 95.9822 148.236 96.5695 147.264 97.1237L145.736 97.6063V97.9527H156.26V97.6063L154.8 97.1237L153.828 96.4316C153.481 96.087 153.273 95.6706 153.273 95.1863V75.9975C153.273 75.2382 153.759 74.5462 154.8 73.9938C155.357 73.7852 155.843 73.6124 156.26 73.5094ZM105.933 73.2659L102.668 73.163L94.333 73.2659V73.5085L95.7917 73.9929L96.7639 74.6832C97.111 75.0296 97.3197 75.3752 97.3197 75.8587V95.2561C97.3197 95.7405 97.111 96.087 96.7639 96.4316L95.7917 97.0539L94.333 97.6063V97.9527H104.474V97.6063L103.154 97.1237L102.252 96.5015C101.973 96.155 101.799 95.8094 101.799 95.3251V85.8179C101.799 85.6102 101.973 85.4715 102.147 85.4715C102.806 85.4715 103.64 86.0937 104.682 87.2361L106.765 90.2783L108.711 93.735L110.794 96.6393C111.594 97.4702 112.426 97.8847 113.259 97.9527C115.066 98.1604 116.941 98.1605 118.817 98.0226V97.6063C117.845 97.4702 117.01 97.1237 116.385 96.6393L114.997 94.9795L113.121 92.0053L111.038 88.6865C109.684 86.5422 108.224 85.3327 106.697 84.9862C108.571 84.9182 110.1 84.3658 111.247 83.3263C112.567 82.2215 113.192 80.8383 112.983 79.1784C112.776 77.4487 111.942 76.0655 110.517 74.9938C109.199 73.9589 107.671 73.3707 105.933 73.2659ZM103.433 74.3403C104.754 74.4083 105.865 74.8228 106.767 75.6886C107.671 76.5525 108.157 77.7272 108.226 79.2492C108.296 80.6324 108.157 81.6691 107.74 82.4301C107.323 83.1222 106.559 83.6057 105.447 83.9512L103.503 84.159L101.905 84.0211V74.6491L103.433 74.3403ZM141.082 76.8283C138.581 74.5462 135.247 73.3716 131.149 73.163L124.514 73.2659L119.167 73.163V73.5094L120.625 73.9938L121.598 74.6491C121.945 74.9956 122.084 75.377 122.084 75.8596V95.257L121.598 96.5024L120.625 97.1246L119.167 97.5391V97.9536L131.01 98.0915C135.455 98.1614 138.998 96.916 141.567 94.2203C142.623 93.034 143.469 91.6777 144.069 90.2094C144.554 88.8261 144.833 87.408 144.833 85.8887C144.833 82.1526 143.582 79.1104 141.082 76.8283ZM131.496 74.6491C133.927 75.0986 135.803 76.3439 137.261 78.2115C138.72 80.1471 139.415 82.4991 139.484 85.3336C139.554 88.203 139.067 90.623 138.026 92.4906C136.914 94.6348 135.178 96.0171 132.747 96.5704L130.871 96.7781L129.03 96.7083C128.266 96.5024 127.711 96.3287 127.502 96.0878C127.016 95.6715 126.738 94.9813 126.669 93.9436V74.6841C127.989 74.3045 129.656 74.3045 131.496 74.6491ZM35.9504 72.8183L32.1642 72.9212L24.4552 94.7718C24.108 95.8085 23.4821 96.5015 22.6484 96.9858L20.7032 97.6063V97.9527H29.0391V97.6063L27.3717 96.9858C26.8852 96.6394 26.6073 96.2248 26.6073 95.6026L27.0938 93.5291L29.2477 87.2361H36.2283L38.3822 93.2516L38.9371 95.3251C39.0072 96.0171 38.7986 96.5704 38.2428 96.916L36.6456 97.5382V97.9527H47.4816V97.5382L45.8142 97.0539C45.0498 96.7074 44.4598 96.0869 44.0776 95.1182L35.9504 72.8183ZM35.7427 85.4715H29.8035L32.7902 76.9662L35.7427 85.4715ZM82.282 72.9221H78.5309L70.7859 94.7727C70.4387 95.8094 69.8829 96.5024 68.98 96.9867L67.1058 97.5391V97.9536H75.3365V97.6072L73.7393 96.9867C73.1835 96.6402 72.9056 96.2257 72.9748 95.6035L73.3921 93.53L75.5451 87.237H82.63L85.3397 95.326C85.409 96.018 85.1311 96.5713 84.6454 96.9169C84.2983 97.1953 83.7425 97.4012 83.0473 97.5391V97.9536H93.7772V97.5391L92.18 97.0548C91.4506 96.7083 90.8598 96.0879 90.4785 95.1191L82.282 72.9221ZM82.1426 85.4715H76.1693L79.1559 76.9662L82.1426 85.4715Z" fill="black"/>
</g>
</g>
<defs>
<clipPath id="clip0_130_18">
<rect width="156" height="100" fill="white"/>
</clipPath>
</defs>
</svg>
