<svg width="156" height="91" viewBox="0 0 156 91" fill="none" xmlns="http://www.w3.org/2000/svg">
<g id="bacardi-logo-1 1">
<g id="Group">
<path id="Vector" fill-rule="evenodd" clip-rule="evenodd" d="M94.0412 12.1156C91.5606 9.68057 88.6586 7.71905 85.4772 6.32703C82.1524 4.87928 78.6401 4.18677 74.9368 4.18677C71.2352 4.18677 67.7529 4.87928 64.4273 6.32622C61.2324 7.71068 58.3187 9.67286 55.8316 12.1148C53.3224 14.6323 51.4087 17.5269 49.9969 20.7361C48.6471 24.0851 47.9548 27.6639 47.958 31.2761C47.958 34.9896 48.6477 38.5132 49.9969 41.8169C51.4078 45.0896 53.3216 48.0153 55.8316 50.4383C58.2999 52.9193 61.2172 54.9055 64.4273 56.2904C67.7529 57.7381 71.2344 58.4306 74.9368 58.4306C78.6393 58.4306 82.1516 57.7381 85.4772 56.2904C88.6736 54.8975 91.5791 52.9121 94.0412 50.4383C96.5512 48.0153 98.495 45.0896 99.8134 41.8169C101.255 38.5132 101.946 34.9896 101.946 31.2761C101.946 27.627 101.255 24.1025 99.8134 20.7361C98.4959 17.5278 96.5512 14.6331 94.0412 12.1156Z" fill="#D7C781"/>
<path id="Vector_2" fill-rule="evenodd" clip-rule="evenodd" d="M96.4258 22.2156C95.2513 19.4264 93.5462 16.8935 91.4058 14.7585C89.2975 12.6324 86.7928 10.9432 84.0342 9.78711C81.1481 8.52838 78.1361 7.89941 74.9365 7.89941C71.7369 7.89941 68.7574 8.52919 65.8705 9.78793C63.0477 10.9839 60.6011 12.6191 58.4672 14.7593C56.2716 16.9615 54.6405 19.4163 53.448 22.2164C52.2872 25.1103 51.6602 28.1313 51.6602 31.2769C51.6602 34.4869 52.2872 37.5071 53.448 40.4017C54.6226 43.1907 56.3274 45.7235 58.4672 47.8589C60.6003 49.9983 63.0477 51.6343 65.8705 52.8294C68.7566 54.0882 71.7369 54.718 74.9365 54.718C78.1361 54.718 81.1481 54.0882 84.0342 52.8294C86.793 51.6742 89.2979 49.9851 91.4058 47.8589C93.5459 45.7235 95.2509 43.1907 96.4258 40.4017C97.6174 37.5071 98.2445 34.4869 98.2445 31.2769C98.2445 28.1305 97.6174 25.1103 96.4258 22.2156Z" fill="#ED1B2D"/>
<path id="Vector_3" fill-rule="evenodd" clip-rule="evenodd" d="M89.9634 17.1498L88.896 15.7656L88.645 15.1367L88.5199 14.7595L87.39 14.5704C86.7304 14.7595 85.7898 15.6402 84.6615 17.2761C83.0929 19.5418 81.7754 21.1778 80.583 22.2166C79.7674 22.9083 78.826 23.349 77.8853 23.4745C77.6335 23.4745 77.4467 23.4109 77.2582 23.2855C76.9447 23.0973 76.757 22.531 76.757 21.6495L78.4499 19.7309L78.8893 18.1576C78.8893 17.8432 78.5758 17.7169 78.012 17.7796L76.6311 18.0314L75.6905 18.3458L75.3769 17.9686L74.6239 17.2761C74.0594 16.8354 73.6208 16.8989 73.4323 17.5279L73.3072 18.7866C71.4877 19.6673 70.6088 20.3598 70.6088 20.8633C70.6088 21.2405 70.7972 21.5558 71.1108 21.7123L72.9929 22.3412L72.8669 23.3482L72.1148 23.4109C71.0482 23.2847 70.106 22.9074 69.3854 22.2158C68.3189 21.3016 66.9388 19.6665 65.3069 17.2753C64.4914 16.0801 63.5499 15.1359 62.5467 14.5696L62.1073 14.3806L61.5427 14.4442L61.2292 14.8214V15.3257L60.8531 15.8919L59.9116 17.1498L57.8411 19.9182L56.0841 23.2847C55.2685 25.0469 54.7665 27.1236 54.5781 29.4521C54.3896 31.717 54.5147 33.8564 54.9542 35.9331C55.7072 39.2059 57.0873 42.037 59.0953 44.46L60.0367 45.5297L60.3503 45.845L60.7272 45.8124C60.8523 45.5924 60.7272 45.4034 60.4136 45.0889L59.7857 44.271C59.0307 43.1919 58.3993 42.031 57.9036 40.81C56.7112 37.7581 56.5853 36.0586 57.4016 35.7441C57.967 35.4924 58.6558 36.0586 59.4722 37.3801L60.0367 38.3871C60.2244 38.9533 60.4762 39.1423 60.6638 39.016C60.8515 38.9533 60.8515 38.7643 60.7889 38.5753L60.4128 38.009L59.9108 36.7511L59.2204 34.3599C58.8443 32.3459 59.0327 31.1508 59.7224 30.71C60.4128 30.2692 61.2909 30.6473 62.2949 31.9052L63.1105 33.1639L63.7375 34.7999C63.8001 35.2406 63.926 35.4288 64.1145 35.4288C64.428 35.3661 64.428 35.1135 64.2404 34.6736L64.1145 33.4157L64.2404 32.2197C64.428 31.7789 64.6798 31.4652 64.9925 31.3381C65.683 31.1499 66.3101 31.4644 66.8746 32.2824C67.5651 33.2267 67.8786 34.4854 67.8161 36.0578L67.3766 36.6868C66.4977 37.064 66.0591 37.5047 66.1216 38.0082C66.185 38.6372 66.3726 39.1415 66.7487 39.4552C68.5683 38.5745 69.9167 38.449 70.8589 39.0144C71.6111 39.4552 72.3641 40.8711 73.1171 43.1988C73.8701 45.5273 74.3721 47.9184 74.5606 50.4351L74.6231 51.2539L74.6857 52.0719C74.6231 52.3872 74.749 52.5126 74.9367 52.5126C75.1877 52.5126 75.3136 52.3872 75.2502 52.0719L75.3761 50.4351C75.5638 47.8557 76.0658 45.4955 76.757 43.2933C77.4475 40.9966 78.1997 39.6442 78.9527 39.0771C79.8308 38.4482 81.21 38.5736 83.0312 39.3916C83.5324 39.1399 83.7834 38.6991 83.8468 38.0074C83.8468 37.4412 83.4073 37.0012 82.5292 36.6859C82.2774 36.5597 82.1523 36.3079 82.0898 35.9934C82.0898 34.4202 82.4041 33.225 83.0312 32.2808C83.5949 31.3992 84.2229 31.0856 84.9125 31.2738C85.2269 31.4001 85.477 31.7145 85.6338 32.1553L85.8539 33.414L85.6338 34.672C85.4779 35.1119 85.5404 35.3009 85.7906 35.3645C85.9474 35.4272 86.1041 35.2382 86.1675 34.7982L86.8579 33.0987L87.6418 31.9036C88.6458 30.6456 89.4622 30.2049 90.1518 30.6456C90.8423 31.0864 91.0307 32.3443 90.7163 34.3583L90.0259 36.7495L89.4622 37.9455L89.1478 38.5117C89.0844 38.7635 89.0844 38.8898 89.2104 38.9525C89.398 39.0788 89.649 38.8898 89.8374 38.3863L90.4645 37.3793C91.2793 35.9951 91.9705 35.4288 92.5351 35.6806C93.3506 36.0578 93.1614 37.7573 91.9705 40.7457C91.5319 42.0354 90.904 43.1996 90.151 44.2693L89.4613 45.0873C89.147 45.3399 89.0836 45.5281 89.2095 45.7163L89.5231 45.8108L89.8374 45.4963L90.7781 44.3948C92.8486 41.9409 94.2287 39.1407 94.9192 35.9307C95.3586 33.854 95.5463 31.7145 95.3586 29.4496C95.1702 27.1212 94.6056 25.0444 93.7893 23.2822L92.0331 19.9158L89.9634 17.1498Z" fill="black"/>
<g id="Group_2">
<path id="Vector_4" fill-rule="evenodd" clip-rule="evenodd" d="M89.3987 17.7787L88.1437 16.1427L87.956 15.702L87.8935 15.4502C87.8309 15.262 87.6417 15.262 87.454 15.4502L86.6702 16.2055C85.7295 17.2125 84.8506 18.7857 84.1602 20.8624L83.2812 23.4108L82.5291 24.6688C82.2773 24.9841 81.9645 25.1723 81.5251 25.235L79.7063 24.8578L77.6983 24.1653C77.0712 24.0398 76.882 24.0398 77.1955 24.228C78.9533 25.2977 79.392 27.3744 78.5139 30.4573L77.5099 33.541L76.3182 36.373C75.4393 38.6379 75.0007 40.9354 74.9373 43.3893C74.9373 42.1941 74.7497 40.8091 74.4353 39.2677C73.9959 37.2537 73.4313 35.995 72.8043 35.4287C72.2397 34.988 71.5492 34.8625 70.8596 35.0515C70.1692 35.2397 69.6363 35.6805 69.3219 36.4357C69.5104 34.8625 69.7297 33.9191 70.1692 33.6673H71.1723L72.866 34.4226L72.1138 32.4713L71.36 30.2691C71.0464 28.6332 71.0464 27.249 71.4859 26.1157C71.7447 25.5311 72.1845 25.0457 72.7401 24.7315L73.7441 24.3543L74.0576 24.1025L73.9317 23.221L73.7441 22.9065L73.6815 23.788L73.3672 23.9762L72.8652 24.0398C71.9245 24.1025 71.0456 24.417 70.2301 24.8578C69.6347 25.235 69.0068 25.3613 68.4422 25.2985C68.0028 25.2358 67.6275 24.9841 67.3757 24.6696L66.686 23.4744L65.9338 21.0514C65.2434 18.9747 64.3028 17.3387 63.2362 16.2063L62.4832 15.451H61.9812V15.7028L61.7302 16.1436L60.6011 17.5905L58.7816 20.3589C57.464 22.9073 56.8369 25.4248 56.7744 27.8787C56.711 30.7107 57.0879 32.8501 57.9668 34.4234L58.0286 34.3606C57.464 32.4729 57.2756 30.3962 57.464 28.0678C57.5891 26.4318 57.966 24.7331 58.6557 22.9082L60.5378 19.0382C60.2242 20.5487 60.2242 22.3419 60.4127 24.5441C60.7262 27.2506 61.3533 29.4528 62.4207 31.1515H62.4832C61.7928 29.1375 61.3533 26.809 61.2282 24.2288C61.1657 22.0266 61.2916 20.1707 61.6677 18.5967L62.1697 17.0862L62.6717 16.6454L63.2988 17.2744L63.9259 18.5331C64.4904 19.8546 64.8048 21.3007 64.9924 22.7175L65.7454 26.431C66.0589 27.5634 66.5609 28.256 67.1255 28.5077C67.69 28.7595 68.2554 28.6332 68.945 28.1932C69.5729 27.7525 69.9807 27.1862 70.2309 26.4945C70.0433 27.438 69.9173 28.1932 69.9799 28.8857C70.0424 29.5782 70.2934 30.3962 70.6704 31.2769L71.7994 33.3545L70.6704 32.7874L70.105 32.662C69.6347 32.5992 69.2586 32.9137 69.0701 33.6062C68.7566 34.4242 68.6307 35.4939 68.6307 36.8154C68.5681 37.0671 68.443 37.2561 68.2546 37.3189C67.2506 37.5071 66.8119 37.8851 66.9996 38.4513L69.3211 37.8851C69.2586 37.3816 69.5096 36.8781 69.9165 36.3746C70.4185 35.8084 70.9831 35.6821 71.6735 35.9339C72.5516 36.3111 73.3046 37.5071 73.8692 39.5838C74.3712 41.2515 74.6847 43.202 74.8106 45.4049L74.9365 48.7404L75.1242 45.4049C75.1875 43.202 75.5011 41.2515 76.0031 39.5838C76.5676 37.5071 77.3206 36.3111 78.1995 35.9339C78.8892 35.6821 79.4537 35.8084 80.0183 36.3746C80.4569 36.8781 80.6453 37.3808 80.5828 37.8851L82.9035 38.3886C83.1545 37.9478 82.7784 37.5706 81.7111 37.3189C81.4601 37.2553 81.335 37.0671 81.335 36.8154L80.8955 33.6062C80.6445 32.9137 80.2684 32.5992 79.829 32.662L79.1385 32.9137L78.323 33.2909L79.076 31.7804C79.6397 30.5852 79.9541 29.3265 79.9541 28.1313L79.7031 26.4326C80.0792 27.3141 80.4553 27.8796 80.7696 28.1949C81.0832 28.5093 81.3967 28.6356 81.7736 28.6984C82.1497 28.7619 82.5266 28.6356 82.8402 28.3211C83.3422 27.8804 83.7808 27.1259 84.1577 26.0554L84.9107 22.72C85.2251 21.053 85.5378 19.6053 85.9456 18.5356L86.6677 17.2768L87.2006 16.6479L87.7026 17.0886L88.2671 18.5991C88.5807 20.1723 88.7058 22.0283 88.6432 24.2313C88.5807 26.8115 88.1412 29.1399 87.3882 31.1539H87.4508C88.5173 29.4552 89.1452 27.2522 89.4596 24.5466C89.6464 22.3444 89.6464 20.5504 89.3337 19.0407L91.2158 22.9106C91.8478 24.5709 92.2692 26.3044 92.4699 28.0702C92.6584 30.3987 92.4074 32.4754 91.8437 34.3631L91.9054 34.4258C92.7843 32.9153 93.2238 30.7131 93.1604 27.8812C93.0987 25.5527 92.4074 23.0988 91.1532 20.5495L89.3987 17.7787Z" fill="#D7C781"/>
<path id="Vector_5" fill-rule="evenodd" clip-rule="evenodd" d="M74.4356 19.7298L74.0595 20.2961C73.9962 20.4215 74.1221 20.4843 74.3105 20.5478L75.0635 20.6105C75.3771 20.6105 75.5022 20.5478 75.5647 20.4223L75.3771 19.9188L74.4356 19.7298ZM76.4428 19.5408L76.5687 20.1706L76.9456 19.7298L77.0707 19.2891L76.6938 19.3518L76.4428 19.5408Z" fill="#D7C781"/>
</g>
<path id="Vector_6" fill-rule="evenodd" clip-rule="evenodd" d="M150.915 86.9994C150.599 86.6815 150.171 86.5005 149.723 86.4951C149.221 86.4951 148.782 86.6841 148.468 86.9994C148.154 87.3449 147.967 87.7539 147.967 88.2582C147.967 88.6989 148.154 89.1381 148.468 89.4534C148.845 89.7686 149.284 89.956 149.723 89.956C150.171 89.9512 150.598 89.7707 150.915 89.4534C151.231 89.1361 151.412 88.707 151.417 88.2582C151.417 87.753 151.229 87.3441 150.915 86.9994ZM149.723 86.746C150.099 86.746 150.413 86.8731 150.726 87.1868C151.04 87.5021 151.166 87.8166 151.166 88.2574C151.166 88.6981 151.04 89.0118 150.726 89.2627C150.412 89.578 150.099 89.7035 149.723 89.7035C149.284 89.7035 148.97 89.578 148.656 89.2627C148.342 88.949 148.217 88.6346 148.217 88.2574C148.217 87.8166 148.342 87.5013 148.656 87.1868C148.971 86.8731 149.284 86.746 149.723 86.746Z" fill="black"/>
<path id="Vector_7" fill-rule="evenodd" clip-rule="evenodd" d="M150.476 87.8168L150.162 87.376L149.66 87.2506H148.97V89.2018H149.346V88.4474H149.598L149.974 88.5093L150.162 88.9501V89.201H150.476V88.7602L150.351 88.4466L150.037 88.3195L150.288 88.194L150.476 87.8168ZM149.598 87.5023L150.037 87.5659L150.162 87.8795L149.974 88.1329L149.66 88.1948H149.346V87.5023H149.598ZM65.6828 73.7523C65.6203 70.1659 65.6203 67.9312 65.7462 66.8305L65.5577 66.7686L64.7422 67.303L63.3621 67.1458C61.1683 66.287 58.8077 65.9425 56.4608 66.1388C55.0182 66.2023 53.6373 66.5176 52.3514 67.1458C51.0339 67.712 49.8422 68.5618 48.744 69.5997C46.5175 71.929 45.451 74.9491 45.5127 78.63C45.576 82.2164 46.7043 85.0492 49.0267 87.0624C51.2223 89.0136 53.9516 89.8951 57.2772 89.7689C59.5979 89.7053 61.6059 89.0763 63.3004 87.9439C64.6179 87.1259 65.5593 86.057 66.1864 84.8602L66.6884 83.8548L66.3741 83.6658C65.3075 85.2382 63.99 86.497 62.4214 87.3467C60.978 88.071 59.3469 88.3855 57.5899 88.26C55.5194 88.1965 53.7632 87.253 52.3831 85.5535C50.9396 83.7285 50.155 81.3382 50.0924 78.4744C49.999 75.3288 50.5944 72.7494 51.8803 70.6727C53.2612 68.4705 55.2058 67.3372 57.6525 67.3055C59.5971 67.2118 61.2282 67.778 62.6716 68.9732C64.1151 70.2319 64.9932 71.8043 65.3067 73.7548H65.6828V73.7523ZM21.3249 71.4874C21.0739 69.9761 20.3218 68.7809 19.0042 67.9312C17.655 66.894 15.742 66.4533 13.4522 66.5168L4.48035 66.5787V66.9877L5.04408 67.0831L5.79708 67.3348L6.80108 67.9629C7.11463 68.2782 7.23972 68.5927 7.23972 69.0327V86.6208C7.23972 87.2506 6.73772 87.8176 5.79708 88.3838L4.41699 88.761V89.1383L10.0324 89.0763L15.898 89.2018C18.1879 89.1383 20.0082 88.5737 21.3875 87.6596C22.8309 86.5581 23.6465 85.1738 23.709 83.4124C23.7716 81.5875 23.1445 80.0134 21.7018 78.8182C20.3843 77.7167 18.8783 77.1505 17.153 77.087C18.3763 76.8979 19.3803 76.3945 20.1958 75.5765C21.1998 74.5076 21.5768 73.1853 21.3249 71.4874ZM15.7103 68.7809C16.6518 69.5989 17.1538 70.7322 17.1538 72.1164C17.1538 73.6904 16.7769 74.8848 16.0239 75.5773C15.0824 76.3953 13.5773 76.6478 11.3816 76.4588V67.9629C11.7577 67.7756 12.1972 67.7112 12.6992 67.6493C13.8908 67.6501 14.8948 68.0265 15.7103 68.7809ZM19.1927 82.9717C19.2552 83.9151 19.1293 84.6695 18.8158 85.3621C18.0628 87.0616 16.5259 88.005 14.0784 88.0685C12.2589 88.0685 11.3808 87.376 11.3808 85.9299V77.9049L13.3263 77.7176C15.647 77.9049 17.3414 78.7547 18.3763 80.3923C18.8609 81.1693 19.1418 82.0566 19.1927 82.9717ZM145.332 66.894V66.5787H135.826V66.894L137.206 67.3348C138.084 67.7756 138.524 68.4045 138.524 69.2217V86.62C138.524 87.3443 138.084 87.8787 137.206 88.383L135.826 88.8222V89.1374H145.332V88.8222L144.013 88.383L143.135 87.7532C142.822 87.4396 142.634 87.0607 142.634 86.62V69.1581C142.634 68.4673 143.073 67.8375 144.013 67.3348C144.516 67.145 144.955 66.9877 145.332 66.894ZM99.8756 66.6724L96.9262 66.5787L89.3978 66.6724V66.8932L90.7154 67.334L91.5934 67.9621C91.907 68.2774 92.0955 68.5919 92.0955 69.0319V86.6835C92.0955 87.1243 91.907 87.4396 91.5934 87.7532L90.7154 88.3195L89.3978 88.8222V89.1374H98.5573V88.8222L97.3656 88.383L96.5501 87.8168C96.2983 87.5015 96.1415 87.187 96.1415 86.7463V78.0948C96.1415 77.9058 96.2983 77.7795 96.4558 77.7795C97.0513 77.7795 97.8043 78.3457 98.7457 79.3853L100.627 82.1537L102.384 85.2993L104.266 87.9423C104.988 88.6983 105.74 89.0755 106.493 89.1374C108.124 89.3265 109.818 89.3265 111.513 89.201V88.8222C110.634 88.6983 109.881 88.383 109.316 87.9423L108.062 86.4318L106.367 83.7253L104.486 80.7051C103.263 78.7539 101.945 77.6532 100.565 77.3379C102.258 77.276 103.639 76.7733 104.675 75.8274C105.867 74.8221 106.432 73.5633 106.243 72.0528C106.056 70.4788 105.303 69.2201 104.016 68.2448C102.825 67.303 101.445 66.7678 99.8756 66.6724ZM97.6174 67.6501C98.8099 67.712 99.8139 68.0892 100.629 68.8771C101.445 69.6633 101.884 70.7322 101.946 72.1172C102.01 73.3759 101.884 74.3194 101.508 75.0119C101.131 75.6417 100.441 76.0816 99.4362 76.3961L97.68 76.5851L96.2373 76.4596V67.9312L97.6174 67.6501ZM131.623 69.9142C129.364 67.8375 126.352 66.7686 122.651 66.5787L116.658 66.6724L111.829 66.5787V66.894L113.145 67.3348L114.024 67.9312C114.338 68.2465 114.463 68.5935 114.463 69.0327V86.6843L114.024 87.8176L113.145 88.3838L111.829 88.761V89.1383L122.526 89.2637C126.54 89.3273 129.741 88.194 132.061 85.7409C133.015 84.6614 133.779 83.4272 134.32 82.091C134.759 80.8322 135.011 79.5417 135.011 78.1591C135.011 74.7593 133.881 71.9909 131.623 69.9142ZM122.964 67.9312C125.16 68.3402 126.854 69.4734 128.171 71.1729C129.49 72.9344 130.117 75.0746 130.179 77.654C130.243 80.2652 129.803 82.4674 128.862 84.1669C127.858 86.1181 126.29 87.376 124.094 87.8795L122.4 88.0685L120.737 88.005C120.047 87.8176 119.545 87.6595 119.357 87.4404C118.918 87.0615 118.666 86.4334 118.605 85.4891V67.9629C119.796 67.6175 121.302 67.6175 122.964 67.9312ZM36.6652 66.2651L33.2454 66.3588L26.2824 86.2428C25.9688 87.1862 25.4035 87.8168 24.6505 88.2576L22.8935 88.8222V89.1374H30.4227V88.8222L28.9167 88.2576C28.4772 87.9423 28.2262 87.565 28.2262 86.9988L28.6657 85.1119L30.6111 79.3853H36.9162L38.8616 84.8594L39.3628 86.7463C39.4262 87.376 39.2377 87.8795 38.7357 88.194L37.2931 88.7602V89.1374H47.0804V88.7602L45.5744 88.3195C44.884 88.0042 44.3511 87.4396 44.0059 86.5581L36.6652 66.2651ZM36.4775 77.7795H31.1131L33.8107 70.0397L36.4775 77.7795ZM78.513 66.3596H75.1249L68.1295 86.2436C67.8159 87.187 67.3139 87.8176 66.4984 88.2584L64.8055 88.761V89.1383H72.2397V88.823L70.797 88.2584C70.295 87.9431 70.044 87.5659 70.1066 86.9996L70.4835 85.1127L72.4281 79.3861H78.8274L81.2748 86.7471C81.3374 87.3768 81.0864 87.8803 80.6478 88.1948C80.3342 88.4482 79.8322 88.6356 79.2043 88.761V89.1383H88.8958V88.761L87.4532 88.3203C86.7944 88.005 86.2607 87.4404 85.9163 86.5589L78.513 66.3596ZM78.3871 77.7795H72.9919L75.6895 70.0397L78.3871 77.7795Z" fill="black"/>
</g>
</g>
</svg>
