<svg width="91" height="59" viewBox="0 0 91 59" fill="none" xmlns="http://www.w3.org/2000/svg">
<g id="Ballantine`s Symbol 1">
<g id="Group">
<path id="Vector" fill-rule="evenodd" clip-rule="evenodd" d="M68.803 23.4131C68.803 23.6959 68.6727 23.9794 68.3915 24.2416C68.1309 24.5245 67.8703 24.6556 67.6103 24.6556C67.3504 24.6556 67.134 24.5471 66.9383 24.3501C66.7711 24.1483 66.6794 23.894 66.6789 23.6313C66.6789 23.3033 66.7868 23.0198 67.0474 22.7582C67.2855 22.4747 67.5667 22.343 67.8697 22.343C68.1091 22.343 68.326 22.4528 68.5205 22.6923C68.6951 22.9113 68.803 23.1509 68.803 23.4131ZM9.45138 30.522C10.0798 29.8671 10.3834 29.0825 10.3834 28.1674C10.3834 27.273 10.0798 26.5755 9.4732 26.0524C8.86596 25.5287 8.02058 25.2665 6.91522 25.2665C4.83417 25.2665 3.10039 26.0524 1.73442 27.6443C0.585415 28.9966 0 30.4354 0 31.9621C0 33.0974 0.433285 34.1003 1.3005 34.9289C2.27619 35.8446 3.51121 36.3025 5.05049 36.3025C9.34225 36.3025 14.7837 31.5701 16.8641 28.0815C18.273 25.7256 19.5087 23.3704 21.0698 21.1244C22.197 19.4886 23.2375 18.2021 24.1477 17.2205C26.9439 18.1802 23.7356 25.4428 21.9582 24.3733C21.8067 24.2862 21.5679 24.3075 21.308 24.2435C21.0933 24.204 20.8759 24.182 20.6577 24.1777C20.3323 24.1777 20.1159 24.199 19.9638 24.2862C19.8123 24.3734 19.7475 24.5258 19.7475 24.7666C19.7475 24.9623 19.7905 25.0721 19.8778 25.1147C19.9645 25.1373 20.3117 25.2019 20.8753 25.1586L22.4364 25.0489C25.2326 26.4664 19.0324 34.6447 16.3011 34.9075C15.0006 35.016 14.6103 34.2527 14.7837 33.0748C15.2169 30.1526 19.0972 29.0625 20.5069 28.5607C18.404 28.5607 14.6103 30.0441 14.2419 33.1407C14.0468 34.6893 15.2394 35.3874 16.6914 35.3874C18.4688 35.3874 20.2469 34.5801 21.7855 33.3809C24.2787 31.397 25.2326 27.6669 23.2593 24.9417C27.313 23.5022 28.7656 19.3581 24.6901 16.7207C25.1234 16.1091 26.7064 15.2586 27.4214 15.3458C27.4433 15.3458 27.4214 15.3245 27.3784 15.2586H27.0312C26.5979 15.2586 25.9476 15.4769 25.1022 15.9134C24.8204 16.0445 24.4302 16.2615 23.9532 16.5457C23.2872 16.3792 22.6145 16.2406 21.937 16.1304C21.3271 16.0406 20.7112 15.9972 20.0948 16.0006C17.1465 16.0006 14.437 16.567 11.9875 17.7023C9.53803 18.8363 8.30237 20.1654 8.30237 21.6487C8.30237 22.4121 8.54052 23.001 8.97444 23.4589C9.42955 23.9168 10.0368 24.135 10.7955 24.135C12.5075 24.135 14.1334 23.4376 15.586 21.8883C16.6484 20.7769 17.1253 19.9484 17.3416 19.3807C16.2581 20.733 13.9601 23.6113 11.3591 23.6339C10.7737 23.6339 10.3186 23.5028 9.97196 23.2632C9.64652 23.0224 9.4732 22.6517 9.4732 22.1725C9.4732 20.8861 10.3834 19.6649 12.2045 18.5082C14.3286 17.1559 16.952 16.5031 20.1166 16.5031C20.8535 16.5031 21.4819 16.5244 21.9595 16.6115C22.4371 16.6987 22.8697 16.8085 23.2818 16.9609C22.4146 17.6145 21.4177 18.3558 20.442 19.4472C19.553 20.4501 18.5779 21.3659 17.5804 22.7175C14.8921 26.3159 11.9875 31.1581 8.51933 33.9053C7.13154 35.018 5.80922 35.8252 4.63903 35.8252C3.49002 35.8252 2.55798 35.4972 1.88591 34.8656C1.19201 34.2333 0.845386 33.4261 0.845386 32.4451C0.845386 31.0702 1.49563 29.6966 2.75312 28.3017C4.18392 26.7311 5.85287 25.9459 7.73942 25.9459C8.41149 25.9459 8.95326 26.1641 9.32171 26.6007C9.71135 27.0373 9.90713 27.5603 9.90713 28.1713C9.90713 28.9346 9.60351 29.6107 9.01809 30.1777C7.97757 31.1148 7.26249 31.4642 5.65837 31.8123C7.2612 31.8523 8.2369 31.5475 9.45138 30.522ZM21.2431 24.6995C21.0043 24.8306 20.3977 24.9391 20.3547 24.6995C20.4196 24.4373 21.005 24.5684 21.2431 24.6995Z" fill="white"/>
<path id="Vector_2" fill-rule="evenodd" clip-rule="evenodd" d="M85.1268 35.0586C83.2184 36.1927 81.7228 35.6476 80.2714 34.1642C80.1653 34.0555 80.0774 33.9304 80.0108 33.7935C79.903 33.8594 79.815 33.9459 79.729 34.0118C78.4503 35.0373 77.3668 35.5378 76.4566 35.5378C75.9578 35.5378 75.5675 35.3854 75.2646 35.1013C74.9828 34.7958 74.8306 34.3825 74.8306 33.8588C74.8306 33.7703 74.8306 33.7064 74.8518 33.6179C74.7652 33.7064 74.7003 33.7929 74.6349 33.8588C73.6168 35.0141 72.7932 35.5817 72.1635 35.5817C71.7951 35.5817 71.5127 35.4293 71.2745 35.1452C71.0364 34.861 70.906 34.5123 70.8849 34.077C70.8194 33.2259 71.3188 32.0486 72.4017 30.5652C73.4634 29.0605 73.9853 28.1874 73.9628 27.9052L73.7895 27.6869C73.0308 27.6869 71.5563 28.7983 70.4067 30.8707C69.3449 32.7461 68.6074 34.1855 67.9141 35.3635H65.9634L69.6922 28.5587C69.8 28.3404 69.6922 27.3808 68.7383 28.8642C68.0014 29.9982 67.2427 31.1109 66.5052 32.2443C66.4628 32.2882 66.4397 32.3315 66.3973 32.3967C64.9883 34.6873 63.6442 35.5372 62.7995 35.5372C62.4734 35.5372 62.1704 35.4061 61.9534 35.1452C61.7153 34.9056 61.6074 34.4903 61.6074 33.9673V33.9014C60.2408 35.3409 58.9622 35.8639 58.2477 35.603C57.7271 35.4287 57.4017 35.3409 57.315 34.8397C57.2855 34.7112 57.2713 34.5796 57.2727 34.4477C57.2727 34.0112 57.4017 33.5094 57.6187 32.9204C57.6411 32.8332 57.6841 32.746 57.7278 32.6595C57.416 33.0702 57.0906 33.4702 56.7521 33.8588C55.7328 35.0141 54.9092 35.5817 54.2583 35.5817C53.9123 35.5817 53.6299 35.4293 53.3917 35.1452C53.1523 34.8617 53.0233 34.5123 53.0008 34.077C52.9366 33.2259 53.4347 32.0486 54.4964 30.5652C55.5806 29.0605 56.1012 28.1874 56.08 27.9052L55.9061 27.6869C55.1473 27.6869 53.6729 28.7983 52.5245 30.8707C51.4628 32.7461 50.7253 34.1855 50.032 35.3635H48.0813L51.787 28.5587C51.9173 28.3404 51.8082 27.3808 50.8556 28.8642C50.7041 29.1038 50.552 29.322 50.4005 29.5629C49.7926 30.6969 48.7302 32.3315 47.6473 33.7709C46.5189 35.233 45.7614 35.3641 45.176 35.3641C44.6773 35.3641 44.3306 35.0147 44.1573 34.3386C44.1 34.0146 44.071 33.6861 44.0707 33.357C43.7022 33.8362 43.4204 34.1855 43.2035 34.4251C42.5314 35.1239 41.9678 35.4933 41.4909 35.4933C41.1006 35.4933 40.754 35.3189 40.4503 34.9482C40.1685 34.6001 40.0382 34.1423 40.0382 33.6172V33.53C38.3911 35.2104 37.1554 35.7994 36.6785 35.4926C36.4616 35.3402 36.2016 35.3628 36.0501 35.1232C35.8986 34.861 35.8338 34.5343 35.8338 34.1416C35.8338 33.9666 35.8556 33.7696 35.8774 33.5527C34.0127 35.4926 32.2134 35.9292 31.7583 35.4926C31.5632 35.2969 31.2814 35.3628 31.1299 35.1232C30.9784 34.861 30.9136 34.5343 30.9136 34.1416C30.9136 33.9446 30.9354 33.7483 30.9572 33.5527C29.9385 34.708 28.8325 35.6024 28.3344 35.3628C27.8793 35.1445 27.5109 35.0134 27.3157 34.3373C27.2367 34.0165 27.2075 33.6854 27.2291 33.3557C26.8388 33.8349 26.557 34.1842 26.34 34.4238C25.668 35.1226 25.1044 35.492 24.6493 35.492C24.2372 35.492 23.8899 35.3176 23.6087 34.9469C23.3269 34.5988 23.1748 34.141 23.1748 33.6159C23.1748 32.4393 23.8687 31.0644 25.2559 29.5164C26.643 27.9459 27.9005 27.1619 29.0707 27.1619C29.6131 27.1619 29.9597 27.4015 30.1542 27.8593L30.4797 27.2704H32.4304L28.4204 34.0751C28.3383 34.1976 28.293 34.3413 28.2901 34.4891C28.2465 34.686 28.3331 34.686 28.5289 34.7726C29.0489 34.9682 30.4366 33.5074 31.325 32.2423C31.4984 31.8284 31.7371 31.3925 32.0183 30.9559L39.1068 19.5066H40.9491L31.9958 34.1203C31.974 34.1862 31.9304 34.2953 31.9304 34.4484C31.9085 34.5782 31.8874 34.688 31.8649 34.7312C31.8431 34.7971 31.8649 34.8623 31.9304 34.9282C31.9304 34.9495 31.9522 34.9708 31.9734 34.9708C32.2333 35.2117 34.0108 34.7751 35.4852 33.0522C35.8755 32.6156 36.2221 32.1138 36.5688 31.5914C36.6772 31.3731 36.8075 31.1548 36.9372 30.9585L44.0251 19.5092H45.8468L36.9154 34.1203C36.7851 34.3386 36.6991 34.7751 36.8936 34.9702C37.3917 35.2537 39.3431 33.6179 40.4484 31.9175C40.7957 31.1761 41.3374 30.3689 42.118 29.5184C43.4833 27.9478 44.7408 27.1638 45.911 27.1638C46.454 27.1638 46.8 27.4034 46.974 27.8613L47.32 27.2723H49.2707L45.2614 34.077C45.1641 34.1929 45.1103 34.3393 45.1093 34.491C45.0874 34.688 45.1523 34.7745 45.3481 34.7745C45.8243 34.7745 45.8468 34.883 46.8873 33.7929C46.9085 33.7703 47.7539 32.6376 48.7732 31.0883C49.1629 30.478 49.532 29.8658 49.9004 29.2555C51.4827 26.3772 54.1055 26.7692 53.5201 28.6892C53.4778 28.9501 53.3468 29.1031 53.1305 29.4738C53.5825 28.8166 54.1569 28.2539 54.8219 27.8167C55.5151 27.3801 56.0569 27.1192 56.4254 27.0979C56.7515 27.0979 57.032 27.1638 57.2277 27.2936C57.4447 27.4247 57.5526 27.643 57.5737 27.9484C57.6174 28.6246 57.0544 29.8025 55.8624 31.5029C54.6704 33.2046 54.1062 34.2953 54.1286 34.7965C54.1498 35.0373 54.2801 35.1458 54.4958 35.1458C54.8867 35.1458 55.5588 34.6008 56.4902 33.51C57.1193 32.8126 57.8992 31.7657 58.8537 30.4348C59.0918 30.108 59.3088 29.7586 59.5469 29.4105L61.8873 25.6591H59.4815L59.6984 25.2439H62.2134L63.8393 22.8008L65.7464 22.8234L64.1205 25.1567L65.9846 25.1354L65.8767 25.506H63.7745L58.767 33.5533C58.6367 33.749 58.5276 34.0112 58.4198 34.3166C58.3105 34.5628 58.2233 34.8182 58.1591 35.08C58.6797 35.5165 60.5226 34.4697 61.845 32.8332C61.9142 32.6506 62.0011 32.4751 62.1043 32.3095L65.247 27.2716H67.0251L63.2327 33.4216C63.1024 33.6398 62.9933 33.8794 62.8855 34.119C62.7764 34.3586 62.7115 34.5556 62.7115 34.7293C62.7115 34.9263 62.7995 35.036 62.951 35.036C63.5364 35.036 64.5981 34.2062 66.0501 32.1125C66.6143 31.1542 67.1997 30.2152 67.7838 29.2555C69.3661 26.3772 71.9902 26.7692 71.4048 28.6892C71.3612 28.9501 71.2315 29.1031 71.0152 29.4738C71.4664 28.8164 72.0404 28.2536 72.7053 27.8167C73.3998 27.3801 73.9416 27.1192 74.3101 27.0979C74.656 27.0979 74.9167 27.1638 75.1112 27.2936C75.3294 27.4247 75.4372 27.643 75.4584 27.9484C75.5021 28.6246 74.9378 29.8025 73.7458 31.5029C72.5538 33.2046 71.9909 34.2953 72.0121 34.7965C72.0332 35.0373 72.1635 35.1458 72.3805 35.1458C72.7701 35.1458 73.4422 34.6008 74.3749 33.51C74.5694 33.3144 74.7645 33.0735 74.9815 32.7913C75.2633 31.656 76.0432 30.458 77.2782 29.2568C78.8406 27.7308 80.1841 26.9888 81.3325 26.9888C82.0257 26.9888 82.3942 27.3808 82.3942 28.188C82.3942 30.4348 79.6199 31.5255 77.7115 31.3944C77.3 31.8523 76.5631 32.9863 76.4116 33.4228C76.2602 33.8807 76.1947 34.2514 76.1947 34.5782C76.1947 34.7532 76.2602 34.8836 76.3892 34.9702C76.5195 35.0586 76.6941 35.08 76.8879 35.08C77.4945 35.08 78.4715 34.4477 79.8144 33.1826C79.7502 32.5497 80.0326 31.9388 80.7907 31.9388C80.8549 31.9388 80.9197 31.9388 80.9852 31.9601L83.9765 28.8209V28.8422L84.1068 28.7111C84.7577 28.0137 85.2776 27.446 85.6679 27.0321C85.8412 26.5955 85.8412 25.9639 86.2097 25.375C86.5133 24.8512 87.229 24.3055 87.5108 25.1999C87.7489 25.9413 87.1423 26.7486 86.4478 26.8803C86.0582 26.9675 86.123 27.6436 86.123 28.188C86.123 28.58 86.2321 29.1922 86.4048 29.9982C86.9909 32.5284 86.9684 33.685 85.1268 35.0586ZM81.5058 32.3321C81.8306 32.7687 81.8531 33.4448 81.0943 33.8155C80.7471 33.9899 82.8936 37.0871 84.7352 33.2704C85.3643 31.9614 85.7545 30.4793 85.7545 28.7563C85.7545 28.6466 85.7545 28.4941 85.7334 28.3411C85.7334 28.1667 85.7109 27.9271 85.6897 27.5997C84.8622 28.463 84.0599 29.3505 83.2839 30.261C83.1472 30.4003 83.0172 30.546 82.8942 30.6976C82.8288 30.7848 82.7639 30.872 82.6773 30.9585C82.3084 31.4346 81.9175 31.893 81.5058 32.3321ZM29.5893 28.2985C29.5893 27.9491 29.4379 27.7747 29.1342 27.7747C28.5706 27.7747 27.6386 28.7563 26.3811 30.6743C25.1024 32.5943 24.4734 33.902 24.4734 34.5782C24.4734 34.7751 24.56 34.8836 24.7122 34.8836C25.1891 34.8836 26.1211 33.9253 27.5083 32.0053C28.8954 30.0854 29.5893 28.8429 29.5893 28.2985ZM46.4316 28.2985C46.4316 27.9491 46.2801 27.7747 45.9765 27.7747C45.4135 27.7747 44.4808 28.7563 43.2458 30.6743C41.9672 32.5943 41.3381 33.902 41.3381 34.5782C41.3381 34.7751 41.4247 34.8836 41.5762 34.8836C42.0532 34.8836 42.9852 33.9253 44.3512 32.0053C45.7383 30.0854 46.4316 28.8429 46.4316 28.2985ZM81.2022 27.5338C80.2708 27.5338 78.4067 29.9982 78.0376 30.8713C80.4441 31.1548 82.5039 27.5338 81.2022 27.5338Z" fill="white"/>
<path id="Vector_3" fill-rule="evenodd" clip-rule="evenodd" d="M81.8305 26.4225C82.2432 26.2914 82.5038 25.8987 82.5674 25.6365C82.5674 25.5719 82.5674 25.528 82.5462 25.4841C82.5454 25.4731 82.5407 25.4627 82.533 25.4548C82.5252 25.447 82.5148 25.4422 82.5038 25.4415H82.4159C82.3292 25.4841 82.2214 25.4841 82.0911 25.4415C81.9178 25.3976 81.7875 25.2891 81.7014 25.0921C81.6148 24.9177 81.5711 24.7214 81.6148 24.5032C81.6803 24.2849 81.7881 24.1325 81.9608 24.0014C82.1347 23.8716 82.3292 23.849 82.525 23.8929C82.7843 23.9587 82.9589 24.1325 83.088 24.3947C83.2183 24.6782 83.2395 25.0049 83.1759 25.3763C83.0668 25.8548 82.7195 26.3127 81.8305 26.4225Z" fill="white"/>
<path id="Vector_4" fill-rule="evenodd" clip-rule="evenodd" d="M89.613 32.7028C90.3718 32.7028 90.9995 33.3357 90.9995 34.099C90.9995 34.8623 90.3711 35.4939 89.613 35.4939C88.8318 35.4939 88.2252 34.8617 88.2252 34.099C88.2252 33.3363 88.8318 32.7028 89.613 32.7028ZM89.613 32.8339C89.2865 32.8444 88.9768 32.9823 88.7495 33.2184C88.5222 33.4545 88.3951 33.7703 88.3951 34.099C88.3951 34.4277 88.5222 34.7435 88.7495 34.9796C88.9768 35.2157 89.2865 35.3536 89.613 35.3641C90.2851 35.3641 90.8481 34.7965 90.8481 34.099C90.8481 33.4015 90.2851 32.8339 89.613 32.8339ZM89.6554 34.0331C89.7857 34.0331 89.8948 34.0331 89.9372 33.9892C90.0027 33.9466 90.0238 33.8807 90.0238 33.7709C90.0238 33.6851 90.0027 33.6185 89.9584 33.5753C89.8942 33.5313 89.8069 33.5094 89.6548 33.5094H89.3299V34.0331H89.6554ZM89.0924 35.0373H89.3306V34.2514H89.6124C89.7202 34.2514 89.8069 34.2727 89.8505 34.2953C89.916 34.3166 89.9372 34.3599 89.9584 34.4251C89.9809 34.469 90.002 34.5562 90.002 34.6873C90.0232 34.8397 90.0457 34.9482 90.0675 35.0367H90.3268C90.2845 34.9482 90.2614 34.8171 90.2402 34.6873C90.219 34.5349 90.219 34.4477 90.219 34.4251C90.1978 34.3379 90.1535 34.2953 90.1323 34.2508C90.0847 34.2043 90.0239 34.1739 89.9584 34.1636C90.0065 34.156 90.0526 34.1385 90.0938 34.1123C90.1349 34.0861 90.1704 34.0517 90.1978 34.0112C90.262 33.9453 90.2845 33.8588 90.2845 33.749C90.2845 33.5966 90.2408 33.4881 90.133 33.4222C90.0463 33.335 89.8948 33.2911 89.699 33.2911H89.0924V35.0373ZM1.99329 43.3242V40.9251L1.51636 42.4724H1.16909L0.692156 41.0116V43.3235H0.150391V39.9861H0.800638L1.3424 41.7303L1.906 39.9861H2.55624V43.3235L1.99329 43.3242ZM4.91973 41.6445C4.91973 42.081 4.94155 42.3858 5.02821 42.5828C5.09368 42.7798 5.22335 42.8663 5.37548 42.8663C5.52761 42.8663 5.65728 42.7791 5.72275 42.5828C5.78758 42.3858 5.83123 42.081 5.83123 41.6445C5.83123 41.2305 5.78758 40.9031 5.72275 40.7287C5.65728 40.5331 5.52761 40.4452 5.37548 40.4452C5.22335 40.4452 5.09368 40.5337 5.02821 40.7287C4.94155 40.9024 4.91973 41.2305 4.91973 41.6445ZM6.54567 41.6445C6.54567 42.2334 6.43719 42.67 6.24205 42.9535C6.04691 43.2589 5.76511 43.4114 5.37484 43.4114C5.00638 43.4114 4.70277 43.2589 4.50763 42.9535C4.31249 42.648 4.20401 42.2334 4.20401 41.6445C4.20401 41.0781 4.31249 40.6629 4.50763 40.358C4.70277 40.0526 5.00574 39.9002 5.37484 39.9002C5.76511 39.9002 6.04691 40.0526 6.24205 40.3367C6.43719 40.6415 6.54567 41.0781 6.54567 41.6445ZM10.0357 43.3242V40.9251L9.55876 42.4724H9.21213L8.7352 41.0116V43.3235H8.19343V39.9861H8.84368L9.38545 41.7303L9.94904 39.9861H10.5993V43.3235L10.0357 43.3242ZM12.5282 43.3242V39.9867H14.4578V40.5104H13.2003V41.339H14.1105V41.8627H13.2003V42.8011H14.5226V43.3248L12.5282 43.3242ZM16.3873 43.3242V39.9867H17.0157L17.6442 41.514C17.6872 41.6438 17.7526 41.7969 17.7957 41.928C17.8611 42.0804 17.926 42.256 17.9696 42.4084C17.9478 42.2334 17.9478 42.0591 17.9266 41.8847C17.9048 41.6877 17.9048 41.4914 17.9048 41.2957L17.8836 39.9867H18.4902V43.3887H17.9266L17.2327 41.8195C17.1679 41.7097 17.1249 41.5786 17.0594 41.4262C16.9946 41.2738 16.9509 41.1207 16.8861 40.9683C16.9079 41.2738 16.9291 41.6012 16.9291 41.9938C16.9291 42.0378 16.9509 42.081 16.9509 42.1036L16.9727 43.3248L16.3873 43.3242ZM21.113 43.3242V40.5104H20.2894V39.9867H22.6086V40.5104H21.7851V43.3242H21.113ZM25.0151 41.6445C25.0151 42.081 25.0581 42.3858 25.123 42.5828C25.1885 42.7798 25.3181 42.8663 25.4702 42.8663C25.6436 42.8663 25.752 42.7791 25.8169 42.5828C25.9035 42.3858 25.9254 42.081 25.9254 41.6445C25.9254 41.2305 25.9035 40.9031 25.8169 40.7287C25.752 40.5331 25.6436 40.4452 25.4702 40.4452C25.3188 40.4452 25.1885 40.5337 25.123 40.7287C25.0581 40.9024 25.0151 41.2305 25.0151 41.6445ZM26.6404 41.6445C26.6404 42.2334 26.5326 42.67 26.3368 42.9535C26.1417 43.2589 25.8599 43.4114 25.4696 43.4114C25.1012 43.4114 24.8187 43.2589 24.6024 42.9535C24.4073 42.648 24.3206 42.2334 24.3206 41.6445C24.3206 41.0781 24.4073 40.6629 24.6024 40.358C24.8187 40.0526 25.1012 39.9002 25.4696 39.9002C25.8599 39.9002 26.1417 40.0526 26.3368 40.3367C26.532 40.6415 26.6404 41.0781 26.6404 41.6445ZM28.3312 42.9535L28.7645 42.5169C28.873 42.648 28.9815 42.7352 29.0899 42.8004C29.1978 42.8663 29.3281 42.9089 29.4366 42.9089C29.5881 42.9089 29.6965 42.8663 29.7838 42.7791C29.8256 42.745 29.8591 42.7018 29.8815 42.6526C29.904 42.6034 29.915 42.5497 29.9135 42.4956C29.9187 42.3938 29.888 42.2934 29.8268 42.2121C29.762 42.1249 29.6754 42.0597 29.5881 41.9938L29.0026 41.6018C28.8378 41.5132 28.6965 41.3861 28.5905 41.2312C28.5055 41.1017 28.4604 40.9498 28.4609 40.7946C28.4609 40.5111 28.5475 40.3154 28.7427 40.1398C28.9378 39.9654 29.1978 39.9002 29.5014 39.9002C29.7184 39.9002 29.8917 39.9228 30.0432 40.01C30.2165 40.0745 30.368 40.1843 30.4983 40.3367L30.0432 40.6848C29.9737 40.5939 29.8849 40.5197 29.7832 40.4678C29.7027 40.4254 29.6134 40.4029 29.5226 40.402C29.4147 40.402 29.3063 40.4233 29.2414 40.4891C29.176 40.5331 29.1329 40.6202 29.1329 40.7074C29.1329 40.7946 29.1548 40.8598 29.2196 40.9257C29.2626 41.0129 29.3281 41.0781 29.4366 41.144L29.9783 41.4707C30.1953 41.6232 30.3468 41.7542 30.4553 41.9073C30.5419 42.0597 30.5856 42.2128 30.5856 42.4091C30.5856 42.7145 30.4771 42.9541 30.2819 43.1492C30.065 43.3242 29.805 43.4114 29.4584 43.4114C29.2196 43.4114 29.0245 43.3674 28.83 43.3016C28.643 43.2189 28.4736 43.1007 28.3312 42.9535ZM36.5687 43.3242V39.9867H37.436C37.9129 39.9867 38.2383 40.1178 38.4547 40.38C38.6498 40.6409 38.7583 41.0775 38.7583 41.6438C38.7583 42.2328 38.6498 42.6693 38.4547 42.9302C38.2377 43.1924 37.9122 43.3235 37.436 43.3235L36.5687 43.3242ZM37.2408 40.5104V42.7798H37.3923C37.6311 42.7798 37.8044 42.7139 37.9129 42.5389C38.0214 42.3645 38.0644 42.081 38.0644 41.6445C38.0644 41.2305 38.0214 40.9257 37.9129 40.7726C37.805 40.5976 37.6311 40.5104 37.3923 40.5104H37.2408ZM40.7308 43.3242V39.9867H42.6598V40.5104H41.4029V41.339H42.3131V41.8627H41.4029V42.8011H42.7252V43.3248L40.7308 43.3242ZM49.3587 40.5104H48.8381V39.9867H50.5719V40.5104H50.0519V42.8011H50.5725V43.3248H48.8387V42.8011H49.3593L49.3587 40.5104ZM52.6747 43.3242V39.9867H53.3032L53.9322 41.514C53.9746 41.6438 54.0401 41.7969 54.1055 41.928C54.1492 42.0804 54.2146 42.256 54.2795 42.4084L54.214 41.8847C54.214 41.6877 54.1915 41.4914 54.1915 41.2957L54.1704 39.9867H54.777V43.3887H54.214L53.5195 41.8195C53.454 41.7097 53.4116 41.5786 53.3462 41.4262C53.2807 41.2738 53.2383 41.1207 53.1728 40.9683C53.194 41.2738 53.2152 41.6012 53.2383 41.9938V42.1036L53.2595 43.3248L52.6747 43.3242ZM56.5987 42.9535L57.0101 42.5169C57.1193 42.648 57.2271 42.7352 57.3349 42.8004C57.4441 42.8663 57.5731 42.9089 57.7034 42.9089C57.8337 42.9089 57.9428 42.8663 58.0295 42.7791C58.0712 42.745 58.1045 42.7017 58.1269 42.6525C58.1493 42.6034 58.1601 42.5497 58.1585 42.4956C58.1637 42.3938 58.133 42.2934 58.0718 42.2121C58.0089 42.1231 57.9277 42.0487 57.8337 41.9938L57.2483 41.6018C57.0538 41.4921 56.9235 41.3623 56.8368 41.2312C56.7502 41.1001 56.7065 40.9476 56.7065 40.7946C56.7065 40.5111 56.8144 40.3154 57.0101 40.1398C57.1834 39.9654 57.4441 39.9002 57.7689 39.9002C57.9647 39.9002 58.1373 39.9228 58.3106 40.01C58.4621 40.0745 58.6155 40.1843 58.7446 40.3367L58.3106 40.6848C58.2296 40.5972 58.1346 40.5238 58.0295 40.4678C57.949 40.4255 57.8597 40.4029 57.7689 40.402C57.6679 40.3969 57.5683 40.4277 57.4877 40.4891C57.421 40.5331 57.3786 40.6202 57.3786 40.7074C57.3786 40.7946 57.421 40.8598 57.4652 40.9257C57.5089 41.0129 57.5956 41.0781 57.6822 41.144L58.224 41.4707C58.4409 41.6232 58.5924 41.7542 58.7016 41.9073C58.7882 42.0597 58.853 42.2128 58.853 42.4091C58.853 42.7145 58.7439 42.9541 58.527 43.1492C58.3325 43.3242 58.0507 43.4114 57.7034 43.4114C57.4894 43.4087 57.2773 43.3716 57.075 43.3016C56.9023 43.2144 56.7277 43.1059 56.5987 42.9535ZM61.5625 41.5786H61.7358C61.8873 41.5786 62.0176 41.536 62.1043 41.4262C62.1922 41.339 62.2346 41.1866 62.2346 40.9909C62.2346 40.8159 62.1922 40.6842 62.1043 40.5976C62.0176 40.5104 61.9098 40.4678 61.7358 40.4678H61.5625V41.5786ZM60.8904 43.3242V39.9867H61.7583C62.1479 39.9867 62.4304 40.0739 62.6249 40.2489C62.8206 40.4013 62.9285 40.6629 62.9285 40.9903C62.9285 41.3384 62.8206 41.6006 62.6037 41.7962C62.3867 41.9712 62.1049 42.0797 61.7146 42.0797H61.628C61.6068 42.0797 61.5843 42.0797 61.5625 42.0584V43.3235L60.8904 43.3242ZM65.4428 40.5104H64.9011V39.9867H66.656V40.5104H66.1142V42.8011H66.656V43.3248H64.9011V42.8011H65.4428V40.5104ZM68.8462 43.3242V39.9867H69.7128C70.1024 39.9867 70.406 40.0739 70.6018 40.2263C70.7976 40.4013 70.9054 40.6629 70.9054 41.0122C70.9054 41.2305 70.8631 41.4042 70.7539 41.536C70.6673 41.6884 70.537 41.7969 70.3425 41.8854L71.1224 43.3248H70.3855L69.6922 42.0384H69.5189V43.3248L68.8462 43.3242ZM69.5183 41.5786H69.6916C69.8649 41.5786 69.9734 41.514 70.06 41.4262C70.1467 41.3177 70.1903 41.1866 70.1903 40.9909C70.1903 40.8159 70.1467 40.6842 70.06 40.5976C69.9945 40.5104 69.8642 40.4678 69.6916 40.4678H69.5183V41.5786ZM73.4627 41.9493H74.0706L73.8312 40.9251C73.8312 40.9025 73.81 40.8592 73.81 40.794C73.7888 40.7281 73.7888 40.6415 73.7677 40.5544C73.7677 40.6629 73.7452 40.7726 73.7022 40.9024V40.9464L73.4627 41.9493ZM73.1168 43.3242H72.5102L73.4204 39.9441H74.2003L75.0893 43.3242H74.3961L74.2003 42.473H73.3337L73.1168 43.3242ZM78.969 42.6041C78.9266 42.8663 78.84 43.062 78.6654 43.1931C78.4921 43.3455 78.2757 43.4114 78.0145 43.4114C77.6248 43.4114 77.3212 43.2589 77.1043 42.9748C76.9098 42.6693 76.8006 42.2334 76.8006 41.6438C76.8006 41.0775 76.9098 40.6409 77.1043 40.3361C77.3212 40.0306 77.6248 39.8995 78.0145 39.8995C78.2963 39.8995 78.5351 39.9654 78.709 40.1391C78.8823 40.2915 78.9684 40.5098 78.9684 40.794L78.3829 40.8379C78.3618 40.7068 78.3175 40.597 78.2539 40.5324C78.1884 40.4665 78.1024 40.4439 77.9933 40.4439C77.82 40.4439 77.6897 40.5324 77.6248 40.7061C77.5594 40.9018 77.517 41.2079 77.517 41.6432C77.517 42.1023 77.5594 42.4078 77.6248 42.6028C77.7115 42.7778 77.8418 42.865 78.0145 42.865C78.0581 42.8671 78.1018 42.8605 78.1429 42.8455C78.184 42.8306 78.2217 42.8076 78.2539 42.7778C78.3333 42.6928 78.386 42.5861 78.4054 42.4711L78.969 42.6041ZM81.5263 40.5104H80.9846V39.9867H82.7408V40.5104H82.199V42.8011H82.7408V43.3248H80.9846V42.8011H81.5263V40.5104ZM85.4291 41.6445C85.4291 42.081 85.4503 42.3858 85.5369 42.5828C85.6024 42.7798 85.7103 42.8663 85.8842 42.8663C86.0357 42.8663 86.166 42.7791 86.2315 42.5828C86.2957 42.3858 86.3393 42.081 86.3393 41.6445C86.3393 41.2305 86.2957 40.9031 86.2315 40.7287C86.166 40.5331 86.0357 40.4452 85.8842 40.4452C85.7103 40.4452 85.6024 40.5337 85.5369 40.7287C85.4503 40.9024 85.4291 41.2305 85.4291 41.6445ZM87.055 41.6445C87.055 42.2334 86.9459 42.67 86.7501 42.9535C86.5556 43.2589 86.2527 43.4114 85.8836 43.4114C85.5145 43.4114 85.2115 43.2589 85.0157 42.9535C84.8212 42.648 84.7121 42.2334 84.7121 41.6445C84.7121 41.0781 84.8212 40.6629 85.0157 40.358C85.2115 40.0526 85.5145 39.9002 85.8836 39.9002C86.2527 39.9002 86.5556 40.0526 86.7501 40.3367C86.9466 40.6415 87.055 41.0781 87.055 41.6445ZM85.2988 39.6812L85.1685 39.3977L85.9054 39.1582L86.426 38.9399L86.5775 39.3764L85.2988 39.6812ZM88.8543 43.3242V39.9867H89.4827L90.1111 41.514C90.1548 41.6438 90.2203 41.7969 90.2626 41.928C90.3281 42.0804 90.3929 42.256 90.4584 42.4084C90.4148 42.2334 90.4148 42.0591 90.3929 41.8847C90.3717 41.6877 90.3718 41.4914 90.3718 41.2957L90.3506 39.9867H90.9572V43.3887H90.3929L89.6997 41.8195C89.6342 41.7097 89.5918 41.5786 89.5264 41.4262C89.4609 41.2738 89.4173 41.1207 89.3524 40.9683C89.3749 41.2738 89.3961 41.6012 89.4179 41.9938V42.1036L89.4404 43.3248L88.8543 43.3242Z" fill="white"/>
</g>
</g>
</svg>
