<svg width="156" height="69" viewBox="0 0 156 69" fill="none" xmlns="http://www.w3.org/2000/svg">
<g id="Martini_Logo 1" clip-path="url(#clip0_130_332)">
<path id="Vector" d="M78.0115 69.0003C96.9833 69.0003 112.363 53.5541 112.363 34.5001C112.363 15.4462 96.9833 0 78.0115 0C59.0398 0 43.6602 15.4462 43.6602 34.5001C43.6602 53.5541 59.0398 69.0003 78.0115 69.0003Z" fill="#FFDE00"/>
<path id="Vector_2" d="M78.0121 66.6195C95.6746 66.6195 109.993 52.2392 109.993 34.5002C109.993 16.7612 95.6746 2.38086 78.0121 2.38086C60.3495 2.38086 46.0312 16.7612 46.0312 34.5002C46.0312 52.2392 60.3495 66.6195 78.0121 66.6195Z" fill="#DF2A37"/>
<path id="Vector_3" d="M106.351 51.517H155.714V17.4573H106.913" stroke="#FFDE00" stroke-width="2"/>
<path id="Vector_4" d="M49.8134 17.4814H0.286133V51.5411H49.8134" stroke="#FFDE00" stroke-width="2"/>
<path id="Vector_5" d="M154.807 18.3083H1.10254V50.6734H154.807V18.3083Z" fill="black"/>
<path id="Vector_6" d="M9.58008 24.0889H14.1334L19.5926 32.8054H19.6498L25.3198 24.0889H30.5057V44.6701H25.3798V35.494L25.3226 35.2821L19.8648 43.1869H19.7988L14.7635 35.2821H14.7063V44.6701H9.58008V24.0889Z" fill="white"/>
<path id="Vector_7" d="M43.0167 24.0889H49.1872L57.4933 44.6701H52.2153L51.3545 42.5776H41.675L40.7568 44.6701H35.4688L43.0167 24.0889ZM48.992 37.3201L46.3115 29.9189L46.254 29.707L43.4295 37.3201H48.992Z" fill="white"/>
<path id="Vector_8" d="M61.8525 24.0889H72.1907C78.7318 24.2718 79.7218 28.4086 79.7218 32.3C79.7218 34.4333 77.8061 37.3864 76.0179 38.731C76.2631 38.5461 79.5091 44.6701 79.5091 44.6701H73.6167L70.2593 39.6116H67.112V44.6701H61.8525V24.0889ZM67.112 34.9892H71.0452C72.2219 34.9892 74.846 34.3587 74.673 32.0956C74.4929 29.7392 73.1118 28.9895 70.7004 28.9895H67.1117V34.9892H67.112Z" fill="white"/>
<path id="Vector_9" d="M88.2862 29.3645H83.2295V24.0889H99.5475V29.3642H93.8069V44.6701H88.2862V29.3645Z" fill="white"/>
<path id="Vector_10" d="M116.306 24.0889H121.709L128.944 33.5243H128.791V24.0889H134.128V44.6701H129.04L121.7 34.276H121.643V44.6701H116.306V24.0889Z" fill="white"/>
<path id="Vector_11" d="M141.222 24.0889H146.481V44.6701H141.222V24.0889Z" fill="white"/>
<path id="Vector_12" d="M104.304 24.0889H109.563V44.6701H104.304V24.0889Z" fill="white"/>
</g>
<defs>
<clipPath id="clip0_130_332">
<rect width="156" height="69" fill="white"/>
</clipPath>
</defs>
</svg>
