<svg width="150" height="97" viewBox="0 0 150 97" fill="none" xmlns="http://www.w3.org/2000/svg">
<g id="Ballantine`s Symbol 1" clip-path="url(#clip0_130_299)">
<g id="Group">
<path id="Vector" fill-rule="evenodd" clip-rule="evenodd" d="M113.412 38.4926C113.412 38.9577 113.197 39.4238 112.733 39.8548C112.304 40.3199 111.874 40.5354 111.446 40.5354C111.017 40.5354 110.66 40.357 110.338 40.0332C110.062 39.7014 109.911 39.2834 109.91 38.8515C109.91 38.3121 110.088 37.846 110.518 37.416C110.91 36.9499 111.374 36.7334 111.873 36.7334C112.268 36.7334 112.625 36.9139 112.946 37.3078C113.234 37.6677 113.412 38.0616 113.412 38.4926ZM15.5792 50.1802C16.6151 49.1036 17.1155 47.8136 17.1155 46.3091C17.1155 44.8386 16.6151 43.6919 15.6152 42.8319C14.6142 41.9709 13.2207 41.5398 11.3987 41.5398C7.96841 41.5398 5.11053 42.8319 2.85894 45.4491C0.96497 47.6724 0 50.0379 0 52.5478C0 54.4143 0.714206 56.0632 2.14367 57.4254C3.75196 58.9309 5.78771 59.6837 8.32499 59.6837C15.3993 59.6837 24.3687 51.9034 27.7979 46.1679C30.1204 42.2947 32.1572 38.4226 34.7305 34.7299C36.5885 32.0405 38.3036 29.9255 39.804 28.3117C44.413 29.8894 39.1247 41.8297 36.1948 40.0714C35.9451 39.9281 35.5515 39.9631 35.123 39.858C34.7692 39.7931 34.4108 39.7569 34.0512 39.7497C33.5147 39.7497 33.1582 39.7848 32.9074 39.9281C32.6577 40.0714 32.5508 40.322 32.5508 40.718C32.5508 41.0397 32.6217 41.2202 32.7656 41.2903C32.9084 41.3275 33.4809 41.4336 34.4099 41.3625L36.9831 41.182C41.5921 43.5125 31.3721 56.9582 26.87 57.3904C24.7263 57.5687 24.083 56.3138 24.3687 54.3772C25.0829 49.5729 31.479 47.7806 33.8025 46.9557C30.3363 46.9557 24.083 49.3945 23.4757 54.4855C23.154 57.0315 25.1199 58.1792 27.5133 58.1792C30.4431 58.1792 33.374 56.8521 35.9102 54.8804C40.0198 51.6188 41.5921 45.4863 38.3396 41.0058C45.0214 38.6392 47.4158 31.826 40.698 27.4899C41.4122 26.4845 44.0215 25.0862 45.2002 25.2295C45.2362 25.2295 45.2002 25.1945 45.1293 25.0862H44.5569C43.8427 25.0862 42.7708 25.445 41.3773 26.1628C40.9128 26.3783 40.2695 26.735 39.4834 27.2022C38.3855 26.9285 37.2767 26.7007 36.1599 26.5195C35.1545 26.3718 34.1394 26.3005 33.1232 26.3061C28.2635 26.3061 23.7973 27.2372 19.7597 29.1038C15.722 30.9682 13.6852 33.1532 13.6852 35.592C13.6852 36.847 14.0778 37.8153 14.793 38.568C15.5432 39.3208 16.5442 39.6797 17.7948 39.6797C20.6167 39.6797 23.2968 38.533 25.6913 35.9859C27.4424 34.1587 28.2286 32.7965 28.5851 31.8632C26.7991 34.0865 23.0112 38.8186 18.7238 38.8558C17.7588 38.8558 17.0087 38.6402 16.4373 38.2463C15.9008 37.8503 15.6152 37.2409 15.6152 36.4531C15.6152 34.3381 17.1155 32.3304 20.1173 30.4288C23.6185 28.2055 27.9429 27.1321 33.1592 27.1321C34.3739 27.1321 35.4098 27.1672 36.197 27.3105C36.9842 27.4538 37.6973 27.6343 38.3766 27.8849C36.9471 28.9594 35.3039 30.1782 33.6957 31.9726C32.2302 33.6214 30.623 35.127 28.9787 37.3492C24.5475 43.2651 19.7597 51.226 14.0429 55.7426C11.7553 57.5719 9.57564 58.8991 7.64675 58.8991C5.75279 58.8991 4.21645 58.3597 3.10864 57.3214C1.96486 56.2819 1.39349 54.9548 1.39349 53.342C1.39349 51.0816 2.46533 48.8233 4.53811 46.5299C6.89657 43.9478 9.64759 42.6567 12.7573 42.6567C13.8651 42.6567 14.7581 43.0156 15.3655 43.7333C16.0077 44.4511 16.3304 45.3111 16.3304 46.3155C16.3304 47.5704 15.83 48.6821 14.865 49.6143C13.1498 51.1548 11.9711 51.7292 9.32699 52.3015C11.969 52.3673 13.5773 51.8662 15.5792 50.1802ZM35.0161 40.6076C34.6225 40.8231 33.6227 41.0015 33.5518 40.6076C33.6586 40.1766 34.6236 40.3921 35.0161 40.6076Z" fill="white"/>
<path id="Vector_2" fill-rule="evenodd" clip-rule="evenodd" d="M140.319 57.6389C137.173 59.5033 134.708 58.6072 132.315 56.1684C132.141 55.9897 131.996 55.7839 131.886 55.559C131.708 55.6673 131.563 55.8095 131.421 55.9178C129.314 57.6039 127.528 58.4267 126.027 58.4267C125.205 58.4267 124.562 58.1761 124.062 57.709C123.598 57.2068 123.347 56.5273 123.347 55.6662C123.347 55.5207 123.347 55.4156 123.382 55.2702C123.239 55.4156 123.132 55.5579 123.024 55.6662C121.346 57.5656 119.989 58.4989 118.951 58.4989C118.344 58.4989 117.878 58.2483 117.485 57.7812C117.093 57.314 116.878 56.7407 116.843 56.0251C116.735 54.6257 117.558 52.6902 119.343 50.2514C121.093 47.7775 121.954 46.3421 121.917 45.8781L121.631 45.5192C120.38 45.5192 117.95 47.3465 116.055 50.7536C114.305 53.8368 113.089 56.2034 111.946 58.14H108.731L114.877 46.9526C115.055 46.5937 114.877 45.016 113.305 47.4548C112.09 49.3192 110.84 51.1485 109.624 53.0119C109.554 53.0841 109.516 53.1552 109.446 53.2624C107.124 57.0284 104.908 58.4256 103.516 58.4256C102.978 58.4256 102.479 58.2101 102.121 57.7812C101.728 57.3873 101.551 56.7046 101.551 55.8446V55.7363C99.298 58.1029 97.1903 58.9629 96.0127 58.5339C95.1546 58.2473 94.6182 58.1029 94.4753 57.279C94.4266 57.0677 94.4032 56.8513 94.4055 56.6345C94.4055 55.9168 94.6182 55.0918 94.9758 54.1235C95.0128 53.9802 95.0837 53.8368 95.1557 53.6946C94.6418 54.3697 94.1054 55.0273 93.5474 55.6662C91.8671 57.5656 90.5096 58.4989 89.4367 58.4989C88.8664 58.4989 88.4009 58.2483 88.0083 57.7812C87.6137 57.3151 87.401 56.7407 87.364 56.0251C87.2581 54.6257 88.0792 52.6902 89.8293 50.2514C91.6164 47.7775 92.4745 46.3421 92.4396 45.8781L92.1528 45.5192C90.9022 45.5192 88.4718 47.3465 86.5788 50.7536C84.8288 53.8368 83.6131 56.2034 82.4703 58.14H79.2548L85.3631 46.9526C85.5779 46.5937 85.398 45.016 83.8278 47.4548C83.5781 47.8487 83.3274 48.2075 83.0777 48.6036C82.0757 50.468 80.3245 53.1552 78.5395 55.5218C76.6794 57.9256 75.4309 58.1411 74.4659 58.1411C73.6438 58.1411 73.0724 57.5667 72.7868 56.4551C72.6922 55.9223 72.6444 55.3823 72.6439 54.8412C72.0366 55.629 71.5721 56.2034 71.2145 56.5973C70.1066 57.7461 69.1776 58.3534 68.3915 58.3534C67.7482 58.3534 67.1768 58.0668 66.6763 57.4573C66.2118 56.8851 65.9971 56.1323 65.9971 55.2691V55.1258C63.282 57.8884 61.2452 58.8567 60.4591 58.3524C60.1014 58.1018 59.6729 58.139 59.4232 57.7451C59.1735 57.314 59.0666 56.7768 59.0666 56.1312C59.0666 55.8435 59.1026 55.5197 59.1386 55.1629C56.0648 58.3524 53.099 59.0701 52.3489 58.3524C52.0272 58.0307 51.5627 58.139 51.313 57.7451C51.0633 57.314 50.9564 56.7768 50.9564 56.1312C50.9564 55.8074 50.9924 55.4846 51.0284 55.1629C49.3492 57.0624 47.5261 58.5329 46.7051 58.139C45.9549 57.7801 45.3475 57.5646 45.0259 56.4529C44.8957 55.9256 44.8475 55.3812 44.883 54.8391C44.2397 55.6269 43.7752 56.2013 43.4176 56.5952C42.3098 57.744 41.3808 58.3513 40.6306 58.3513C39.9513 58.3513 39.3789 58.0646 38.9155 57.4552C38.451 56.8829 38.2002 56.1302 38.2002 55.267C38.2002 53.3325 39.344 51.0721 41.6305 48.5271C43.917 45.945 45.9898 44.656 47.9187 44.656C48.8128 44.656 49.3841 45.05 49.7047 45.8027L50.2412 44.8344H53.4567L46.8468 56.0219C46.7114 56.2232 46.6368 56.4596 46.632 56.7024C46.5601 57.0263 46.7029 57.0263 47.0257 57.1685C47.8827 57.4902 50.1703 55.0886 51.6347 53.0087C51.9203 52.3281 52.3139 51.6114 52.7774 50.8937L64.4618 32.0703H67.4985L52.7404 56.0962C52.7044 56.2045 52.6324 56.3839 52.6324 56.6356C52.5964 56.849 52.5615 57.0295 52.5245 57.1006C52.4885 57.2089 52.5245 57.3161 52.6324 57.4244C52.6324 57.4595 52.6684 57.4945 52.7033 57.4945C53.1318 57.8905 56.0617 57.1728 58.4921 54.3401C59.1354 53.6224 59.7068 52.7974 60.2781 51.9385C60.4569 51.5796 60.6717 51.2207 60.8855 50.898L72.5688 32.0746H75.5716L60.8495 56.0962C60.6347 56.4551 60.4929 57.1728 60.8135 57.4934C61.6346 57.9595 64.8512 55.2702 66.6732 52.4746C67.2456 51.2558 68.1386 49.9286 69.4252 48.5303C71.6758 45.9482 73.7486 44.6592 75.6774 44.6592C76.5726 44.6592 77.1429 45.0531 77.4296 45.8059L77.9999 44.8376H81.2154L74.6067 56.0251C74.4463 56.2155 74.3576 56.4563 74.3559 56.7056C74.3199 57.0294 74.4268 57.1717 74.7495 57.1717C75.5346 57.1717 75.5716 57.3501 77.2868 55.5579C77.3217 55.5207 78.7152 53.6585 80.3954 51.1114C81.0377 50.108 81.6461 49.1015 82.2534 48.0982C84.8616 43.3661 89.1849 44.0105 88.2199 47.167C88.1501 47.596 87.9343 47.8476 87.5777 48.457C88.3228 47.3766 89.2696 46.4514 90.3657 45.7327C91.5085 45.0149 92.4015 44.586 93.0088 44.5509C93.5463 44.5509 94.0087 44.6592 94.3314 44.8727C94.689 45.0882 94.8668 45.447 94.9017 45.9492C94.9737 47.0609 94.0457 48.9975 92.0809 51.793C90.116 54.5907 89.186 56.3839 89.223 57.2078C89.2579 57.6039 89.4727 57.7822 89.8282 57.7822C90.4726 57.7822 91.5804 56.8861 93.1157 55.0929C94.1526 53.9462 95.4382 52.2251 97.0115 50.0369C97.4041 49.4997 97.7617 48.9253 98.1543 48.353L102.012 42.1854H98.0463L98.404 41.5027H102.55L105.23 37.4862L108.373 37.5234L105.693 41.3594L108.766 41.3243L108.588 41.9338H105.123L96.8687 55.164C96.6539 55.4857 96.474 55.9168 96.2963 56.419C96.1162 56.8237 95.9725 57.2436 95.8667 57.6739C96.7248 58.3917 99.7626 56.6706 101.942 53.9802C102.056 53.6798 102.2 53.3914 102.37 53.1191L107.55 44.8365H110.481L104.23 54.9474C104.015 55.3063 103.835 55.7002 103.657 56.0941C103.477 56.488 103.371 56.8118 103.371 57.0974C103.371 57.4212 103.516 57.6017 103.765 57.6017C104.73 57.6017 106.48 56.2374 108.874 52.7953C109.804 51.2197 110.769 49.6759 111.732 48.0982C114.34 43.3661 118.665 44.0105 117.7 47.167C117.628 47.596 117.415 47.8476 117.058 48.457C117.802 47.3762 118.748 46.4509 119.844 45.7327C120.989 45.0149 121.882 44.586 122.489 44.5509C123.059 44.5509 123.489 44.6592 123.81 44.8727C124.169 45.0882 124.347 45.447 124.382 45.9492C124.454 47.0609 123.524 48.9975 121.559 51.793C119.594 54.5907 118.666 56.3839 118.701 57.2078C118.736 57.6039 118.951 57.7822 119.308 57.7822C119.951 57.7822 121.059 56.8861 122.596 55.0929C122.917 54.7712 123.238 54.3751 123.596 53.9112C124.06 52.0446 125.346 50.0751 127.382 48.1003C129.957 45.5914 132.172 44.3715 134.064 44.3715C135.207 44.3715 135.815 45.016 135.815 46.3431C135.815 50.0369 131.242 51.8302 128.096 51.6146C127.418 52.3674 126.203 54.2318 125.953 54.9495C125.704 55.7023 125.596 56.3117 125.596 56.849C125.596 57.1367 125.704 57.3512 125.916 57.4934C126.131 57.6389 126.419 57.6739 126.738 57.6739C127.738 57.6739 129.349 56.6345 131.562 54.5546C131.456 53.5141 131.922 52.5097 133.171 52.5097C133.277 52.5097 133.384 52.5097 133.492 52.5447L138.423 47.3836V47.4187L138.638 47.2031C139.71 46.0565 140.567 45.1232 141.211 44.4427C141.496 43.7249 141.496 42.6865 142.104 41.7182C142.604 40.8572 143.784 39.96 144.249 41.4305C144.641 42.6494 143.641 43.9766 142.496 44.1931C141.854 44.3365 141.961 45.4481 141.961 46.3431C141.961 46.9876 142.141 47.9941 142.425 49.3192C143.391 53.479 143.354 55.3806 140.319 57.6389ZM134.35 53.1563C134.886 53.874 134.923 54.9856 133.672 55.5951C133.1 55.8817 136.638 60.9738 139.673 54.699C140.71 52.5468 141.354 50.1102 141.354 47.2775C141.354 47.097 141.354 46.8464 141.319 46.5948C141.319 46.3081 141.282 45.9142 141.247 45.3759C139.883 46.7953 138.56 48.2544 137.281 49.7513C137.056 49.9803 136.841 50.2198 136.639 50.469C136.531 50.6124 136.424 50.7557 136.281 50.898C135.673 51.6807 135.029 52.4343 134.35 53.1563ZM48.7736 46.5247C48.7736 45.9503 48.5239 45.6636 48.0234 45.6636C47.0944 45.6636 45.5581 47.2775 43.4853 50.4308C41.3776 53.5873 40.3407 55.7373 40.3407 56.849C40.3407 57.1728 40.4835 57.3512 40.7343 57.3512C41.5205 57.3512 43.0568 55.7755 45.3433 52.619C47.6298 49.4625 48.7736 47.4197 48.7736 46.5247ZM76.5355 46.5247C76.5355 45.9503 76.2858 45.6636 75.7854 45.6636C74.8574 45.6636 73.32 47.2775 71.2843 50.4308C69.1766 53.5873 68.1397 55.7373 68.1397 56.849C68.1397 57.1728 68.2825 57.3512 68.5322 57.3512C69.3184 57.3512 70.8547 55.7755 73.1063 52.619C75.3928 49.4625 76.5355 47.4197 76.5355 46.5247ZM133.85 45.2676C132.314 45.2676 129.242 49.3192 128.633 50.7546C132.6 51.2207 135.995 45.2676 133.85 45.2676Z" fill="white"/>
<path id="Vector_3" fill-rule="evenodd" clip-rule="evenodd" d="M134.886 43.4403C135.566 43.2247 135.996 42.5792 136.1 42.1481C136.1 42.0419 136.1 41.9698 136.065 41.8976C136.064 41.8794 136.056 41.8623 136.044 41.8494C136.031 41.8365 136.014 41.8287 135.996 41.8275H135.851C135.708 41.8975 135.53 41.8975 135.315 41.8275C135.03 41.7553 134.815 41.5769 134.673 41.2531C134.53 40.9664 134.458 40.6437 134.53 40.2848C134.638 39.9259 134.816 39.6754 135.101 39.4598C135.387 39.2464 135.708 39.2093 136.031 39.2814C136.458 39.3897 136.746 39.6754 136.958 40.1064C137.173 40.5725 137.208 41.1097 137.103 41.7202C136.924 42.507 136.351 43.2598 134.886 43.4403Z" fill="white"/>
<path id="Vector_4" fill-rule="evenodd" clip-rule="evenodd" d="M147.715 53.7656C148.966 53.7656 150 54.8061 150 56.0611C150 57.316 148.965 58.3544 147.715 58.3544C146.427 58.3544 145.427 57.315 145.427 56.0611C145.427 54.8072 146.427 53.7656 147.715 53.7656ZM147.715 53.9812C147.177 53.9984 146.666 54.2251 146.291 54.6133C145.917 55.0015 145.707 55.5207 145.707 56.0611C145.707 56.6015 145.917 57.1207 146.291 57.5089C146.666 57.8971 147.177 58.1238 147.715 58.141C148.823 58.141 149.751 57.2077 149.751 56.0611C149.751 54.9144 148.823 53.9812 147.715 53.9812ZM147.785 55.9528C148 55.9528 148.179 55.9528 148.249 55.8806C148.357 55.8105 148.392 55.7022 148.392 55.5217C148.392 55.3805 148.357 55.2712 148.284 55.2C148.178 55.1278 148.034 55.0917 147.784 55.0917H147.248V55.9528H147.785ZM146.857 57.6038H147.249V56.3117H147.714C147.892 56.3117 148.034 56.3467 148.106 56.3839C148.214 56.4189 148.249 56.49 148.284 56.5973C148.321 56.6695 148.356 56.8128 148.356 57.0283C148.391 57.2789 148.428 57.4573 148.464 57.6027H148.891C148.822 57.4573 148.784 57.2417 148.749 57.0283C148.714 56.7777 148.714 56.6344 148.714 56.5973C148.679 56.4539 148.606 56.3838 148.571 56.3106C148.492 56.2343 148.392 56.1842 148.284 56.1673C148.364 56.1548 148.439 56.1261 148.507 56.083C148.575 56.0399 148.634 55.9833 148.679 55.9167C148.785 55.8084 148.822 55.6661 148.822 55.4856C148.822 55.2351 148.75 55.0567 148.572 54.9484C148.429 54.8051 148.179 54.7329 147.857 54.7329H146.857V57.6038ZM3.28678 71.2279V67.2836L2.50062 69.8275H1.9282L1.14204 67.4258V71.2268H0.249023V65.7398H1.32086L2.21388 68.6075L3.14288 65.7398H4.21471V71.2268L3.28678 71.2279ZM8.11057 68.4663C8.11057 69.1841 8.14655 69.6852 8.28939 70.0091C8.39731 70.3329 8.61104 70.4751 8.86181 70.4751C9.11257 70.4751 9.32631 70.3318 9.43423 70.0091C9.5411 69.6852 9.61305 69.1841 9.61305 68.4663C9.61305 67.7858 9.5411 67.2475 9.43423 66.9608C9.32631 66.6391 9.11257 66.4947 8.86181 66.4947C8.61104 66.4947 8.39731 66.6402 8.28939 66.9608C8.14655 67.2464 8.11057 67.7858 8.11057 68.4663ZM10.7907 68.4663C10.7907 69.4346 10.6119 70.1524 10.2902 70.6185C9.96856 71.1207 9.50406 71.3712 8.86075 71.3712C8.25341 71.3712 7.75294 71.1207 7.43128 70.6185C7.10962 70.1163 6.93081 69.4346 6.93081 68.4663C6.93081 67.5352 7.10962 66.8525 7.43128 66.3514C7.75294 65.8492 8.25235 65.5986 8.86075 65.5986C9.50406 65.5986 9.96856 65.8492 10.2902 66.3163C10.6119 66.8175 10.7907 67.5352 10.7907 68.4663ZM16.5435 71.2279V67.2836L15.7573 69.8275H15.186L14.3998 67.4258V71.2268H13.5068V65.7398H14.5786L15.4716 68.6075L16.4006 65.7398H17.4725V71.2268L16.5435 71.2279ZM20.652 71.2279V65.7409H23.8326V66.6019H21.7598V67.9641H23.2602V68.8252H21.7598V70.3679H23.9395V71.2289L20.652 71.2279ZM27.0132 71.2279V65.7409H28.0491L29.0849 68.2519C29.1558 68.4653 29.2637 68.7169 29.3346 68.9324C29.4426 69.183 29.5494 69.4718 29.6214 69.7224C29.5854 69.4346 29.5854 69.148 29.5505 68.8613C29.5145 68.5375 29.5145 68.2147 29.5145 67.893L29.4796 65.7409H30.4795V71.3341H29.5505L28.4067 68.7541C28.2998 68.5736 28.2289 68.3581 28.121 68.1075C28.0141 67.8569 27.9422 67.6053 27.8353 67.3547C27.8713 67.8569 27.9062 68.3952 27.9062 69.0407C27.9062 69.1129 27.9422 69.1841 27.9422 69.2212L27.9782 71.2289L27.0132 71.2279ZM34.8028 71.2279V66.6019H33.4453V65.7409H37.2681V66.6019H35.9106V71.2279H34.8028ZM41.2349 68.4663C41.2349 69.1841 41.3058 69.6852 41.4126 70.0091C41.5206 70.3329 41.7343 70.4751 41.9851 70.4751C42.2707 70.4751 42.4496 70.3318 42.5564 70.0091C42.6993 69.6852 42.7352 69.1841 42.7352 68.4663C42.7352 67.7858 42.6993 67.2475 42.5564 66.9608C42.4496 66.6391 42.2707 66.4947 41.9851 66.4947C41.7353 66.4947 41.5206 66.6402 41.4126 66.9608C41.3058 67.2464 41.2349 67.7858 41.2349 68.4663ZM43.9139 68.4663C43.9139 69.4346 43.7362 70.1524 43.4135 70.6185C43.0918 71.1207 42.6273 71.3712 41.984 71.3712C41.3767 71.3712 40.9111 71.1207 40.5545 70.6185C40.2329 70.1163 40.09 69.4346 40.09 68.4663C40.09 67.5352 40.2329 66.8525 40.5545 66.3514C40.9111 65.8492 41.3767 65.5986 41.984 65.5986C42.6273 65.5986 43.0918 65.8492 43.4135 66.3163C43.7351 66.8175 43.9139 67.5352 43.9139 68.4663ZM46.7009 70.6185L47.4151 69.9007C47.5939 70.1163 47.7728 70.2596 47.9516 70.3668C48.1293 70.4751 48.3441 70.5452 48.5229 70.5452C48.7726 70.5452 48.9515 70.4751 49.0954 70.3318C49.1642 70.2758 49.2193 70.2046 49.2564 70.1238C49.2935 70.043 49.3115 69.9546 49.3091 69.8657C49.3177 69.6983 49.2671 69.5332 49.1662 69.3996C49.0594 69.2563 48.9165 69.149 48.7726 69.0407L47.8077 68.3963C47.5359 68.2505 47.303 68.0416 47.1284 67.7868C46.9882 67.574 46.9138 67.3243 46.9146 67.0691C46.9146 66.603 47.0575 66.2813 47.3791 65.9925C47.7008 65.7058 48.1293 65.5986 48.6298 65.5986C48.9874 65.5986 49.2731 65.6358 49.5228 65.7791C49.8085 65.8853 50.0582 66.0658 50.273 66.3163L49.5228 66.8886C49.4083 66.7391 49.2619 66.6172 49.0943 66.5319C48.9617 66.4622 48.8144 66.425 48.6647 66.4236C48.487 66.4236 48.3081 66.4586 48.2013 66.5669C48.0934 66.6391 48.0225 66.7824 48.0225 66.9258C48.0225 67.0691 48.0584 67.1763 48.1653 67.2846C48.2362 67.428 48.3441 67.5352 48.5229 67.6435L49.416 68.1807C49.7736 68.4313 50.0233 68.6468 50.2021 68.8985C50.345 69.149 50.4169 69.4007 50.4169 69.7234C50.4169 70.2256 50.2381 70.6195 49.9164 70.9402C49.5588 71.2279 49.1303 71.3712 48.5589 71.3712C48.1653 71.3712 47.8437 71.299 47.523 71.1907C47.2148 71.0549 46.9357 70.8605 46.7009 70.6185ZM60.2793 71.2279V65.7409H61.7087C62.4949 65.7409 63.0313 65.9564 63.3879 66.3875C63.7096 66.8164 63.8884 67.5341 63.8884 68.4653C63.8884 69.4336 63.7096 70.1513 63.3879 70.5802C63.0303 71.0113 62.4938 71.2268 61.7087 71.2268L60.2793 71.2279ZM61.3871 66.6019V70.3329H61.6368C62.0304 70.3329 62.3161 70.2246 62.4949 69.9368C62.6737 69.6502 62.7446 69.1841 62.7446 68.4663C62.7446 67.7858 62.6737 67.2846 62.4949 67.033C62.3171 66.7453 62.0304 66.6019 61.6368 66.6019H61.3871ZM67.1399 71.2279V65.7409H70.3194V66.6019H68.2477V67.9641H69.748V68.8252H68.2477V70.3679H70.4273V71.2289L67.1399 71.2279ZM81.3616 66.6019H80.5034V65.7409H83.3613V66.6019H82.5043V70.3679H83.3624V71.2289H80.5045V70.3679H81.3626L81.3616 66.6019ZM86.8276 71.2279V65.7409H87.8635L88.9004 68.2519C88.9702 68.4653 89.0781 68.7169 89.1861 68.9324C89.258 69.183 89.3659 69.4718 89.4728 69.7224L89.3649 68.8613C89.3649 68.5375 89.3279 68.2147 89.3279 67.893L89.2929 65.7409H90.2928V71.3341H89.3649L88.22 68.7541C88.1121 68.5736 88.0423 68.3581 87.9344 68.1075C87.8264 67.8569 87.7566 67.6053 87.6487 67.3547C87.6836 67.8569 87.7185 68.3952 87.7566 69.0407V69.2212L87.7915 71.2289L86.8276 71.2279ZM93.2956 70.6185L93.9739 69.9007C94.1538 70.1163 94.3315 70.2596 94.5093 70.3668C94.6891 70.4751 94.9018 70.5452 95.1166 70.5452C95.3314 70.5452 95.5113 70.4751 95.6541 70.3318C95.7229 70.2757 95.7778 70.2045 95.8147 70.1237C95.8516 70.0428 95.8694 69.9546 95.8668 69.8657C95.8754 69.6983 95.8248 69.5332 95.724 69.3996C95.6201 69.2532 95.4863 69.1309 95.3314 69.0407L94.3664 68.3963C94.0458 68.2158 93.831 68.0024 93.6882 67.7868C93.5454 67.5713 93.4734 67.3207 93.4734 67.0691C93.4734 66.603 93.6512 66.2813 93.9739 65.9925C94.2596 65.7058 94.6892 65.5986 95.2245 65.5986C95.5473 65.5986 95.8319 65.6358 96.1176 65.7791C96.3673 65.8853 96.6201 66.0658 96.8328 66.3163L96.1176 66.8886C95.984 66.7445 95.8274 66.6239 95.6541 66.5319C95.5214 66.4623 95.3742 66.4252 95.2245 66.4236C95.0581 66.4152 94.894 66.4659 94.7611 66.5669C94.6511 66.6391 94.5812 66.7824 94.5812 66.9258C94.5812 67.0691 94.6511 67.1763 94.7241 67.2846C94.796 67.428 94.9389 67.5352 95.0817 67.6435L95.9747 68.1807C96.3324 68.4313 96.5821 68.6468 96.7619 68.8985C96.9048 69.149 97.0116 69.4007 97.0116 69.7234C97.0116 70.2256 96.8318 70.6195 96.4741 70.9402C96.1535 71.2279 95.689 71.3712 95.1166 71.3712C94.7639 71.3668 94.4143 71.3059 94.0807 71.1907C93.7961 71.0474 93.5083 70.869 93.2956 70.6185ZM101.478 68.3581H101.763C102.013 68.3581 102.228 68.288 102.371 68.1075C102.516 67.9641 102.586 67.7136 102.586 67.3919C102.586 67.1041 102.516 66.8875 102.371 66.7453C102.228 66.6019 102.05 66.5319 101.763 66.5319H101.478V68.3581ZM100.37 71.2279V65.7409H101.801C102.443 65.7409 102.908 65.8842 103.229 66.1719C103.552 66.4225 103.729 66.8525 103.729 67.3908C103.729 67.9631 103.552 68.3941 103.194 68.7159C102.836 69.0036 102.372 69.1819 101.729 69.1819H101.586C101.551 69.1819 101.514 69.1819 101.478 69.1469V71.2268L100.37 71.2279ZM107.874 66.6019H106.981V65.7409H109.874V66.6019H108.981V70.3679H109.874V71.2289H106.981V70.3679H107.874V66.6019ZM113.484 71.2279V65.7409H114.912C115.555 65.7409 116.055 65.8842 116.378 66.1348C116.7 66.4225 116.878 66.8525 116.878 67.4269C116.878 67.7858 116.808 68.0714 116.628 68.288C116.486 68.5385 116.271 68.7169 115.95 68.8624L117.236 71.2289H116.021L114.878 69.114H114.593V71.2289L113.484 71.2279ZM114.592 68.3581H114.877C115.163 68.3581 115.342 68.2519 115.485 68.1075C115.628 67.9291 115.699 67.7136 115.699 67.3919C115.699 67.1041 115.628 66.8875 115.485 66.7453C115.377 66.6019 115.162 66.5319 114.877 66.5319H114.592V68.3581ZM121.094 68.9675H122.096L121.701 67.2836C121.701 67.2464 121.666 67.1753 121.666 67.068C121.631 66.9598 121.631 66.8175 121.596 66.6741C121.596 66.8525 121.559 67.033 121.488 67.2464V67.3186L121.094 68.9675ZM120.523 71.2279H119.523L121.024 65.6708H122.309L123.775 71.2279H122.632L122.309 69.8285H120.881L120.523 71.2279ZM130.17 70.0441C130.1 70.4751 129.957 70.7968 129.669 71.0124C129.384 71.2629 129.027 71.3712 128.596 71.3712C127.954 71.3712 127.454 71.1207 127.096 70.6535C126.775 70.1513 126.596 69.4346 126.596 68.4653C126.596 67.5341 126.775 66.8164 127.096 66.3153C127.454 65.8131 127.954 65.5975 128.596 65.5975C129.061 65.5975 129.455 65.7058 129.741 65.9914C130.027 66.242 130.169 66.6009 130.169 67.068L129.204 67.1402C129.169 66.9247 129.096 66.7442 128.991 66.6381C128.883 66.5298 128.741 66.4926 128.562 66.4926C128.276 66.4926 128.061 66.638 127.954 66.9237C127.846 67.2454 127.776 67.7486 127.776 68.4642C127.776 69.2191 127.846 69.7213 127.954 70.0419C128.097 70.3297 128.312 70.473 128.596 70.473C128.668 70.4765 128.74 70.4656 128.808 70.441C128.876 70.4164 128.938 70.3786 128.991 70.3297C129.122 70.1899 129.209 70.0145 129.241 69.8254L130.17 70.0441ZM134.385 66.6019H133.492V65.7409H136.387V66.6019H135.494V70.3679H136.387V71.2289H133.492V70.3679H134.385V66.6019ZM140.818 68.4663C140.818 69.1841 140.853 69.6852 140.996 70.0091C141.104 70.3329 141.282 70.4751 141.569 70.4751C141.818 70.4751 142.033 70.3318 142.141 70.0091C142.247 69.6852 142.319 69.1841 142.319 68.4663C142.319 67.7858 142.247 67.2475 142.141 66.9608C142.033 66.6391 141.818 66.4947 141.569 66.4947C141.282 66.4947 141.104 66.6402 140.996 66.9608C140.853 67.2464 140.818 67.7858 140.818 68.4663ZM143.498 68.4663C143.498 69.4346 143.319 70.1524 142.996 70.6185C142.675 71.1207 142.176 71.3712 141.567 71.3712C140.959 71.3712 140.46 71.1207 140.137 70.6185C139.816 70.1163 139.636 69.4346 139.636 68.4663C139.636 67.5352 139.816 66.8525 140.137 66.3514C140.46 65.8492 140.959 65.5986 141.567 65.5986C142.176 65.5986 142.675 65.8492 142.996 66.3163C143.32 66.8175 143.498 67.5352 143.498 68.4663ZM140.604 65.2387L140.389 64.7726L141.603 64.3787L142.462 64.0198L142.711 64.7375L140.604 65.2387ZM146.464 71.2279V65.7409H147.5L148.536 68.2519C148.608 68.4653 148.716 68.7169 148.786 68.9324C148.894 69.183 149 69.4718 149.108 69.7224C149.036 69.4346 149.036 69.148 149 68.8613C148.966 68.5375 148.966 68.2147 148.966 67.893L148.931 65.7409H149.931V71.3341H149L147.858 68.7541C147.75 68.5736 147.68 68.3581 147.572 68.1075C147.464 67.8569 147.392 67.6053 147.285 67.3547C147.322 67.8569 147.357 68.3952 147.393 69.0407V69.2212L147.43 71.2289L146.464 71.2279Z" fill="white"/>
</g>
</g>
<defs>
<clipPath id="clip0_130_299">
<rect width="150" height="97" fill="white"/>
</clipPath>
</defs>
</svg>
