<svg width="83" height="64" viewBox="0 0 83 64" fill="none" xmlns="http://www.w3.org/2000/svg">
<g id="Group">
<path id="Vector" d="M68.0868 40.8724C67.2049 43.6726 65.8912 46.2772 64.2301 48.6202C62.791 50.6462 61.0908 52.4663 59.1768 54.0393C57.5238 55.4003 55.7106 56.5739 53.7657 57.5272C50.059 59.3514 45.8918 60.3726 41.484 60.3726C37.0763 60.3726 32.7035 59.2999 28.9269 57.3934C26.9162 56.3762 25.0495 55.1244 23.3534 53.6729C21.5874 52.1554 20.0085 50.4239 18.6661 48.5152C15.463 43.967 13.584 38.4182 13.584 32.4329C13.584 31.2593 13.6559 30.1042 13.7978 28.9697C14.0671 26.7749 14.5913 24.6604 15.3376 22.657C15.6892 21.7161 16.0921 20.7958 16.5383 19.9042C17.2516 18.4877 18.074 17.1432 19.0053 15.877L24.0874 21.014L24.2724 21.1993C23.9578 21.6626 23.6597 22.1361 23.3822 22.6241C22.8662 23.528 22.416 24.4771 22.0397 25.4613C21.6121 26.5793 21.2749 27.7405 21.0447 28.9368C20.7939 30.236 20.6582 31.5763 20.6582 32.9476C20.6582 36.8266 21.7149 40.4586 23.5549 43.5738C24.7514 45.5956 26.2789 47.4034 28.0634 48.9126C29.7883 50.3662 31.7475 51.5522 33.8815 52.3922C36.2437 53.3249 38.8217 53.8335 41.521 53.8335C44.2204 53.8335 46.5456 53.3702 48.8152 52.5219C50.8834 51.7478 52.7933 50.6565 54.4894 49.3059C56.4363 47.7555 58.0995 45.8674 59.3885 43.7282C59.9333 42.8202 60.4164 41.8669 60.8194 40.8745H68.0889L68.0868 40.8724Z" fill="#E30613"/>
<path id="Vector_2" d="M68.0868 40.8724C67.2049 43.6726 65.8912 46.2772 64.2301 48.6202C62.791 50.6462 61.0908 52.4663 59.1768 54.0393C57.5238 55.4003 55.7106 56.5739 53.7657 57.5272C50.059 59.3514 45.8918 60.3726 41.484 60.3726C37.0763 60.3726 32.7035 59.2999 28.9269 57.3934C26.9162 56.3762 25.0495 55.1244 23.3534 53.6729C21.5874 52.1554 20.0085 50.4239 18.6661 48.5152C15.463 43.967 13.584 38.4182 13.584 32.4329C13.584 31.2593 13.6559 30.1042 13.7978 28.9697C14.0671 26.7749 14.5913 24.6604 15.3376 22.657C15.6892 21.7161 16.0921 20.7958 16.5383 19.9042C17.2516 18.4877 18.074 17.1432 19.0053 15.877L24.0874 21.014L24.2724 21.1993C23.9578 21.6626 23.6597 22.1361 23.3822 22.6241C22.8662 23.528 22.416 24.4771 22.0397 25.4613C21.6121 26.5793 21.2749 27.7405 21.0447 28.9368C20.7939 30.236 20.6582 31.5763 20.6582 32.9476C20.6582 36.8266 21.7149 40.4586 23.5549 43.5738C24.7514 45.5956 26.2789 47.4034 28.0634 48.9126C29.7883 50.3662 31.7475 51.5522 33.8815 52.3922C36.2437 53.3249 38.8217 53.8335 41.521 53.8335C44.2204 53.8335 46.5456 53.3702 48.8152 52.5219C50.8834 51.7478 52.7933 50.6565 54.4894 49.3059C56.4363 47.7555 58.0995 45.8674 59.3885 43.7282C59.9333 42.8202 60.4164 41.8669 60.8194 40.8745H68.0889L68.0868 40.8724Z" fill="#E30613"/>
<path id="Vector_3" d="M67.5401 22.4182L63.5147 22.4368L59.5593 22.4553C59.2036 21.8417 58.8171 21.2487 58.4039 20.6784C58.2682 20.4911 58.1284 20.3078 57.9886 20.1246C57.7768 19.8528 57.5589 19.5872 57.3348 19.3257C55.8114 17.553 53.9961 16.0396 51.9629 14.8599C51.6545 14.6807 51.342 14.5098 51.0254 14.3472C50.8116 14.2381 50.5957 14.131 50.3778 14.0281C47.6887 12.7618 44.6851 12.0556 41.517 12.0556C38.349 12.0556 35.2199 12.7927 32.4877 14.1104L26.9883 8.54922C31.2131 5.97143 36.1739 4.48694 41.4841 4.48694C46.7944 4.48694 52.1356 6.08879 56.4631 8.85189C56.7571 9.03925 57.047 9.23279 57.3348 9.43045C59.2529 10.7605 60.9963 12.3233 62.5259 14.0795C62.75 14.339 62.972 14.6025 63.1858 14.8702C64.3761 16.3402 65.4164 17.9359 66.2922 19.6304C66.7568 20.5322 67.1742 21.4629 67.5401 22.4182Z" fill="#E30613"/>
<path id="Vector_4" d="M82.9414 32.978C82.9414 42.6468 79.6397 51.5455 74.1033 58.5994C72.5758 60.5472 70.8776 62.3549 69.0294 64L63.752 58.6653C65.6372 57.0634 67.3477 55.2598 68.8485 53.2894C73.2706 47.4935 75.896 40.2522 75.896 32.3953C75.896 31.1414 75.8281 29.904 75.6986 28.6831C75.4683 26.517 75.0345 24.4128 74.4219 22.3848C73.6098 19.6999 72.4791 17.1551 71.0729 14.7914C69.9319 12.8725 68.61 11.073 67.1298 9.41964L63.7273 12.8581C62.1916 11.1059 60.4523 9.53906 58.5527 8.19457L61.9901 4.7232L66.6631 0C68.5093 1.41449 70.2341 2.9834 71.8192 4.68408C73.3241 6.30035 74.7015 8.03809 75.935 9.88084C78.4576 13.6466 80.3818 17.851 81.5701 22.3539C82.1088 24.3963 82.4953 26.5006 82.7173 28.6522C82.8653 30.0749 82.9393 31.5161 82.9393 32.978H82.9414Z" fill="#E30613"/>
<path id="Vector_5" d="M82.9414 32.978C82.9414 42.6468 79.6397 51.5455 74.1033 58.5994C72.5758 60.5472 70.8776 62.3549 69.0294 64L63.752 58.6653C65.6372 57.0634 67.3477 55.2598 68.8485 53.2894C73.2706 47.4935 75.896 40.2522 75.896 32.3953C75.896 31.1414 75.8281 29.904 75.6986 28.6831C75.4683 26.517 75.0345 24.4128 74.4219 22.3848C73.6098 19.6999 72.4791 17.1551 71.0729 14.7914C69.9319 12.8725 68.61 11.073 67.1298 9.41964L63.7273 12.8581C62.1916 11.1059 60.4523 9.53906 58.5527 8.19457L61.9901 4.7232L66.6631 0C68.5093 1.41449 70.2341 2.9834 71.8192 4.68408C73.3241 6.30035 74.7015 8.03809 75.935 9.88084C78.4576 13.6466 80.3818 17.851 81.5701 22.3539C82.1088 24.3963 82.4953 26.5006 82.7173 28.6522C82.8653 30.0749 82.9393 31.5161 82.9393 32.978H82.9414Z" fill="#E30613"/>
<path id="Vector_6" d="M56.126 20.5463L54.214 22.4796L47.9478 28.8108L46.2887 30.4889L41.0812 35.7515L36.1842 30.8039L34.2743 28.8726L28.0656 22.597L26.0282 20.5401L25.3025 19.805L20.0683 14.5177L19.3446 13.7847L15.4734 9.87066C14.0816 11.4828 12.8378 13.2226 11.7626 15.0736C10.3811 17.4455 9.27501 19.9986 8.48761 22.6875C7.89142 24.7177 7.48025 26.8281 7.26849 28.9961C7.15953 30.1141 7.10197 31.2486 7.10197 32.3954C7.10197 40.1967 9.69235 47.3927 14.0569 53.168C15.4611 55.0273 17.0482 56.7382 18.7957 58.2742L13.5265 63.5986C11.814 62.0297 10.233 60.3167 8.80217 58.478C3.3233 51.4427 0.0585938 42.5933 0.0585938 32.9781C0.0585938 31.646 0.12233 30.3283 0.243626 29.027C0.447156 26.8734 0.815154 24.765 1.33529 22.7184C2.48657 18.1847 4.38207 13.9474 6.88816 10.1466C8.05589 8.37382 9.35725 6.69373 10.7778 5.12481C12.4349 3.2903 14.2543 1.60609 16.2135 0.0927734L20.8865 4.81597L24.2499 8.21528L24.7926 8.76502L25.5266 9.50417L30.915 14.9521L31.6613 15.7057L32.132 16.1813L38.4333 22.5517L41.3937 25.5412L44.3788 22.5228L50.715 16.1195C50.8465 16.1916 50.9781 16.2657 51.1056 16.3398C52.9702 17.4228 54.6293 18.8023 56.0396 20.4433C56.0684 20.4762 56.0972 20.5113 56.126 20.5463Z" fill="#E30613"/>
</g>
</svg>
