<svg width="153" height="65" viewBox="0 0 153 65" fill="none" xmlns="http://www.w3.org/2000/svg">
<g id="_&#208;&#161;&#208;&#187;&#208;&#190;&#208;&#185;_1" clip-path="url(#clip0_130_137)">
<g id="Group">
<path id="Vector" d="M87.9538 17.2042C87.5832 18.3829 87.0312 19.4792 86.3332 20.4655C85.7285 21.3183 85.0141 22.0844 84.2098 22.7465C83.5152 23.3194 82.7533 23.8134 81.9361 24.2147C80.3785 24.9825 78.6275 25.4124 76.7753 25.4124C74.9232 25.4124 73.0857 24.9609 71.4988 24.1583C70.654 23.7302 69.8696 23.2033 69.1569 22.5923C68.4148 21.9535 67.7513 21.2247 67.1872 20.4213C65.8413 18.5068 65.0518 16.1711 65.0518 13.6517C65.0518 13.1577 65.082 12.6715 65.1416 12.194C65.2548 11.2701 65.4751 10.3801 65.7886 9.5368C65.9364 9.14073 66.1057 8.75333 66.2931 8.37807C66.5929 7.7818 66.9384 7.21587 67.3298 6.68287L69.4653 8.8452L69.543 8.9232C69.4108 9.1182 69.2856 9.31753 69.169 9.52293C68.9521 9.9034 68.7629 10.3029 68.6049 10.7172C68.4252 11.1878 68.2835 11.6766 68.1867 12.1801C68.0813 12.727 68.0243 13.2912 68.0243 13.8684C68.0243 15.5012 68.4684 17.03 69.2415 18.3413C69.7443 19.1923 70.3862 19.9533 71.136 20.5885C71.8608 21.2004 72.684 21.6996 73.5807 22.0532C74.5733 22.4458 75.6566 22.6599 76.7909 22.6599C77.9251 22.6599 78.9022 22.4649 79.8559 22.1078C80.7249 21.7819 81.5275 21.3226 82.2402 20.7541C83.0583 20.1015 83.7571 19.3067 84.2988 18.4063C84.5277 18.0241 84.7307 17.6228 84.9 17.2051H87.9547L87.9538 17.2042Z" fill="#E30613"/>
<path id="Vector_2" d="M87.9538 17.2042C87.5832 18.3829 87.0312 19.4792 86.3332 20.4655C85.7285 21.3183 85.0141 22.0844 84.2098 22.7465C83.5152 23.3194 82.7533 23.8134 81.9361 24.2147C80.3785 24.9825 78.6275 25.4124 76.7753 25.4124C74.9232 25.4124 73.0857 24.9609 71.4988 24.1583C70.654 23.7302 69.8696 23.2033 69.1569 22.5923C68.4148 21.9535 67.7513 21.2247 67.1872 20.4213C65.8413 18.5068 65.0518 16.1711 65.0518 13.6517C65.0518 13.1577 65.082 12.6715 65.1416 12.194C65.2548 11.2701 65.4751 10.3801 65.7886 9.5368C65.9364 9.14073 66.1057 8.75333 66.2931 8.37807C66.5929 7.7818 66.9384 7.21587 67.3298 6.68287L69.4653 8.8452L69.543 8.9232C69.4108 9.1182 69.2856 9.31753 69.169 9.52293C68.9521 9.9034 68.7629 10.3029 68.6049 10.7172C68.4252 11.1878 68.2835 11.6766 68.1867 12.1801C68.0813 12.727 68.0243 13.2912 68.0243 13.8684C68.0243 15.5012 68.4684 17.03 69.2415 18.3413C69.7443 19.1923 70.3862 19.9533 71.136 20.5885C71.8608 21.2004 72.684 21.6996 73.5807 22.0532C74.5733 22.4458 75.6566 22.6599 76.7909 22.6599C77.9251 22.6599 78.9022 22.4649 79.8559 22.1078C80.7249 21.7819 81.5275 21.3226 82.2402 20.7541C83.0583 20.1015 83.7571 19.3067 84.2988 18.4063C84.5277 18.0241 84.7307 17.6228 84.9 17.2051H87.9547L87.9538 17.2042Z" fill="#E30613"/>
<path id="Vector_3" d="M87.7234 9.43627L86.032 9.44407L84.3699 9.45187C84.2204 9.1936 84.058 8.944 83.8844 8.70393C83.8274 8.62507 83.7686 8.54793 83.7099 8.4708C83.6209 8.3564 83.5293 8.2446 83.4352 8.13453C82.7951 7.38833 82.0323 6.75133 81.1779 6.25473C81.0483 6.17933 80.917 6.1074 80.784 6.03893C80.6941 5.993 80.6034 5.94793 80.5118 5.9046C79.3819 5.3716 78.1198 5.07433 76.7886 5.07433C75.4573 5.07433 74.1425 5.3846 72.9944 5.93927L70.6836 3.5984C72.4588 2.51333 74.5434 1.88847 76.7747 1.88847C79.0061 1.88847 81.2505 2.56273 83.0689 3.7258C83.1924 3.80467 83.3142 3.88613 83.4352 3.96933C84.2412 4.5292 84.9737 5.187 85.6165 5.92627C85.7106 6.03547 85.8039 6.1464 85.8938 6.25907C86.3939 6.87787 86.8311 7.54953 87.1991 8.2628C87.3943 8.6424 87.5697 9.03413 87.7234 9.43627Z" fill="#E30613"/>
<path id="Vector_4" d="M94.1963 13.8814C94.1963 17.9513 92.809 21.697 90.4826 24.6662C89.8407 25.4861 89.1271 26.247 88.3505 26.9395L86.133 24.6939C86.9251 24.0197 87.6439 23.2605 88.2745 22.4311C90.1327 19.9914 91.2358 16.9433 91.2358 13.6361C91.2358 13.1083 91.2073 12.5875 91.1529 12.0735C91.0562 11.1618 90.8739 10.2761 90.6164 9.4224C90.2752 8.29227 89.8001 7.22107 89.2092 6.22613C88.7298 5.4184 88.1743 4.66093 87.5523 3.965L86.1226 5.41233C85.4773 4.6748 84.7465 4.01527 83.9482 3.44933L85.3926 1.98813L87.3562 0C88.132 0.5954 88.8568 1.2558 89.5228 1.97167C90.1552 2.652 90.7339 3.38347 91.2523 4.15913C92.3122 5.74427 93.1208 7.514 93.6201 9.4094C93.8465 10.2691 94.0089 11.1549 94.1022 12.0605C94.1644 12.6594 94.1955 13.2661 94.1955 13.8814H94.1963Z" fill="#E30613"/>
<path id="Vector_5" d="M94.1963 13.8814C94.1963 17.9513 92.809 21.697 90.4826 24.6662C89.8407 25.4861 89.1271 26.247 88.3505 26.9395L86.133 24.6939C86.9251 24.0197 87.6439 23.2605 88.2745 22.4311C90.1327 19.9914 91.2358 16.9433 91.2358 13.6361C91.2358 13.1083 91.2073 12.5875 91.1529 12.0735C91.0562 11.1618 90.8739 10.2761 90.6164 9.4224C90.2752 8.29227 89.8001 7.22107 89.2092 6.22613C88.7298 5.4184 88.1743 4.66093 87.5523 3.965L86.1226 5.41233C85.4773 4.6748 84.7465 4.01527 83.9482 3.44933L85.3926 1.98813L87.3562 0C88.132 0.5954 88.8568 1.2558 89.5228 1.97167C90.1552 2.652 90.7339 3.38347 91.2523 4.15913C92.3122 5.74427 93.1208 7.514 93.6201 9.4094C93.8465 10.2691 94.0089 11.1549 94.1022 12.0605C94.1644 12.6594 94.1955 13.2661 94.1955 13.8814H94.1963Z" fill="#E30613"/>
<path id="Vector_6" d="M82.9276 8.64847L82.1242 9.46227L79.4911 12.1273L78.794 12.8336L76.6058 15.0488L74.5481 12.9662L73.7456 12.1533L71.1367 9.51167L70.2806 8.64587L69.9756 8.33647L67.7762 6.11087L67.4721 5.80233L65.8455 4.1548C65.2606 4.8334 64.738 5.56573 64.2862 6.34487C63.7057 7.34327 63.2409 8.41793 62.91 9.5498C62.6595 10.4043 62.4867 11.2927 62.3978 12.2053C62.352 12.6759 62.3278 13.1534 62.3278 13.6361C62.3278 16.9199 63.4163 19.9489 65.2503 22.3799C65.8403 23.1625 66.5072 23.8827 67.2415 24.5293L65.0274 26.7705C64.3078 26.1101 63.6435 25.389 63.0422 24.6151C60.74 21.6537 59.3682 17.9287 59.3682 13.8814C59.3682 13.3207 59.3949 12.766 59.4459 12.2183C59.5314 11.3117 59.6861 10.4243 59.9046 9.5628C60.3884 7.6544 61.1849 5.8708 62.2379 4.27093C62.7286 3.52473 63.2754 2.81753 63.8724 2.15713C64.5687 1.38493 65.3332 0.676 66.1565 0.0389996L68.12 2.02713L69.5333 3.458L69.7614 3.6894L70.0698 4.00053L72.334 6.29373L72.6476 6.61093L72.8454 6.81113L75.4932 9.4926L76.7371 10.751L77.9915 9.48047L80.6539 6.78513C80.7092 6.81547 80.7645 6.84667 80.8181 6.87787C81.6016 7.33373 82.2987 7.9144 82.8913 8.60513C82.9034 8.619 82.9155 8.63373 82.9276 8.64847Z" fill="#E30613"/>
</g>
<g id="Group_2">
<path id="Vector_7" d="M17.7784 55.7466H14.3532L14.3333 46.2497L9.68917 54.0739H8.04436L3.42438 46.4533V55.7466H0V39.9221H3.01923L8.92723 49.7484L14.7368 39.9221H17.7335L17.7784 55.7466Z" fill="white"/>
<path id="Vector_8" d="M30.6448 39.9221H27.039L20.0088 55.7466H23.7493L25.1549 52.3553H32.4667L33.867 55.7466H37.6974L30.6448 39.9221ZM26.3073 49.5751L28.8177 43.5197L31.3186 49.5751H26.3073Z" fill="white"/>
<path id="Vector_9" d="M50.3529 50.6731C50.3633 50.6688 50.3736 50.6645 50.384 50.6601C51.4051 50.2077 52.1938 49.556 52.7493 48.7049C53.3048 47.853 53.5829 46.8399 53.5829 45.6638C53.5829 44.4877 53.3048 43.4486 52.7493 42.5897C52.1938 41.7309 51.4051 41.0713 50.384 40.612C49.3621 40.1518 48.1449 39.9221 46.7333 39.9221H39.9053V55.7466H43.556V51.3387H46.7333C46.7912 51.3387 46.8482 51.3387 46.9043 51.337L49.9331 55.7466H53.8766L50.3529 50.6731ZM49.0545 47.6875C48.4982 48.1771 47.6568 48.4224 46.5303 48.4224H43.556V42.9061H46.5303C47.6568 42.9061 48.4982 43.1479 49.0545 43.6297C49.61 44.1116 49.8882 44.7902 49.8882 45.6638C49.8882 46.5374 49.61 47.1978 49.0545 47.6875Z" fill="white"/>
<path id="Vector_10" d="M72.0833 55.7466H67.8244L62.7725 49.5387L60.6595 51.7521V55.7466H57.0312V39.9221H60.6595V47.3061L67.6448 39.9221H71.7006L65.1698 46.9725L72.0833 55.7466Z" fill="white"/>
<path id="Vector_11" d="M86.4819 52.8077V55.7466H74.2686V39.9221H86.1891V42.861H77.8968V46.2973H85.2198V49.1452H77.8968V52.8077H86.4819Z" fill="white"/>
<path id="Vector_12" d="M93.2195 55.7466V42.9061H88.1719V39.9221H101.917V42.9061H96.8693V55.7466H93.2186H93.2195Z" fill="white"/>
<path id="Vector_13" d="M127.988 39.9221L122.828 55.7466H118.907L115.43 45.0233L111.854 55.7466H107.933L102.773 39.9221H106.559L110.118 51.0458L113.838 39.9221H117.217L120.821 51.1273L124.495 39.9221H127.988Z" fill="white"/>
<path id="Vector_14" d="M130.58 55.7466V39.9221H134.231V55.7466H130.58Z" fill="white"/>
<path id="Vector_15" d="M153 39.9221V55.7466H150.003L142.139 46.1431V55.7466H138.533V39.9221H141.553L149.395 49.5222V39.9221H153Z" fill="white"/>
</g>
<g id="Group_3">
<path id="Vector_16" d="M52.2501 65C51.9235 65 51.6203 64.9463 51.3404 64.8397C51.0605 64.7331 50.8178 64.5797 50.6122 64.3821C50.4066 64.1845 50.2468 63.9513 50.1319 63.6844C50.017 63.4175 49.96 63.1245 49.96 62.8056C49.96 62.4867 50.017 62.1929 50.1319 61.9268C50.2468 61.6599 50.4074 61.4276 50.6156 61.23C50.823 61.0324 51.0657 60.879 51.3439 60.7724C51.622 60.6658 51.9261 60.6121 52.2561 60.6121C52.6224 60.6121 52.9541 60.6753 53.2504 60.8027C53.5467 60.9301 53.7955 61.1173 53.9968 61.3635L53.3679 61.945C53.2228 61.7795 53.0621 61.6547 52.8842 61.5723C52.7071 61.49 52.5136 61.4484 52.3036 61.4484C52.1058 61.4484 51.9253 61.4805 51.7594 61.5455C51.5944 61.6105 51.451 61.7032 51.3301 61.8245C51.2091 61.9459 51.1158 62.0889 51.0493 62.2553C50.9828 62.4208 50.95 62.6054 50.95 62.8073C50.95 63.0093 50.9828 63.1939 51.0493 63.3594C51.1158 63.5249 51.2091 63.6688 51.3301 63.7901C51.451 63.9115 51.5935 64.0042 51.7594 64.0692C51.9244 64.1342 52.1058 64.1663 52.3036 64.1663C52.5136 64.1663 52.7062 64.1247 52.8842 64.0415C53.0613 63.9591 53.2228 63.8326 53.3679 63.6627L53.9968 64.2451C53.7955 64.4921 53.5467 64.6793 53.2504 64.8093C52.9541 64.9385 52.6207 65.0035 52.2501 65.0035V65Z" fill="white"/>
<path id="Vector_17" d="M59.6415 65C59.3072 65 58.9979 64.9454 58.7137 64.8362C58.4295 64.727 58.1842 64.5736 57.976 64.3751C57.7687 64.1775 57.6071 63.9444 57.4922 63.6775C57.3773 63.4105 57.3203 63.1193 57.3203 62.8047C57.3203 62.4901 57.3773 62.1981 57.4922 61.932C57.6071 61.6651 57.7695 61.4328 57.9786 61.2352C58.1876 61.0376 58.4338 60.8833 58.7163 60.7741C58.9979 60.6649 59.3046 60.6103 59.6346 60.6103C59.9646 60.6103 60.2765 60.6649 60.5564 60.7741C60.8363 60.8833 61.0799 61.0367 61.2881 61.2352C61.4954 61.4328 61.6578 61.6651 61.7744 61.9294C61.891 62.1937 61.9498 62.4867 61.9498 62.8056C61.9498 63.1245 61.891 63.4131 61.7744 63.6818C61.6578 63.9505 61.4954 64.1827 61.2881 64.3786C61.0807 64.5745 60.8371 64.727 60.5564 64.8362C60.2765 64.9454 59.9707 65 59.6407 65H59.6415ZM59.6355 64.1637C59.8247 64.1637 59.9992 64.1316 60.1581 64.0666C60.3171 64.0016 60.457 63.9089 60.578 63.7875C60.6989 63.6662 60.7922 63.5232 60.8587 63.3568C60.9252 63.1913 60.9581 63.0067 60.9581 62.8047C60.9581 62.6028 60.9252 62.4191 60.8587 62.2527C60.7922 62.0871 60.6998 61.9433 60.5806 61.8219C60.4613 61.7006 60.3214 61.6079 60.1607 61.5429C59.9992 61.4787 59.8247 61.4458 59.6346 61.4458C59.4446 61.4458 59.2709 61.4779 59.112 61.5429C58.953 61.6079 58.8131 61.7006 58.6921 61.8219C58.5712 61.9433 58.4779 62.0863 58.4114 62.2527C58.3449 62.4182 58.312 62.6028 58.312 62.8047C58.312 63.0067 58.3449 63.1861 58.4114 63.3533C58.4779 63.5215 58.5703 63.6653 58.6895 63.7867C58.8088 63.908 58.9487 64.0007 59.1094 64.0657C59.2701 64.1307 59.4454 64.1628 59.6355 64.1628V64.1637Z" fill="white"/>
<path id="Vector_18" d="M70.4775 64.9272H69.5593L69.5541 62.3801L68.3084 64.4783H67.8669L66.6281 62.4347V64.9272H65.709V60.6831H66.5193L68.1036 63.3187L69.6621 60.6831H70.4655L70.4775 64.9272Z" fill="white"/>
<path id="Vector_19" d="M77.948 61.3981C77.7995 61.1685 77.5878 60.9917 77.314 60.8677C77.0392 60.7447 76.7136 60.6831 76.3343 60.6831H74.5029V64.9272H75.4826V63.7572H76.3343C76.7136 63.7572 77.0392 63.6957 77.314 63.5717C77.5878 63.4487 77.7995 63.2719 77.948 63.0413C78.0975 62.8108 78.1718 62.5387 78.1718 62.2232C78.1718 61.9077 78.0975 61.6287 77.948 61.3981ZM76.9572 62.7631C76.8077 62.8923 76.5823 62.9564 76.2799 62.9564H75.4826V61.4831H76.2799C76.5823 61.4831 76.8077 61.5481 76.9572 61.6772C77.1058 61.8063 77.1809 61.9883 77.1809 62.2232C77.1809 62.4581 77.1058 62.6331 76.9572 62.7631Z" fill="white"/>
<path id="Vector_20" d="M83.9736 60.6831H83.0069L81.1211 64.9272H82.1249L82.5016 64.0181H84.4634L84.8383 64.9272H85.8655L83.9736 60.6831ZM82.8108 63.2719L83.4846 61.6477L84.155 63.2719H82.8108Z" fill="white"/>
<path id="Vector_21" d="M93.2078 60.6831V64.9272H92.4044L90.2948 62.3515V64.9272H89.3281V60.6831H90.1376L92.2411 63.258V60.6831H93.2078Z" fill="white"/>
<path id="Vector_22" d="M100.907 60.6831L99.2631 63.4244V64.9272H98.2844V63.414L96.6465 60.6831H97.6857L98.8139 62.5673L99.9465 60.6831H100.907Z" fill="white"/>
</g>
</g>
<defs>
<clipPath id="clip0_130_137">
<rect width="153" height="65" fill="white"/>
</clipPath>
</defs>
</svg>
