<svg width="450" height="48" viewBox="0 0 450 48" fill="none" xmlns="http://www.w3.org/2000/svg">
<path d="M52.2895 47.9433H42.2153L42.1569 19.1488L28.4975 42.8718H23.6599L10.0717 19.7663V47.9433H0V-0.0361328H8.88008L26.2566 29.7569L43.3434 -0.0361328H52.1574L52.2895 47.9433Z" fill="url(#paint0_linear_130_411)"/>
<path fill-rule="evenodd" clip-rule="evenodd" d="M90.1319 -0.0361328H79.5266L58.8496 47.9433H69.8512L73.9851 37.661H95.4904L99.609 47.9433H110.875L90.1319 -0.0361328ZM77.3745 29.2313L84.7581 10.8715L92.1137 29.2313H77.3745Z" fill="url(#paint1_linear_130_411)"/>
<path fill-rule="evenodd" clip-rule="evenodd" d="M148.189 32.5212L148.098 32.5607L158.461 47.9433H146.863L137.955 34.5735C137.79 34.5787 137.622 34.5787 137.452 34.5787H128.107V47.9433H117.369V-0.0361328H137.452C141.603 -0.0361328 145.183 0.660209 148.189 2.05553C151.192 3.44821 153.512 5.44791 155.146 8.05197C156.779 10.656 157.598 13.8067 157.598 17.3725C157.598 20.9383 156.779 24.0101 155.146 26.5931C153.512 29.1735 151.192 31.1496 148.189 32.5212ZM136.854 25.7365C140.168 25.7365 142.642 24.9928 144.279 23.5082C145.912 22.0235 146.731 20.0212 146.731 17.3725C146.731 14.7237 145.912 12.6662 144.279 11.2052C142.642 9.74422 140.168 9.01108 136.854 9.01108H128.107V25.7365H136.854Z" fill="url(#paint2_linear_130_411)"/>
<path d="M212.009 47.9433H199.483L184.624 29.121L178.41 35.8322V47.9433H167.738V-0.0361328H178.41V22.352L198.954 -0.0361328H210.883L191.675 21.3403L212.009 47.9433Z" fill="url(#paint3_linear_130_411)"/>
<path d="M254.359 47.9433V39.0327H229.109V27.928H250.647V19.2933H229.109V8.87444H253.498V-0.0361328H218.438V47.9433H254.359Z" fill="url(#paint4_linear_130_411)"/>
<path d="M274.174 47.9433V9.01108H259.328V-0.0361328H299.755V9.01108H284.909V47.9433H274.174Z" fill="url(#paint5_linear_130_411)"/>
<path d="M361.26 47.9433L376.436 -0.0361328H366.164L355.355 33.9376L344.757 -0.0361328H334.818L323.877 33.6906L313.409 -0.0361328H302.275L317.452 47.9433H328.984L339.501 15.4306L349.727 47.9433H361.26Z" fill="url(#paint6_linear_130_411)"/>
<path d="M384.059 47.9433V-0.0361328H394.796V47.9433H384.059Z" fill="url(#paint7_linear_130_411)"/>
<path d="M450 47.9433V-0.0361328H439.398V29.071L416.335 -0.0361328H407.452V47.9433H418.057V18.8256L441.186 47.9433H450Z" fill="url(#paint8_linear_130_411)"/>
<defs>
<linearGradient id="paint0_linear_130_411" x1="0" y1="23.9536" x2="450" y2="23.9536" gradientUnits="userSpaceOnUse">
<stop stop-color="white"/>
<stop offset="1" stop-color="white" stop-opacity="0"/>
</linearGradient>
<linearGradient id="paint1_linear_130_411" x1="0" y1="23.9536" x2="450" y2="23.9536" gradientUnits="userSpaceOnUse">
<stop stop-color="white"/>
<stop offset="1" stop-color="white" stop-opacity="0"/>
</linearGradient>
<linearGradient id="paint2_linear_130_411" x1="0" y1="23.9536" x2="450" y2="23.9536" gradientUnits="userSpaceOnUse">
<stop stop-color="white"/>
<stop offset="1" stop-color="white" stop-opacity="0"/>
</linearGradient>
<linearGradient id="paint3_linear_130_411" x1="0" y1="23.9536" x2="450" y2="23.9536" gradientUnits="userSpaceOnUse">
<stop stop-color="white"/>
<stop offset="1" stop-color="white" stop-opacity="0"/>
</linearGradient>
<linearGradient id="paint4_linear_130_411" x1="0" y1="23.9536" x2="450" y2="23.9536" gradientUnits="userSpaceOnUse">
<stop stop-color="white"/>
<stop offset="1" stop-color="white" stop-opacity="0"/>
</linearGradient>
<linearGradient id="paint5_linear_130_411" x1="0" y1="23.9536" x2="450" y2="23.9536" gradientUnits="userSpaceOnUse">
<stop stop-color="white"/>
<stop offset="1" stop-color="white" stop-opacity="0"/>
</linearGradient>
<linearGradient id="paint6_linear_130_411" x1="0" y1="23.9536" x2="450" y2="23.9536" gradientUnits="userSpaceOnUse">
<stop stop-color="white"/>
<stop offset="1" stop-color="white" stop-opacity="0"/>
</linearGradient>
<linearGradient id="paint7_linear_130_411" x1="0" y1="23.9536" x2="450" y2="23.9536" gradientUnits="userSpaceOnUse">
<stop stop-color="white"/>
<stop offset="1" stop-color="white" stop-opacity="0"/>
</linearGradient>
<linearGradient id="paint8_linear_130_411" x1="0" y1="23.9536" x2="450" y2="23.9536" gradientUnits="userSpaceOnUse">
<stop stop-color="white"/>
<stop offset="1" stop-color="white" stop-opacity="0"/>
</linearGradient>
</defs>
</svg>
